<svg width="1389" height="203" viewBox="0 0 1389 203" fill="none" xmlns="http://www.w3.org/2000/svg">
<path d="M49.8286 202C47.6952 202.4 45.2952 202.6 42.6286 202.6C29.1619 202.6 18.7619 197.533 11.4286 187.4C4.09524 177.133 0.295238 163.067 0.0285714 145.2C-0.104762 135.867 0.228571 127.467 1.02857 120C1.9619 112.4 3.5619 105.2 5.82857 98.4C8.09524 91.6 11.0952 85.9333 14.8286 81.4C18.5619 76.7333 23.4286 73.0667 29.4286 70.4C35.4286 67.7333 42.3619 66.4 50.2286 66.4H56.8286V88.8H51.0286C46.6286 88.8 42.8952 89.9333 39.8286 92.2C36.7619 94.4667 34.4286 97.2667 32.8286 100.6C31.2286 103.8 29.9619 108.133 29.0286 113.6C28.0952 119.067 27.4952 124.067 27.2286 128.6C27.0952 133 27.0286 138.533 27.0286 145.2C27.0286 167.067 33.0952 178 45.2286 178C47.3619 178 48.8952 177.933 49.8286 177.8V202Z" fill="url(#paint0_linear_40000766_7709)"/>
<path d="M201.947 147.2C201.947 159.733 198.547 169.533 191.747 176.6C185.081 183.667 175.814 187.2 163.947 187.2C162.081 187.2 160.681 187.133 159.747 187V161.8H161.747C170.547 161.8 174.947 156.933 174.947 147.2C174.947 140.667 172.547 135.267 167.747 131C163.081 126.733 156.414 124.333 147.747 123.8V200.6H120.747V200.4L120.547 200.6L60.1473 158.8V132C71.0807 123.2 81.1473 116.133 90.3473 110.8C99.5473 105.333 109.681 101.533 120.747 99.4V88.8H48.7473V66.4H212.747V88.8H147.747V99.4C162.014 99.8 174.614 104.333 185.547 113C196.481 121.533 201.947 132.933 201.947 147.2ZM120.747 171.4V124.6C109.147 128.467 97.214 135.467 84.9473 145.6L120.747 171.4Z" fill="url(#paint1_linear_40000766_7709)"/>
<path d="M266.802 88.8H249.802V200.6H221.802V101.2C221.802 96 221.069 92.6667 219.602 91.2C218.269 89.6 215.469 88.8 211.202 88.8H204.802V66.4H214.802C219.202 66.4 222.535 68.6667 224.802 73.2C223.469 66 222.802 59.6 222.802 54V50.4H249.802V66.4H266.802V88.8Z" fill="url(#paint2_linear_40000766_7709)"/>
<path d="M372.708 200.6H344.708V166.8C344.708 153.733 340.642 147.2 332.508 147.2C329.842 147.2 327.308 148.333 324.908 150.6C322.642 152.867 320.442 155.667 318.308 159C316.308 162.2 313.975 165.467 311.308 168.8C308.775 172.133 305.242 174.933 300.708 177.2C296.175 179.467 290.842 180.6 284.708 180.6C279.242 180.6 274.042 179.8 269.108 178.2V155.2C272.708 156.267 276.575 156.8 280.708 156.8C283.242 156.8 285.642 156.133 287.908 154.8C290.308 153.333 292.042 151.933 293.108 150.6C294.308 149.267 296.042 146.933 298.308 143.6C300.575 140.133 302.108 137.867 302.908 136.8C301.308 127.867 297.642 121.133 291.908 116.6C286.308 112.067 279.108 109.8 270.308 109.8V88.8H258.708V66.4H389.908V88.8H372.708V200.6ZM326.308 123.6C334.842 123.6 340.975 126.2 344.708 131.4V88.8H296.108C311.575 95.4667 321.375 107.067 325.508 123.6H326.308Z" fill="url(#paint3_linear_40000766_7709)"/>
<path d="M347.555 57.6L381.755 24H409.155V24.8L375.155 58.4H347.555V57.6Z" fill="url(#paint4_linear_40000766_7709)"/>
<path d="M594.555 143.2C594.555 155.733 591.155 165.533 584.355 172.6C577.688 179.667 568.422 183.2 556.555 183.2C554.688 183.2 553.289 183.133 552.355 183V157.8H554.355C563.155 157.8 567.555 152.933 567.555 143.2C567.555 131.067 558.489 125 540.355 125V200.6H512.355L442.755 172.2L442.955 172V145.6L471.755 126.2L443.555 109.6V88.8H431.755V66.4H605.355V88.8H459.355L498.355 114.4V138.2L472.155 156.4L512.355 173.8V100.8H540.355C555.289 100.8 568.022 104.467 578.555 111.8C589.222 119 594.555 129.467 594.555 143.2Z" fill="url(#paint5_linear_40000766_7709)"/>
<path d="M638.38 200.6H608.78C617.18 188.467 621.38 177.6 621.38 168C621.38 163.067 619.247 154.8 614.98 143.2C610.714 131.6 608.58 122.933 608.58 117.2C608.58 111.333 610.047 105.933 612.98 101C615.914 95.9333 619.58 91.8667 623.98 88.8H653.38C648.713 91.0667 644.713 94.6 641.38 99.4C638.047 104.2 636.38 109.933 636.38 116.6C636.38 122.2 638.513 130.933 642.78 142.8C647.047 154.533 649.18 162.933 649.18 168C649.18 179.067 645.58 189.933 638.38 200.6ZM661.58 88.8H597.38V66.4H661.58V88.8Z" fill="url(#paint6_linear_40000766_7709)"/>
<path d="M715.63 88.8H698.63V200.6H670.63V101.2C670.63 96 669.897 92.6667 668.43 91.2C667.097 89.6 664.297 88.8 660.03 88.8H653.63V66.4H663.63C668.03 66.4 671.363 68.6667 673.63 73.2C672.297 66 671.63 59.6 671.63 54V50.4H698.63V66.4H715.63V88.8Z" fill="url(#paint7_linear_40000766_7709)"/>
<path d="M769.536 88.8H752.536V200.6H724.536V88.8H707.536V66.4H724.536V58C724.536 43.8667 729.07 33.3333 738.136 26.4C747.336 19.4667 759.87 16 775.736 16C785.203 16 795.003 17.1333 805.136 19.4C815.403 21.5333 823.27 23.8 828.736 26.2V47.4C822.87 45.2667 815.003 43.2667 805.136 41.4C795.403 39.4 786.336 38.4 777.936 38.4C761.136 38.4 752.736 44.8667 752.736 57.8V66.4H769.536V88.8Z" fill="url(#paint8_linear_40000766_7709)"/>
<path d="M875.443 200.6H847.443V166.8C847.443 153.733 843.376 147.2 835.243 147.2C832.576 147.2 830.043 148.333 827.643 150.6C825.376 152.867 823.176 155.667 821.043 159C819.043 162.2 816.709 165.467 814.043 168.8C811.509 172.133 807.976 174.933 803.443 177.2C798.909 179.467 793.576 180.6 787.443 180.6C781.976 180.6 776.776 179.8 771.843 178.2V155.2C775.443 156.267 779.309 156.8 783.443 156.8C785.976 156.8 788.376 156.133 790.643 154.8C793.043 153.333 794.776 151.933 795.843 150.6C797.043 149.267 798.776 146.933 801.043 143.6C803.309 140.133 804.843 137.867 805.643 136.8C804.043 127.867 800.376 121.133 794.643 116.6C789.043 112.067 781.843 109.8 773.043 109.8V88.8H761.443V66.4H892.643V88.8H875.443V200.6ZM829.043 123.6C837.576 123.6 843.709 126.2 847.443 131.4V88.8H798.843C814.309 95.4667 824.109 107.067 828.243 123.6H829.043Z" fill="url(#paint9_linear_40000766_7709)"/>
<path d="M946.49 88.8H929.49V200.6H901.49V88.8H884.49V66.4H901.49V58C901.49 43.8667 906.023 33.3333 915.09 26.4C924.29 19.4667 936.823 16 952.69 16C962.156 16 971.956 17.1333 982.09 19.4C992.356 21.5333 1000.22 23.8 1005.69 26.2V47.4C999.823 45.2667 991.956 43.2667 982.09 41.4C972.356 39.4 963.29 38.4 954.89 38.4C938.09 38.4 929.69 44.8667 929.69 57.8V66.4H946.49V88.8Z" fill="url(#paint10_linear_40000766_7709)"/>
<path d="M1081.4 200.6H1053.4V142.8C1053.4 132.933 1049.73 128 1042.4 128C1034.8 128 1031 133.8 1031 145.4V150.2H1002.4V144C1002.4 133.333 998.396 128 990.396 128C986.396 128 983.329 129.467 981.196 132.4C979.196 135.2 978.196 138.8 978.196 143.2C978.196 153.733 983.262 159 993.396 159C995.662 159 998.329 158.8 1001.4 158.4V181.8C997.796 182.333 994.062 182.6 990.196 182.6C977.929 182.6 968.196 179 960.996 171.8C953.796 164.6 950.196 154.933 950.196 142.8C950.196 131.467 953.462 122.267 959.996 115.2C966.662 108.133 975.929 104.6 987.796 104.6C995.796 104.6 1002.26 106.333 1007.2 109.8C1012.26 113.133 1015.4 117.333 1016.6 122.4C1017.93 117.333 1020.46 113.067 1024.2 109.6C1027.93 106.133 1032.86 104.4 1039 104.4C1045.13 104.4 1049.93 106.333 1053.4 110.2V88.8H938.396V66.4H1098.4V88.8H1081.4V200.6Z" fill="url(#paint11_linear_40000766_7709)"/>
<path d="M1135.55 41.8V66.4H1223.75C1223.88 65.4667 1223.95 64.3333 1223.95 63C1223.95 57.6667 1220.22 55 1212.75 55C1208.62 55 1203.02 55.2667 1195.95 55.8C1189.02 56.3333 1183.55 56.6 1179.55 56.6C1168.22 56.4667 1159.62 53.6 1153.75 48C1147.88 42.2667 1144.28 34.8667 1142.95 25.8C1138.02 29 1135.55 34.3333 1135.55 41.8ZM1254.75 148.2C1254.75 162.333 1249.75 174.933 1239.75 186C1229.88 197.067 1216.88 202.6 1200.75 202.6C1189.95 202.6 1180.68 199.467 1172.95 193.2C1165.22 186.933 1161.35 178.533 1161.35 168V88.8H1135.35V200.6H1107.35V88.8H1090.35V66.4H1107.35V42C1107.35 27.8667 1111.88 17.3333 1120.95 10.4C1130.15 3.46667 1142.68 0 1158.55 0C1176.28 0 1195.82 2.73333 1217.15 8.19999V28.6C1201.15 24.3333 1183.68 22 1164.75 21.6C1165.82 26.2667 1167.75 29.8 1170.55 32.2C1173.35 34.4667 1177.55 35.6 1183.15 35.6C1185.95 35.6 1191.35 35.3333 1199.35 34.8C1207.35 34.2667 1213.68 34 1218.35 34C1228.48 34 1236.08 36.5333 1241.15 41.6C1246.22 46.6667 1248.75 52.9333 1248.75 60.4C1248.75 61.7333 1248.62 63.7333 1248.35 66.4H1265.35V88.8H1189.35V168C1189.35 171.333 1190.42 173.933 1192.55 175.8C1194.68 177.667 1197.42 178.6 1200.75 178.6C1208.62 178.6 1214.88 175.467 1219.55 169.2C1224.35 162.8 1226.75 155.8 1226.75 148.2C1226.75 137.4 1221.08 132 1209.75 132C1206.82 132 1204.02 132.267 1201.35 132.8V108.4C1205.48 107.467 1209.68 107 1213.95 107C1226.88 107 1236.88 110.733 1243.95 118.2C1251.15 125.667 1254.75 135.667 1254.75 148.2Z" fill="url(#paint12_linear_40000766_7709)"/>
<path d="M1371.34 200.6H1343.34V166.8C1343.34 153.733 1339.27 147.2 1331.14 147.2C1328.47 147.2 1325.94 148.333 1323.54 150.6C1321.27 152.867 1319.07 155.667 1316.94 159C1314.94 162.2 1312.61 165.467 1309.94 168.8C1307.41 172.133 1303.87 174.933 1299.34 177.2C1294.81 179.467 1289.47 180.6 1283.34 180.6C1277.87 180.6 1272.67 179.8 1267.74 178.2V155.2C1271.34 156.267 1275.21 156.8 1279.34 156.8C1281.87 156.8 1284.27 156.133 1286.54 154.8C1288.94 153.333 1290.67 151.933 1291.74 150.6C1292.94 149.267 1294.67 146.933 1296.94 143.6C1299.21 140.133 1300.74 137.867 1301.54 136.8C1299.94 127.867 1296.27 121.133 1290.54 116.6C1284.94 112.067 1277.74 109.8 1268.94 109.8V88.8H1257.34V66.4H1388.54V88.8H1371.34V200.6ZM1324.94 123.6C1333.47 123.6 1339.61 126.2 1343.34 131.4V88.8H1294.74C1310.21 95.4667 1320.01 107.067 1324.14 123.6H1324.94Z" fill="url(#paint13_linear_40000766_7709)"/>
<defs>
<linearGradient id="paint0_linear_40000766_7709" x1="719.028" y1="200.6" x2="719.028" y2="38.1001" gradientUnits="userSpaceOnUse">
<stop stop-color="#DFDFDF" stop-opacity="0"/>
<stop offset="1" stop-color="#DFDFDF"/>
</linearGradient>
<linearGradient id="paint1_linear_40000766_7709" x1="719.028" y1="200.6" x2="719.028" y2="38.1001" gradientUnits="userSpaceOnUse">
<stop stop-color="#DFDFDF" stop-opacity="0"/>
<stop offset="1" stop-color="#DFDFDF"/>
</linearGradient>
<linearGradient id="paint2_linear_40000766_7709" x1="719.028" y1="200.6" x2="719.028" y2="38.1001" gradientUnits="userSpaceOnUse">
<stop stop-color="#DFDFDF" stop-opacity="0"/>
<stop offset="1" stop-color="#DFDFDF"/>
</linearGradient>
<linearGradient id="paint3_linear_40000766_7709" x1="719.028" y1="200.6" x2="719.028" y2="38.1001" gradientUnits="userSpaceOnUse">
<stop stop-color="#DFDFDF" stop-opacity="0"/>
<stop offset="1" stop-color="#DFDFDF"/>
</linearGradient>
<linearGradient id="paint4_linear_40000766_7709" x1="719.028" y1="200.6" x2="719.028" y2="38.1001" gradientUnits="userSpaceOnUse">
<stop stop-color="#DFDFDF" stop-opacity="0"/>
<stop offset="1" stop-color="#DFDFDF"/>
</linearGradient>
<linearGradient id="paint5_linear_40000766_7709" x1="719.028" y1="200.6" x2="719.028" y2="38.1001" gradientUnits="userSpaceOnUse">
<stop stop-color="#DFDFDF" stop-opacity="0"/>
<stop offset="1" stop-color="#DFDFDF"/>
</linearGradient>
<linearGradient id="paint6_linear_40000766_7709" x1="719.028" y1="200.6" x2="719.028" y2="38.1001" gradientUnits="userSpaceOnUse">
<stop stop-color="#DFDFDF" stop-opacity="0"/>
<stop offset="1" stop-color="#DFDFDF"/>
</linearGradient>
<linearGradient id="paint7_linear_40000766_7709" x1="719.028" y1="200.6" x2="719.028" y2="38.1001" gradientUnits="userSpaceOnUse">
<stop stop-color="#DFDFDF" stop-opacity="0"/>
<stop offset="1" stop-color="#DFDFDF"/>
</linearGradient>
<linearGradient id="paint8_linear_40000766_7709" x1="719.028" y1="200.6" x2="719.028" y2="38.1001" gradientUnits="userSpaceOnUse">
<stop stop-color="#DFDFDF" stop-opacity="0"/>
<stop offset="1" stop-color="#DFDFDF"/>
</linearGradient>
<linearGradient id="paint9_linear_40000766_7709" x1="719.028" y1="200.6" x2="719.028" y2="38.1001" gradientUnits="userSpaceOnUse">
<stop stop-color="#DFDFDF" stop-opacity="0"/>
<stop offset="1" stop-color="#DFDFDF"/>
</linearGradient>
<linearGradient id="paint10_linear_40000766_7709" x1="719.028" y1="200.6" x2="719.028" y2="38.1001" gradientUnits="userSpaceOnUse">
<stop stop-color="#DFDFDF" stop-opacity="0"/>
<stop offset="1" stop-color="#DFDFDF"/>
</linearGradient>
<linearGradient id="paint11_linear_40000766_7709" x1="719.028" y1="200.6" x2="719.028" y2="38.1001" gradientUnits="userSpaceOnUse">
<stop stop-color="#DFDFDF" stop-opacity="0"/>
<stop offset="1" stop-color="#DFDFDF"/>
</linearGradient>
<linearGradient id="paint12_linear_40000766_7709" x1="719.028" y1="200.6" x2="719.028" y2="38.1001" gradientUnits="userSpaceOnUse">
<stop stop-color="#DFDFDF" stop-opacity="0"/>
<stop offset="1" stop-color="#DFDFDF"/>
</linearGradient>
<linearGradient id="paint13_linear_40000766_7709" x1="719.028" y1="200.6" x2="719.028" y2="38.1001" gradientUnits="userSpaceOnUse">
<stop stop-color="#DFDFDF" stop-opacity="0"/>
<stop offset="1" stop-color="#DFDFDF"/>
</linearGradient>
</defs>
</svg>
