<svg width="1391" height="205" viewBox="0 0 1391 205" fill="none" xmlns="http://www.w3.org/2000/svg">
<mask id="path-1-outside-1_40000766_7708" maskUnits="userSpaceOnUse" x="0" y="0" width="1391" height="205" fill="black">
<rect fill="white" width="1391" height="205"/>
<path d="M50.8286 203C48.6952 203.4 46.2952 203.6 43.6286 203.6C30.1619 203.6 19.7619 198.533 12.4286 188.4C5.09524 178.133 1.29524 164.067 1.02857 146.2C0.895238 136.867 1.22857 128.467 2.02857 121C2.9619 113.4 4.5619 106.2 6.82857 99.4C9.09524 92.6 12.0952 86.9333 15.8286 82.4C19.5619 77.7333 24.4286 74.0667 30.4286 71.4C36.4286 68.7333 43.3619 67.4 51.2286 67.4H57.8286V89.8H52.0286C47.6286 89.8 43.8952 90.9333 40.8286 93.2C37.7619 95.4667 35.4286 98.2667 33.8286 101.6C32.2286 104.8 30.9619 109.133 30.0286 114.6C29.0952 120.067 28.4952 125.067 28.2286 129.6C28.0952 134 28.0286 139.533 28.0286 146.2C28.0286 168.067 34.0952 179 46.2286 179C48.3619 179 49.8952 178.933 50.8286 178.8V203ZM202.947 148.2C202.947 160.733 199.547 170.533 192.747 177.6C186.081 184.667 176.814 188.2 164.947 188.2C163.081 188.2 161.681 188.133 160.747 188V162.8H162.747C171.547 162.8 175.947 157.933 175.947 148.2C175.947 141.667 173.547 136.267 168.747 132C164.081 127.733 157.414 125.333 148.747 124.8V201.6H121.747V201.4L121.547 201.6L61.1473 159.8V133C72.0807 124.2 82.1473 117.133 91.3473 111.8C100.547 106.333 110.681 102.533 121.747 100.4V89.8H49.7473V67.4H213.747V89.8H148.747V100.4C163.014 100.8 175.614 105.333 186.547 114C197.481 122.533 202.947 133.933 202.947 148.2ZM121.747 172.4V125.6C110.147 129.467 98.214 136.467 85.9473 146.6L121.747 172.4ZM267.802 89.8H250.802V201.6H222.802V102.2C222.802 97 222.069 93.6667 220.602 92.2C219.269 90.6 216.469 89.8 212.202 89.8H205.802V67.4H215.802C220.202 67.4 223.535 69.6667 225.802 74.2C224.469 67 223.802 60.6 223.802 55V51.4H250.802V67.4H267.802V89.8ZM373.708 201.6H345.708V167.8C345.708 154.733 341.642 148.2 333.508 148.2C330.842 148.2 328.308 149.333 325.908 151.6C323.642 153.867 321.442 156.667 319.308 160C317.308 163.2 314.975 166.467 312.308 169.8C309.775 173.133 306.242 175.933 301.708 178.2C297.175 180.467 291.842 181.6 285.708 181.6C280.242 181.6 275.042 180.8 270.108 179.2V156.2C273.708 157.267 277.575 157.8 281.708 157.8C284.242 157.8 286.642 157.133 288.908 155.8C291.308 154.333 293.042 152.933 294.108 151.6C295.308 150.267 297.042 147.933 299.308 144.6C301.575 141.133 303.108 138.867 303.908 137.8C302.308 128.867 298.642 122.133 292.908 117.6C287.308 113.067 280.108 110.8 271.308 110.8V89.8H259.708V67.4H390.908V89.8H373.708V201.6ZM327.308 124.6C335.842 124.6 341.975 127.2 345.708 132.4V89.8H297.108C312.575 96.4667 322.375 108.067 326.508 124.6H327.308ZM348.555 58.6L382.755 25H410.155V25.8L376.155 59.4H348.555V58.6ZM595.555 144.2C595.555 156.733 592.155 166.533 585.355 173.6C578.688 180.667 569.422 184.2 557.555 184.2C555.688 184.2 554.289 184.133 553.355 184V158.8H555.355C564.155 158.8 568.555 153.933 568.555 144.2C568.555 132.067 559.489 126 541.355 126V201.6H513.355L443.755 173.2L443.955 173V146.6L472.755 127.2L444.555 110.6V89.8H432.755V67.4H606.355V89.8H460.355L499.355 115.4V139.2L473.155 157.4L513.355 174.8V101.8H541.355C556.289 101.8 569.022 105.467 579.555 112.8C590.222 120 595.555 130.467 595.555 144.2ZM639.38 201.6H609.78C618.18 189.467 622.38 178.6 622.38 169C622.38 164.067 620.247 155.8 615.98 144.2C611.714 132.6 609.58 123.933 609.58 118.2C609.58 112.333 611.047 106.933 613.98 102C616.914 96.9333 620.58 92.8667 624.98 89.8H654.38C649.713 92.0667 645.713 95.6 642.38 100.4C639.047 105.2 637.38 110.933 637.38 117.6C637.38 123.2 639.513 131.933 643.78 143.8C648.047 155.533 650.18 163.933 650.18 169C650.18 180.067 646.58 190.933 639.38 201.6ZM662.58 89.8H598.38V67.4H662.58V89.8ZM716.63 89.8H699.63V201.6H671.63V102.2C671.63 97 670.897 93.6667 669.43 92.2C668.097 90.6 665.297 89.8 661.03 89.8H654.63V67.4H664.63C669.03 67.4 672.363 69.6667 674.63 74.2C673.297 67 672.63 60.6 672.63 55V51.4H699.63V67.4H716.63V89.8ZM770.536 89.8H753.536V201.6H725.536V89.8H708.536V67.4H725.536V59C725.536 44.8667 730.07 34.3333 739.136 27.4C748.336 20.4667 760.87 17 776.736 17C786.203 17 796.003 18.1333 806.136 20.4C816.403 22.5333 824.27 24.8 829.736 27.2V48.4C823.87 46.2667 816.003 44.2667 806.136 42.4C796.403 40.4 787.336 39.4 778.936 39.4C762.136 39.4 753.736 45.8667 753.736 58.8V67.4H770.536V89.8ZM876.443 201.6H848.443V167.8C848.443 154.733 844.376 148.2 836.243 148.2C833.576 148.2 831.043 149.333 828.643 151.6C826.376 153.867 824.176 156.667 822.043 160C820.043 163.2 817.709 166.467 815.043 169.8C812.509 173.133 808.976 175.933 804.443 178.2C799.909 180.467 794.576 181.6 788.443 181.6C782.976 181.6 777.776 180.8 772.843 179.2V156.2C776.443 157.267 780.309 157.8 784.443 157.8C786.976 157.8 789.376 157.133 791.643 155.8C794.043 154.333 795.776 152.933 796.843 151.6C798.043 150.267 799.776 147.933 802.043 144.6C804.309 141.133 805.843 138.867 806.643 137.8C805.043 128.867 801.376 122.133 795.643 117.6C790.043 113.067 782.843 110.8 774.043 110.8V89.8H762.443V67.4H893.643V89.8H876.443V201.6ZM830.043 124.6C838.576 124.6 844.709 127.2 848.443 132.4V89.8H799.843C815.309 96.4667 825.109 108.067 829.243 124.6H830.043ZM947.49 89.8H930.49V201.6H902.49V89.8H885.49V67.4H902.49V59C902.49 44.8667 907.023 34.3333 916.09 27.4C925.29 20.4667 937.823 17 953.69 17C963.156 17 972.956 18.1333 983.09 20.4C993.356 22.5333 1001.22 24.8 1006.69 27.2V48.4C1000.82 46.2667 992.956 44.2667 983.09 42.4C973.356 40.4 964.29 39.4 955.89 39.4C939.09 39.4 930.69 45.8667 930.69 58.8V67.4H947.49V89.8ZM1082.4 201.6H1054.4V143.8C1054.4 133.933 1050.73 129 1043.4 129C1035.8 129 1032 134.8 1032 146.4V151.2H1003.4V145C1003.4 134.333 999.396 129 991.396 129C987.396 129 984.329 130.467 982.196 133.4C980.196 136.2 979.196 139.8 979.196 144.2C979.196 154.733 984.262 160 994.396 160C996.662 160 999.329 159.8 1002.4 159.4V182.8C998.796 183.333 995.062 183.6 991.196 183.6C978.929 183.6 969.196 180 961.996 172.8C954.796 165.6 951.196 155.933 951.196 143.8C951.196 132.467 954.462 123.267 960.996 116.2C967.662 109.133 976.929 105.6 988.796 105.6C996.796 105.6 1003.26 107.333 1008.2 110.8C1013.26 114.133 1016.4 118.333 1017.6 123.4C1018.93 118.333 1021.46 114.067 1025.2 110.6C1028.93 107.133 1033.86 105.4 1040 105.4C1046.13 105.4 1050.93 107.333 1054.4 111.2V89.8H939.396V67.4H1099.4V89.8H1082.4V201.6ZM1136.55 42.8V67.4H1224.75C1224.88 66.4667 1224.95 65.3333 1224.95 64C1224.95 58.6667 1221.22 56 1213.75 56C1209.62 56 1204.02 56.2667 1196.95 56.8C1190.02 57.3333 1184.55 57.6 1180.55 57.6C1169.22 57.4667 1160.62 54.6 1154.75 49C1148.88 43.2667 1145.28 35.8667 1143.95 26.8C1139.02 30 1136.55 35.3333 1136.55 42.8ZM1255.75 149.2C1255.75 163.333 1250.75 175.933 1240.75 187C1230.88 198.067 1217.88 203.6 1201.75 203.6C1190.95 203.6 1181.68 200.467 1173.95 194.2C1166.22 187.933 1162.35 179.533 1162.35 169V89.8H1136.35V201.6H1108.35V89.8H1091.35V67.4H1108.35V43C1108.35 28.8667 1112.88 18.3333 1121.95 11.4C1131.15 4.46667 1143.68 1 1159.55 1C1177.28 1 1196.82 3.73333 1218.15 9.19999V29.6C1202.15 25.3333 1184.68 23 1165.75 22.6C1166.82 27.2667 1168.75 30.8 1171.55 33.2C1174.35 35.4667 1178.55 36.6 1184.15 36.6C1186.95 36.6 1192.35 36.3333 1200.35 35.8C1208.35 35.2667 1214.68 35 1219.35 35C1229.48 35 1237.08 37.5333 1242.15 42.6C1247.22 47.6667 1249.75 53.9333 1249.75 61.4C1249.75 62.7333 1249.62 64.7333 1249.35 67.4H1266.35V89.8H1190.35V169C1190.35 172.333 1191.42 174.933 1193.55 176.8C1195.68 178.667 1198.42 179.6 1201.75 179.6C1209.62 179.6 1215.88 176.467 1220.55 170.2C1225.35 163.8 1227.75 156.8 1227.75 149.2C1227.75 138.4 1222.08 133 1210.75 133C1207.82 133 1205.02 133.267 1202.35 133.8V109.4C1206.48 108.467 1210.68 108 1214.95 108C1227.88 108 1237.88 111.733 1244.95 119.2C1252.15 126.667 1255.75 136.667 1255.75 149.2ZM1372.34 201.6H1344.34V167.8C1344.34 154.733 1340.27 148.2 1332.14 148.2C1329.47 148.2 1326.94 149.333 1324.54 151.6C1322.27 153.867 1320.07 156.667 1317.94 160C1315.94 163.2 1313.61 166.467 1310.94 169.8C1308.41 173.133 1304.87 175.933 1300.34 178.2C1295.81 180.467 1290.47 181.6 1284.34 181.6C1278.87 181.6 1273.67 180.8 1268.74 179.2V156.2C1272.34 157.267 1276.21 157.8 1280.34 157.8C1282.87 157.8 1285.27 157.133 1287.54 155.8C1289.94 154.333 1291.67 152.933 1292.74 151.6C1293.94 150.267 1295.67 147.933 1297.94 144.6C1300.21 141.133 1301.74 138.867 1302.54 137.8C1300.94 128.867 1297.27 122.133 1291.54 117.6C1285.94 113.067 1278.74 110.8 1269.94 110.8V89.8H1258.34V67.4H1389.54V89.8H1372.34V201.6ZM1325.94 124.6C1334.47 124.6 1340.61 127.2 1344.34 132.4V89.8H1295.74C1311.21 96.4667 1321.01 108.067 1325.14 124.6H1325.94Z"/>
</mask>
<path d="M50.8286 203C48.6952 203.4 46.2952 203.6 43.6286 203.6C30.1619 203.6 19.7619 198.533 12.4286 188.4C5.09524 178.133 1.29524 164.067 1.02857 146.2C0.895238 136.867 1.22857 128.467 2.02857 121C2.9619 113.4 4.5619 106.2 6.82857 99.4C9.09524 92.6 12.0952 86.9333 15.8286 82.4C19.5619 77.7333 24.4286 74.0667 30.4286 71.4C36.4286 68.7333 43.3619 67.4 51.2286 67.4H57.8286V89.8H52.0286C47.6286 89.8 43.8952 90.9333 40.8286 93.2C37.7619 95.4667 35.4286 98.2667 33.8286 101.6C32.2286 104.8 30.9619 109.133 30.0286 114.6C29.0952 120.067 28.4952 125.067 28.2286 129.6C28.0952 134 28.0286 139.533 28.0286 146.2C28.0286 168.067 34.0952 179 46.2286 179C48.3619 179 49.8952 178.933 50.8286 178.8V203ZM202.947 148.2C202.947 160.733 199.547 170.533 192.747 177.6C186.081 184.667 176.814 188.2 164.947 188.2C163.081 188.2 161.681 188.133 160.747 188V162.8H162.747C171.547 162.8 175.947 157.933 175.947 148.2C175.947 141.667 173.547 136.267 168.747 132C164.081 127.733 157.414 125.333 148.747 124.8V201.6H121.747V201.4L121.547 201.6L61.1473 159.8V133C72.0807 124.2 82.1473 117.133 91.3473 111.8C100.547 106.333 110.681 102.533 121.747 100.4V89.8H49.7473V67.4H213.747V89.8H148.747V100.4C163.014 100.8 175.614 105.333 186.547 114C197.481 122.533 202.947 133.933 202.947 148.2ZM121.747 172.4V125.6C110.147 129.467 98.214 136.467 85.9473 146.6L121.747 172.4ZM267.802 89.8H250.802V201.6H222.802V102.2C222.802 97 222.069 93.6667 220.602 92.2C219.269 90.6 216.469 89.8 212.202 89.8H205.802V67.4H215.802C220.202 67.4 223.535 69.6667 225.802 74.2C224.469 67 223.802 60.6 223.802 55V51.4H250.802V67.4H267.802V89.8ZM373.708 201.6H345.708V167.8C345.708 154.733 341.642 148.2 333.508 148.2C330.842 148.2 328.308 149.333 325.908 151.6C323.642 153.867 321.442 156.667 319.308 160C317.308 163.2 314.975 166.467 312.308 169.8C309.775 173.133 306.242 175.933 301.708 178.2C297.175 180.467 291.842 181.6 285.708 181.6C280.242 181.6 275.042 180.8 270.108 179.2V156.2C273.708 157.267 277.575 157.8 281.708 157.8C284.242 157.8 286.642 157.133 288.908 155.8C291.308 154.333 293.042 152.933 294.108 151.6C295.308 150.267 297.042 147.933 299.308 144.6C301.575 141.133 303.108 138.867 303.908 137.8C302.308 128.867 298.642 122.133 292.908 117.6C287.308 113.067 280.108 110.8 271.308 110.8V89.8H259.708V67.4H390.908V89.8H373.708V201.6ZM327.308 124.6C335.842 124.6 341.975 127.2 345.708 132.4V89.8H297.108C312.575 96.4667 322.375 108.067 326.508 124.6H327.308ZM348.555 58.6L382.755 25H410.155V25.8L376.155 59.4H348.555V58.6ZM595.555 144.2C595.555 156.733 592.155 166.533 585.355 173.6C578.688 180.667 569.422 184.2 557.555 184.2C555.688 184.2 554.289 184.133 553.355 184V158.8H555.355C564.155 158.8 568.555 153.933 568.555 144.2C568.555 132.067 559.489 126 541.355 126V201.6H513.355L443.755 173.2L443.955 173V146.6L472.755 127.2L444.555 110.6V89.8H432.755V67.4H606.355V89.8H460.355L499.355 115.4V139.2L473.155 157.4L513.355 174.8V101.8H541.355C556.289 101.8 569.022 105.467 579.555 112.8C590.222 120 595.555 130.467 595.555 144.2ZM639.38 201.6H609.78C618.18 189.467 622.38 178.6 622.38 169C622.38 164.067 620.247 155.8 615.98 144.2C611.714 132.6 609.58 123.933 609.58 118.2C609.58 112.333 611.047 106.933 613.98 102C616.914 96.9333 620.58 92.8667 624.98 89.8H654.38C649.713 92.0667 645.713 95.6 642.38 100.4C639.047 105.2 637.38 110.933 637.38 117.6C637.38 123.2 639.513 131.933 643.78 143.8C648.047 155.533 650.18 163.933 650.18 169C650.18 180.067 646.58 190.933 639.38 201.6ZM662.58 89.8H598.38V67.4H662.58V89.8ZM716.63 89.8H699.63V201.6H671.63V102.2C671.63 97 670.897 93.6667 669.43 92.2C668.097 90.6 665.297 89.8 661.03 89.8H654.63V67.4H664.63C669.03 67.4 672.363 69.6667 674.63 74.2C673.297 67 672.63 60.6 672.63 55V51.4H699.63V67.4H716.63V89.8ZM770.536 89.8H753.536V201.6H725.536V89.8H708.536V67.4H725.536V59C725.536 44.8667 730.07 34.3333 739.136 27.4C748.336 20.4667 760.87 17 776.736 17C786.203 17 796.003 18.1333 806.136 20.4C816.403 22.5333 824.27 24.8 829.736 27.2V48.4C823.87 46.2667 816.003 44.2667 806.136 42.4C796.403 40.4 787.336 39.4 778.936 39.4C762.136 39.4 753.736 45.8667 753.736 58.8V67.4H770.536V89.8ZM876.443 201.6H848.443V167.8C848.443 154.733 844.376 148.2 836.243 148.2C833.576 148.2 831.043 149.333 828.643 151.6C826.376 153.867 824.176 156.667 822.043 160C820.043 163.2 817.709 166.467 815.043 169.8C812.509 173.133 808.976 175.933 804.443 178.2C799.909 180.467 794.576 181.6 788.443 181.6C782.976 181.6 777.776 180.8 772.843 179.2V156.2C776.443 157.267 780.309 157.8 784.443 157.8C786.976 157.8 789.376 157.133 791.643 155.8C794.043 154.333 795.776 152.933 796.843 151.6C798.043 150.267 799.776 147.933 802.043 144.6C804.309 141.133 805.843 138.867 806.643 137.8C805.043 128.867 801.376 122.133 795.643 117.6C790.043 113.067 782.843 110.8 774.043 110.8V89.8H762.443V67.4H893.643V89.8H876.443V201.6ZM830.043 124.6C838.576 124.6 844.709 127.2 848.443 132.4V89.8H799.843C815.309 96.4667 825.109 108.067 829.243 124.6H830.043ZM947.49 89.8H930.49V201.6H902.49V89.8H885.49V67.4H902.49V59C902.49 44.8667 907.023 34.3333 916.09 27.4C925.29 20.4667 937.823 17 953.69 17C963.156 17 972.956 18.1333 983.09 20.4C993.356 22.5333 1001.22 24.8 1006.69 27.2V48.4C1000.82 46.2667 992.956 44.2667 983.09 42.4C973.356 40.4 964.29 39.4 955.89 39.4C939.09 39.4 930.69 45.8667 930.69 58.8V67.4H947.49V89.8ZM1082.4 201.6H1054.4V143.8C1054.4 133.933 1050.73 129 1043.4 129C1035.8 129 1032 134.8 1032 146.4V151.2H1003.4V145C1003.4 134.333 999.396 129 991.396 129C987.396 129 984.329 130.467 982.196 133.4C980.196 136.2 979.196 139.8 979.196 144.2C979.196 154.733 984.262 160 994.396 160C996.662 160 999.329 159.8 1002.4 159.4V182.8C998.796 183.333 995.062 183.6 991.196 183.6C978.929 183.6 969.196 180 961.996 172.8C954.796 165.6 951.196 155.933 951.196 143.8C951.196 132.467 954.462 123.267 960.996 116.2C967.662 109.133 976.929 105.6 988.796 105.6C996.796 105.6 1003.26 107.333 1008.2 110.8C1013.26 114.133 1016.4 118.333 1017.6 123.4C1018.93 118.333 1021.46 114.067 1025.2 110.6C1028.93 107.133 1033.86 105.4 1040 105.4C1046.13 105.4 1050.93 107.333 1054.4 111.2V89.8H939.396V67.4H1099.4V89.8H1082.4V201.6ZM1136.55 42.8V67.4H1224.75C1224.88 66.4667 1224.95 65.3333 1224.95 64C1224.95 58.6667 1221.22 56 1213.75 56C1209.62 56 1204.02 56.2667 1196.95 56.8C1190.02 57.3333 1184.55 57.6 1180.55 57.6C1169.22 57.4667 1160.62 54.6 1154.75 49C1148.88 43.2667 1145.28 35.8667 1143.95 26.8C1139.02 30 1136.55 35.3333 1136.55 42.8ZM1255.75 149.2C1255.75 163.333 1250.75 175.933 1240.75 187C1230.88 198.067 1217.88 203.6 1201.75 203.6C1190.95 203.6 1181.68 200.467 1173.95 194.2C1166.22 187.933 1162.35 179.533 1162.35 169V89.8H1136.35V201.6H1108.35V89.8H1091.35V67.4H1108.35V43C1108.35 28.8667 1112.88 18.3333 1121.95 11.4C1131.15 4.46667 1143.68 1 1159.55 1C1177.28 1 1196.82 3.73333 1218.15 9.19999V29.6C1202.15 25.3333 1184.68 23 1165.75 22.6C1166.82 27.2667 1168.75 30.8 1171.55 33.2C1174.35 35.4667 1178.55 36.6 1184.15 36.6C1186.95 36.6 1192.35 36.3333 1200.35 35.8C1208.35 35.2667 1214.68 35 1219.35 35C1229.48 35 1237.08 37.5333 1242.15 42.6C1247.22 47.6667 1249.75 53.9333 1249.75 61.4C1249.75 62.7333 1249.62 64.7333 1249.35 67.4H1266.35V89.8H1190.35V169C1190.35 172.333 1191.42 174.933 1193.55 176.8C1195.68 178.667 1198.42 179.6 1201.75 179.6C1209.62 179.6 1215.88 176.467 1220.55 170.2C1225.35 163.8 1227.75 156.8 1227.75 149.2C1227.75 138.4 1222.08 133 1210.75 133C1207.82 133 1205.02 133.267 1202.35 133.8V109.4C1206.48 108.467 1210.68 108 1214.95 108C1227.88 108 1237.88 111.733 1244.95 119.2C1252.15 126.667 1255.75 136.667 1255.75 149.2ZM1372.34 201.6H1344.34V167.8C1344.34 154.733 1340.27 148.2 1332.14 148.2C1329.47 148.2 1326.94 149.333 1324.54 151.6C1322.27 153.867 1320.07 156.667 1317.94 160C1315.94 163.2 1313.61 166.467 1310.94 169.8C1308.41 173.133 1304.87 175.933 1300.34 178.2C1295.81 180.467 1290.47 181.6 1284.34 181.6C1278.87 181.6 1273.67 180.8 1268.74 179.2V156.2C1272.34 157.267 1276.21 157.8 1280.34 157.8C1282.87 157.8 1285.27 157.133 1287.54 155.8C1289.94 154.333 1291.67 152.933 1292.74 151.6C1293.94 150.267 1295.67 147.933 1297.94 144.6C1300.21 141.133 1301.74 138.867 1302.54 137.8C1300.94 128.867 1297.27 122.133 1291.54 117.6C1285.94 113.067 1278.74 110.8 1269.94 110.8V89.8H1258.34V67.4H1389.54V89.8H1372.34V201.6ZM1325.94 124.6C1334.47 124.6 1340.61 127.2 1344.34 132.4V89.8H1295.74C1311.21 96.4667 1321.01 108.067 1325.14 124.6H1325.94Z" stroke="url(#paint0_linear_40000766_7708)" stroke-width="2" mask="url(#path-1-outside-1_40000766_7708)"/>
<defs>
<linearGradient id="paint0_linear_40000766_7708" x1="788.528" y1="185.6" x2="84.5283" y2="60.6001" gradientUnits="userSpaceOnUse">
<stop stop-color="#B9B9B9" stop-opacity="0.45"/>
<stop offset="1" stop-color="#B8B8B8"/>
</linearGradient>
</defs>
</svg>
