<?xml version="1.0" encoding="UTF-8"?>
<svg xmlns="http://www.w3.org/2000/svg" id="Layer_1" data-name="Layer 1" viewBox="0 0 24 24">
  <path d="M17.75,1c-2.504,0-4.777,1.851-5.75,4.354-.973-2.504-3.246-4.354-5.75-4.354C2.804,1,0,3.804,0,7.25c0,6.76,9.754,14.07,11.709,15.466l.291,.208,.291-.208c1.956-1.396,11.709-8.707,11.709-15.466,0-3.446-2.804-6.25-6.25-6.25Zm-5.75,20.693C6.859,17.958,1,12.022,1,7.25,1,4.355,3.355,2,6.25,2c2.748,0,5.25,2.86,5.25,6h1c0-3.14,2.502-6,5.25-6,2.895,0,5.25,2.355,5.25,5.25,0,4.772-5.859,10.708-11,14.443Z"/>
</svg>
