<svg width="49" height="49" viewBox="0 0 49 49" fill="none" xmlns="http://www.w3.org/2000/svg">
<path d="M28.3898 4.05566H12.1666C11.0909 4.05566 10.0593 4.48297 9.29872 5.24358C8.53811 6.00419 8.11081 7.03579 8.11081 8.11146V40.5578C8.11081 41.6335 8.53811 42.6651 9.29872 43.4257C10.0593 44.1863 11.0909 44.6136 12.1666 44.6136H36.5014C37.577 44.6136 38.6086 44.1863 39.3692 43.4257C40.1299 42.6651 40.5572 41.6335 40.5572 40.5578V16.223L28.3898 4.05566Z" stroke="#29AE48" stroke-width="1.62232" stroke-linecap="round" stroke-linejoin="round"/>
<path d="M28.389 4.05566V16.223H40.5564" stroke="#29AE48" stroke-width="1.62232" stroke-linecap="round" stroke-linejoin="round"/>
<path d="M32.4421 26.3628H16.2189" stroke="#29AE48" stroke-width="1.62232" stroke-linecap="round" stroke-linejoin="round"/>
<path d="M32.4421 34.4744H16.2189" stroke="#29AE48" stroke-width="1.62232" stroke-linecap="round" stroke-linejoin="round"/>
<path d="M20.2747 18.2512H18.2468H16.2189" stroke="#29AE48" stroke-width="1.62232" stroke-linecap="round" stroke-linejoin="round"/>
</svg>
