<svg width="49" height="49" viewBox="0 0 49 49" fill="none" xmlns="http://www.w3.org/2000/svg">
<path d="M42.5829 32.4462V16.223C42.5822 15.5118 42.3944 14.8133 42.0385 14.1975C41.6826 13.5817 41.171 13.0704 40.555 12.7148L26.3597 4.60319C25.7432 4.24722 25.0438 4.05981 24.3318 4.05981C23.6199 4.05981 22.9205 4.24722 22.3039 4.60319L8.10865 12.7148C7.49271 13.0704 6.9811 13.5817 6.62517 14.1975C6.26924 14.8133 6.08149 15.5118 6.08076 16.223V32.4462C6.08149 33.1574 6.26924 33.856 6.62517 34.4718C6.9811 35.0875 7.49271 35.5989 8.10865 35.9545L22.3039 44.0661C22.9205 44.422 23.6199 44.6094 24.3318 44.6094C25.0438 44.6094 25.7432 44.422 26.3597 44.0661L40.555 35.9545C41.171 35.5989 41.6826 35.0875 42.0385 34.4718C42.3944 33.856 42.5822 33.1574 42.5829 32.4462Z" stroke="#29AE48" stroke-width="1.62232" stroke-linecap="round" stroke-linejoin="round"/>
<path d="M15.2075 8.53735L24.333 13.8099L33.4586 8.53735" stroke="#29AE48" stroke-width="1.62232" stroke-linecap="round" stroke-linejoin="round"/>
<path d="M15.2063 40.1318V29.607L6.08076 24.3345" stroke="#29AE48" stroke-width="1.62232" stroke-linecap="round" stroke-linejoin="round"/>
<path d="M42.5826 24.3345L33.4571 29.607V40.1318" stroke="#29AE48" stroke-width="1.62232" stroke-linecap="round" stroke-linejoin="round"/>
<path d="M6.63042 14.114L24.334 24.3549L42.0375 14.114" stroke="#29AE48" stroke-width="1.62232" stroke-linecap="round" stroke-linejoin="round"/>
<path d="M24.3303 44.7757V24.3345" stroke="#29AE48" stroke-width="1.62232" stroke-linecap="round" stroke-linejoin="round"/>
</svg>
