<svg width="12" height="12" viewBox="0 0 12 12" fill="none" xmlns="http://www.w3.org/2000/svg">
<g clip-path="url(#clip0_2386_7864)">
<path d="M4.3 11.25L3.35 9.65L1.55 9.25L1.725 7.4L0.5 6L1.725 4.6L1.55 2.75L3.35 2.35L4.3 0.75L6 1.475L7.7 0.75L8.65 2.35L10.45 2.75L10.275 4.6L11.5 6L10.275 7.4L10.45 9.25L8.65 9.65L7.7 11.25L6 10.525L4.3 11.25ZM4.725 9.975L6 9.425L7.3 9.975L8 8.775L9.375 8.45L9.25 7.05L10.175 6L9.25 4.925L9.375 3.525L8 3.225L7.275 2.025L6 2.575L4.7 2.025L4 3.225L2.625 3.525L2.75 4.925L1.825 6L2.75 7.05L2.625 8.475L4 8.775L4.725 9.975ZM5.475 7.775L8.3 4.95L7.6 4.225L5.475 6.35L4.4 5.3L3.7 6L5.475 7.775Z" fill="#29AE48"/>
</g>
<defs>
<clipPath id="clip0_2386_7864">
<rect width="12" height="12" fill="white"/>
</clipPath>
</defs>
</svg>
