<svg width="120" height="33" viewBox="0 0 120 33" fill="none" xmlns="http://www.w3.org/2000/svg">
<rect x="0.111633" y="8.59552" width="119.406" height="17.2421" rx="3.46063" stroke="#DF146E" stroke-width="0.223266"/>
<path d="M4.91016 12.415C5.05185 12.4279 5.19497 12.4532 5.34763 12.4532C5.49123 12.4532 5.62195 12.4279 5.78511 12.415V17.098C6.24501 16.3123 6.82513 15.7941 7.67766 15.7941C9.21861 15.7941 9.88651 17.3236 9.88651 18.7277C9.88651 20.4103 8.98866 22.0185 7.41479 22.0185C6.51837 22.0185 6.05895 21.4637 5.86096 21.1192C5.59905 21.3468 5.36862 21.6259 5.11721 21.8778H4.91016V12.415ZM5.76221 19.2973C5.76221 20.6632 6.34281 21.6135 7.29266 21.6135C8.53067 21.6135 8.92377 19.9571 8.92377 18.7787C8.92377 17.4133 8.47533 16.3371 7.4043 16.3242C6.1577 16.3123 5.76221 17.7926 5.76221 19.2973Z" fill="#DF146E"/>
<path d="M13.9121 15.444L12.9823 16.6386C13.8563 17.9176 14.7632 19.1666 15.6406 20.459L16.5241 21.8468V21.9169C16.3065 21.9035 16.1086 21.8759 15.922 21.8759C15.7155 21.8759 15.5084 21.9035 15.3114 21.9169C15.0705 21.4723 14.8286 21.0567 14.5557 20.6527L12.1698 17.1118C12.1164 17.0555 11.9852 17.0145 11.9852 17.0694V21.9164C11.8106 21.9031 11.6584 21.8754 11.5048 21.8754C11.3407 21.8754 11.1766 21.9031 11.0234 21.9164V12.415C11.1761 12.4289 11.3407 12.458 11.5048 12.458C11.6579 12.458 11.8106 12.4289 11.9852 12.415V16.7077C11.9971 16.7898 12.1493 16.7354 12.2586 16.6252C12.4575 16.4306 12.6856 16.1376 12.8382 15.9449L15.5294 12.4146C15.6706 12.4284 15.8118 12.4575 15.9678 12.4575C16.0981 12.4575 16.2393 12.4284 16.3929 12.4146L13.9121 15.444ZM21.1517 20.853C21.1517 21.3468 21.1183 21.6016 21.7643 21.4365V21.7141C21.6865 21.7528 21.5558 21.8148 21.4365 21.8406C20.8674 21.9551 20.3955 21.8544 20.3087 21.1073L20.2114 21.2213C19.7524 21.7528 19.2501 22.0185 18.5908 22.0185C17.817 22.0185 17.139 21.4112 17.139 20.4733C17.139 19.032 18.1314 18.8412 19.1614 18.6518C20.0263 18.4863 20.3192 18.4128 20.3192 17.805C20.3192 16.8699 19.8607 16.3242 19.0402 16.3242C18.243 16.3242 17.817 16.9196 17.7382 17.1982H17.6185V16.4888C18.1433 16.0732 18.7353 15.7941 19.3789 15.7941C20.5286 15.7941 21.1517 16.4888 21.1517 17.9195V20.853ZM20.2758 18.7658L19.8922 18.855C19.1504 19.0182 18.0326 19.1461 18.0326 20.2972C18.0326 21.093 18.4405 21.4866 19.1055 21.4866C19.4004 21.4866 19.7725 21.2471 19.9786 21.0062C20.0583 20.9174 20.2763 20.7008 20.2763 20.6131L20.2758 18.7658ZM23.0991 20.6884C23.3601 21.1841 23.8424 21.6259 24.3538 21.6259C24.891 21.6259 25.4277 21.1436 25.4277 20.4733C25.4277 18.7658 22.8458 19.8798 22.8458 17.6657C22.8458 16.4511 23.6449 15.7941 24.6296 15.7941C25.1978 15.7941 25.6682 15.9826 25.8647 16.1219C25.7564 16.4129 25.6686 16.7163 25.6033 17.0212H25.5045C25.3624 16.6037 24.9797 16.1839 24.5738 16.1839C24.0285 16.1839 23.5795 16.5536 23.5795 17.2359C23.5795 18.855 26.161 17.9939 26.161 20.0191C26.161 21.3726 25.1119 22.0185 24.1477 22.0185C23.7007 22.0185 23.1626 21.8778 22.78 21.6135C22.8687 21.3101 22.967 21.0066 23.0113 20.6884H23.0991ZM27.637 12.415C27.7792 12.4279 27.9199 12.4532 28.0736 12.4532C28.2176 12.4532 28.3479 12.4279 28.511 12.415V17.0212C28.8932 16.2478 29.4962 15.7941 30.2729 15.7941C31.54 15.7941 32.0328 16.6667 32.0328 18.2601V21.9174C31.8672 21.904 31.737 21.8778 31.5958 21.8778C31.4417 21.8778 31.2995 21.9045 31.1569 21.9174V18.5507C31.1569 17.1466 30.873 16.4506 29.9442 16.4506C28.9595 16.4506 28.5115 17.1605 28.5115 18.4734V21.9174C28.3488 21.904 28.2186 21.8778 28.074 21.8778C27.9209 21.8778 27.7797 21.9045 27.6375 21.9174V12.415H27.637Z" fill="#221F1F"/>
<path d="M60.6082 20.7168V13.2151H63.8554C64.527 13.2151 65.1057 13.3258 65.5915 13.5473C66.0774 13.7616 66.4525 14.0724 66.7168 14.4796C66.9812 14.8869 67.1133 15.3727 67.1133 15.9371C67.1133 16.4944 66.9812 16.9766 66.7168 17.3839C66.4525 17.7911 66.0774 18.1055 65.5915 18.327C65.1057 18.5413 64.527 18.6485 63.8554 18.6485H61.5728L62.3444 17.8661V20.7168H60.6082ZM62.3444 18.059L61.5728 17.2338H63.759C64.2948 17.2338 64.6949 17.1195 64.9593 16.8909C65.2236 16.6623 65.3558 16.3444 65.3558 15.9371C65.3558 15.5227 65.2236 15.2012 64.9593 14.9726C64.6949 14.744 64.2948 14.6297 63.759 14.6297H61.5728L62.3444 13.8045V18.059ZM66.9901 20.7168L70.3337 13.2151H72.0484L75.4028 20.7168H73.5809L70.8374 14.0938H71.5233L68.7691 20.7168H66.9901ZM68.6619 19.1093L69.1227 17.7911H72.9808L73.4523 19.1093H68.6619ZM77.5853 20.7168V17.6518L77.9818 18.702L74.681 13.2151H76.5243L79.0535 17.4267H77.9925L80.5324 13.2151H82.2364L78.9356 18.702L79.3214 17.6518V20.7168H77.5853ZM82.9 20.7168V13.2151H84.336L87.5296 18.5091H86.7687L89.9087 13.2151H91.3341L91.3555 20.7168H89.7266L89.7158 15.7121H90.0159L87.5082 19.9238H86.7259L84.1646 15.7121H84.5289V20.7168H82.9ZM94.7321 16.2372H98.3437V17.5875H94.7321V16.2372ZM94.8607 19.3236H98.9438V20.7168H93.1353V13.2151H98.8045V14.6082H94.8607V19.3236ZM100.325 20.7168V13.2151H101.761L106.187 18.6163H105.491V13.2151H107.205V20.7168H105.78L101.343 15.3155H102.04V20.7168H100.325ZM110.534 20.7168V14.6297H108.134V13.2151H114.671V14.6297H112.27V20.7168H110.534Z" fill="#DF146E"/>
<path d="M51.2585 18.2024L37.0324 15.9327L38.9575 24.3497L51.2585 18.2024ZM51.8353 17.5132L40.6497 1.94131L36.9961 15.1859L51.8353 17.5132ZM36.3033 15.005L24.5822 0L39.9317 1.83823L36.3033 15.005ZM30.6167 8.78591L24.1133 2.64163H25.8226L30.6167 8.78591ZM55.3275 9.94807L52.5755 17.4293L48.1122 11.2467L55.3275 9.94807ZM40.6931 24.2466L51.4935 19.9012L51.9513 18.5218L40.6931 24.2466ZM31.6847 32.1503L36.3124 15.8781L38.658 26.4679L31.6847 32.1503ZM55.9871 10.0047L54.8495 13.093L58.9428 13.0222L55.9871 10.0047Z" fill="#DF146E"/>
</svg>
