<?xml version="1.0" encoding="UTF-8"?>
<svg xmlns="http://www.w3.org/2000/svg" id="Layer_1" data-name="Layer 1" viewBox="0 0 24 24" stroke='#000' strokeWidth="1" >
  <path d="m16.856,7.851l-4.415,4.481c-.444.444-1.027.667-1.61.667s-1.163-.221-1.606-.664l-2.422-2.485c-.193-.198-.189-.515.009-.707.198-.192.515-.189.707.009l2.417,2.481c.492.491,1.299.492,1.795-.004l4.412-4.479c.193-.197.51-.2.707-.005.197.193.199.51.005.707Zm7.023,12.188c-.246.594-.798.963-1.442.963h-1.439v1.435c0,.644-.37,1.197-.964,1.442-.199.083-.404.123-.606.123-.402,0-.792-.159-1.095-.463l-4.297-4.305c-.165.138-.334.273-.53.381-.468.259-.993.389-1.518.389s-1.05-.13-1.518-.389c-.191-.106-.355-.238-.517-.372l-4.288,4.296c-.302.304-.692.463-1.095.463-.202,0-.407-.04-.606-.122-.595-.246-.965-.799-.965-1.443v-1.435h-1.439c-.643,0-1.195-.369-1.441-.963-.247-.594-.117-1.246.338-1.701l3.55-3.55c.001-.231.014-.461.065-.687.12-.526-.121-1.087-.6-1.396-.449-.289-.813-.683-1.084-1.171-.255-.461-.388-.991-.385-1.534-.003-.537.13-1.066.385-1.527.271-.489.636-.883,1.084-1.172.479-.309.72-.87.6-1.396-.121-.534-.103-1.082.055-1.63.295-1.028,1.118-1.851,2.147-2.146.548-.157,1.095-.175,1.628-.055.525.121,1.087-.122,1.397-.6.289-.448.683-.812,1.171-1.083.938-.519,2.1-.519,3.037,0,.488.271.882.635,1.171,1.083.309.479.872.72,1.397.6.532-.121,1.08-.103,1.627.055,1.029.295,1.852,1.118,2.147,2.146.158.548.176,1.096.055,1.629-.12.526.121,1.087.6,1.396.449.289.813.683,1.084,1.171h0c.255.46.388.99.386,1.532.002.539-.131,1.068-.386,1.528-.271.489-.636.883-1.084,1.172-.479.309-.72.87-.6,1.396.049.218.06.44.063.662l3.575,3.575c.455.455.584,1.106.338,1.701Zm-14.604-1.533c-.312-.459-.862-.692-1.375-.575-.532.121-1.08.103-1.627-.055-.943-.27-1.691-.993-2.041-1.901l-3.07,3.07c-.246.246-.155.53-.122.611.034.081.17.346.518.346h1.939c.276,0,.5.224.5.5v1.935c0,.348.265.485.347.519.081.033.365.124.611-.123l4.319-4.327Zm4.561-.517c.537-.831,1.525-1.243,2.458-1.033.367.084.748.069,1.131-.04.69-.198,1.264-.771,1.461-1.461.11-.385.124-.766.041-1.132-.212-.935.203-1.922,1.033-2.458.309-.199.562-.474.751-.817.172-.311.262-.671.261-1.043.001-.376-.088-.736-.261-1.047-.19-.342-.443-.617-.751-.816-.831-.536-1.246-1.524-1.033-2.458.083-.367.07-.748-.041-1.132-.198-.69-.771-1.264-1.461-1.461-.383-.11-.763-.125-1.131-.04-.931.209-1.922-.203-2.458-1.033-.199-.309-.474-.562-.816-.751-.627-.349-1.439-.348-2.066,0-.342.189-.617.442-.815.751-.537.831-1.525,1.243-2.458,1.033-.367-.084-.748-.07-1.131.04-.69.198-1.264.771-1.461,1.461-.11.385-.124.766-.041,1.132.212.935-.203,1.922-1.033,2.458-.309.199-.562.474-.751.817-.172.311-.262.671-.26,1.042-.002.377.088.738.26,1.049.19.342.443.617.751.816.831.536,1.246,1.524,1.033,2.458-.083.367-.069.748.041,1.132.198.69.771,1.264,1.461,1.461.383.109.763.125,1.131.04.163-.037.327-.055.491-.055.774,0,1.525.402,1.968,1.087.199.309.474.562.816.751.626.349,1.438.348,2.066,0,.343-.19.617-.443.816-.751Zm8.998,1.056l-3.085-3.085c-.346.916-1.099,1.645-2.048,1.917-.547.157-1.095.175-1.628.055-.512-.118-1.05.112-1.364.562l4.331,4.339c.247.247.53.156.611.123.082-.034.347-.17.347-.519v-1.935c0-.276.224-.5.5-.5h1.939c.348,0,.484-.265.518-.346.034-.081.125-.365-.122-.611Z"/>
</svg>
