<svg xmlns="http://www.w3.org/2000/svg" viewBox="0 0 47.75 48.83">
  <defs>
    <style>
      .cls-1 {
        fill: #fff;
      }

      .cls-2 {
        fill: #d1fadf;
      }
    </style>
  </defs>
  <g id="Layer_2" data-name="Layer 2">
    <g id="Layer_1-2" data-name="Layer 1">
      <g>
        <path class="cls-1" d="M31.13,47.9A43.53,43.53,0,0,1,.92,17.7c-1.61-6,9.29-11,12.34-10.73,3.07,0,3.45,2.83,4.38,6.08s1.94,5.71-.73,7.26c-.65.37-5,2.56-5.8,2.49A35.92,35.92,0,0,0,26,37.72c-.08-.78,2.11-5.16,2.49-5.81,1.54-2.67,4-1.62,7.27-.72s6.1,1.3,6.07,4.37C42.17,38.6,37.17,49.51,31.13,47.9Z"/>
        <path class="cls-2" d="M36.53,21.68A10.46,10.46,0,1,0,26.07,11.22V21.68Z"/>
        <path d="M30.92,48.64h0a6.49,6.49,0,0,0,6-1.72c3.61-3.08,5.95-9,5.74-11.39,0-3.29-2.71-4-5.57-4.78l-2-.56c-2.83-.81-5.52-1.58-7.2,1.34a45.94,45.94,0,0,0-2.33,5A34.83,34.83,0,0,1,12.25,23.29a46.51,46.51,0,0,0,5-2.32c2.92-1.69,2.16-4.35,1.35-7.17-.28-1-.44-1.56-.57-2C17.34,9,16.58,6.21,13.31,6.21h0C10.91,6,5,8.33,1.91,11.94a6.44,6.44,0,0,0-1.72,6A44.42,44.42,0,0,0,30.92,48.64ZM3.07,12.93c2.79-3.26,8.37-5.39,10.11-5.2,2.17.24,2.5,1,3.42,4.43.14.51.29,1.08.57,2.06.84,2.93,1.16,4.38-.64,5.42A36.65,36.65,0,0,1,11.18,22a.77.77,0,0,0-.75,1.12A36.51,36.51,0,0,0,25.67,38.39a.75.75,0,0,0,1.12-.71,33.24,33.24,0,0,1,2.38-5.39c1-1.81,2.51-1.48,5.46-.63l2,.56c2.93.79,4.46,1.29,4.44,3.34v.08c.19,1.74-1.94,7.33-5.2,10.12a5,5,0,0,1-4.56,1.41A42.91,42.91,0,0,1,1.66,17.5C1.26,16,1.74,14.48,3.07,12.93Z"/>
        <path d="M26.07,22.45H36.53A11.23,11.23,0,1,0,25.3,11.22V21.68A.76.76,0,0,0,26.07,22.45Zm.76-11.23a9.7,9.7,0,1,1,9.7,9.7h-9.7Z"/>
        <path d="M32.33,10.09a.77.77,0,0,0-.77.76v.75a.77.77,0,0,0,.77.76.76.76,0,0,0,.76-.76v-.75A.76.76,0,0,0,32.33,10.09Z"/>
        <path d="M37.29,11.6v-.75a.76.76,0,0,0-.76-.76.77.77,0,0,0-.77.76v.75a.77.77,0,0,0,.77.76A.76.76,0,0,0,37.29,11.6Z"/>
        <path d="M40.73,12.36a.76.76,0,0,0,.76-.76v-.75a.76.76,0,0,0-.76-.76.77.77,0,0,0-.77.76v.75A.77.77,0,0,0,40.73,12.36Z"/>
      </g>
    </g>
  </g>
</svg>
