<svg xmlns="http://www.w3.org/2000/svg" viewBox="0 0 48.27 48.83">
  <defs>
    <style>
      .cls-1 {
        fill: #fefdfe;
      }

      .cls-2 {
        fill: #d1fadf;
      }

      .cls-3 {
        fill: #585d69;
      }
    </style>
  </defs>
  <g id="Layer_2" data-name="Layer 2">
    <g id="Layer_1-2" data-name="Layer 1">
      <g>
        <path class="cls-1" d="M23.44,4.59h8.74V11H23.44Z"/>
        <path class="cls-2" d="M47.71,28.36A19.91,19.91,0,1,1,27.81,8.45,19.91,19.91,0,0,1,47.71,28.36Z"/>
        <path class="cls-1" d="M43.67,28.36A15.87,15.87,0,1,1,27.81,12.49,15.87,15.87,0,0,1,43.67,28.36Z"/>
        <path class="cls-1" d="M34,1.26V3.89a.71.71,0,0,1-.7.7H22.35a.7.7,0,0,1-.7-.7V1.26a.7.7,0,0,1,.7-.7H33.27A.7.7,0,0,1,34,1.26Z"/>
        <path d="M27.81,7.89A20.47,20.47,0,1,0,48.27,28.36,20.49,20.49,0,0,0,27.81,7.89Zm0,39.82A19.35,19.35,0,1,1,47.16,28.36,19.37,19.37,0,0,1,27.81,47.71Z"/>
        <path d="M27.81,11.93A16.43,16.43,0,1,0,44.23,28.36,16.45,16.45,0,0,0,27.81,11.93Zm0,31.74A15.31,15.31,0,1,1,43.12,28.36,15.33,15.33,0,0,1,27.81,43.67Z"/>
        <path d="M27.81,17.8a.56.56,0,0,0,.56-.56V14.92a.56.56,0,0,0-1.12,0v2.32A.56.56,0,0,0,27.81,17.8Z"/>
        <path class="cls-3" d="M27.81,38.92a.56.56,0,0,0-.56.56V41.8a.56.56,0,0,0,1.12,0V39.48A.56.56,0,0,0,27.81,38.92Z"/>
        <path d="M41.25,27.8H38.92a.56.56,0,0,0,0,1.12h2.33a.56.56,0,1,0,0-1.12Z"/>
        <path d="M16.69,27.8H14.37a.56.56,0,0,0,0,1.12h2.32a.56.56,0,1,0,0-1.12Z"/>
        <path d="M31.73,27.8H28.37V20.93a.56.56,0,0,0-.56-.56.57.57,0,0,0-.56.56v7.43a.56.56,0,0,0,.56.56h3.92a.56.56,0,0,0,0-1.12Z"/>
        <path d="M22.35,5.15h.53v2a.56.56,0,0,0,1.12,0v-2h7.62v2a.56.56,0,0,0,.56.55.56.56,0,0,0,.56-.55v-2h.53a1.27,1.27,0,0,0,1.26-1.26V1.26A1.27,1.27,0,0,0,33.27,0H22.35a1.27,1.27,0,0,0-1.26,1.26V3.89A1.27,1.27,0,0,0,22.35,5.15Zm-.14-3.89a.14.14,0,0,1,.14-.14H33.27a.14.14,0,0,1,.14.14V3.89a.15.15,0,0,1-.14.14H22.35a.14.14,0,0,1-.14-.14Z"/>
        <path d="M10.13,7.13a.56.56,0,0,0-.56-.56h-9a.56.56,0,0,0,0,1.12h9A.56.56,0,0,0,10.13,7.13Z"/>
        <path d="M6.85,2.88H11.6a.56.56,0,0,0,0-1.12H6.85a.56.56,0,1,0,0,1.12Z"/>
        <path d="M11.92,11.94a.56.56,0,0,0-.56-.56H6a.56.56,0,1,0,0,1.11h5.41A.56.56,0,0,0,11.92,11.94Z"/>
      </g>
    </g>
  </g>
</svg>
