<svg width="24" height="24" viewBox="0 0 24 24" fill="none" xmlns="http://www.w3.org/2000/svg">
<path d="M15.0001 8L12.0001 5L15.0001 2L18.0001 5L15.0001 8ZM20.0001 11L18.0001 9L20.0001 7L22.0001 9L20.0001 11ZM12.0751 22C10.6751 22 9.3626 21.7333 8.1376 21.2C6.9126 20.6667 5.84593 19.9458 4.9376 19.0375C4.02926 18.1292 3.30843 17.0625 2.7751 15.8375C2.24176 14.6125 1.9751 13.3 1.9751 11.9C1.9751 9.46667 2.7501 7.32083 4.3001 5.4625C5.8501 3.60417 7.8251 2.45 10.2251 2C9.9251 3.65 10.0168 5.2625 10.5001 6.8375C10.9834 8.4125 11.8168 9.79167 13.0001 10.975C14.1834 12.1583 15.5626 12.9917 17.1376 13.475C18.7126 13.9583 20.3251 14.05 21.9751 13.75C21.5418 16.15 20.3918 18.125 18.5251 19.675C16.6584 21.225 14.5084 22 12.0751 22Z" fill="#8A8A8A"/>
</svg>
