<svg width="22" height="22" viewBox="0 0 22 22" fill="none" xmlns="http://www.w3.org/2000/svg">
<rect width="22" height="22" rx="3" fill="white"/>
<path d="M3 18.9999C2.45 18.9999 1.97917 18.8041 1.5875 18.4124C1.19583 18.0208 1 17.5499 1 16.9999V4.99994C1 4.44994 1.19583 3.97911 1.5875 3.58744C1.97917 3.19577 2.45 2.99994 3 2.99994H19C19.55 2.99994 20.0208 3.19577 20.4125 3.58744C20.8042 3.97911 21 4.44994 21 4.99994V16.9999C21 17.5499 20.8042 18.0208 20.4125 18.4124C20.0208 18.8041 19.55 18.9999 19 18.9999H3ZM11 11.9999L19 6.99994V4.99994L11 9.99994L3 4.99994V6.99994L11 11.9999Z" fill="#8A8A8A"/>
</svg>
