<svg width="15" height="15" viewBox="0 0 15 15" fill="none" xmlns="http://www.w3.org/2000/svg">
<g clip-path="url(#clip0_40001944_238)">
<path d="M3.5259 13.5177H1.7628C1.43957 13.5177 1.16286 13.4027 0.932675 13.1725C0.702493 12.9423 0.587402 12.6656 0.587402 12.3424V10.5793H1.7628V12.3424H3.5259V13.5177ZM10.5783 13.5177V12.3424H12.3414V10.5793H13.5168V12.3424C13.5168 12.6656 13.4017 12.9423 13.1715 13.1725C12.9413 13.4027 12.6646 13.5177 12.3414 13.5177H10.5783ZM7.05209 10.8731C5.87669 10.8731 4.81149 10.5254 3.85648 9.82994C2.90147 9.1345 2.20357 8.20887 1.7628 7.05306C2.20357 5.89726 2.90147 4.97163 3.85648 4.27619C4.81149 3.58074 5.87669 3.23302 7.05209 3.23302C8.22748 3.23302 9.29269 3.58074 10.2477 4.27619C11.2027 4.97163 11.9006 5.89726 12.3414 7.05306C11.9006 8.20887 11.2027 9.1345 10.2477 9.82994C9.29269 10.5254 8.22748 10.8731 7.05209 10.8731ZM7.05209 9.69771C7.91404 9.69771 8.70254 9.46263 9.41757 8.99247C10.1326 8.52231 10.6811 7.87584 11.0631 7.05306C10.6811 6.23029 10.1326 5.58382 9.41757 5.11366C8.70254 4.6435 7.91404 4.40842 7.05209 4.40842C6.19013 4.40842 5.40163 4.6435 4.6866 5.11366C3.97157 5.58382 3.42305 6.23029 3.04104 7.05306C3.42305 7.87584 3.97157 8.52231 4.6866 8.99247C5.40163 9.46263 6.19013 9.69771 7.05209 9.69771ZM7.05209 9.11001C7.62019 9.11001 8.10505 8.90921 8.50664 8.50762C8.90823 8.10602 9.10903 7.62117 9.10903 7.05306C9.10903 6.48495 8.90823 6.0001 8.50664 5.59851C8.10505 5.19692 7.62019 4.99612 7.05209 4.99612C6.48398 4.99612 5.99913 5.19692 5.59753 5.59851C5.19594 6.0001 4.99514 6.48495 4.99514 7.05306C4.99514 7.62117 5.19594 8.10602 5.59753 8.50762C5.99913 8.90921 6.48398 9.11001 7.05209 9.11001ZM7.05209 7.93461C6.80721 7.93461 6.59907 7.8489 6.42766 7.67749C6.25624 7.50608 6.17054 7.29794 6.17054 7.05306C6.17054 6.80819 6.25624 6.60005 6.42766 6.42863C6.59907 6.25722 6.80721 6.17151 7.05209 6.17151C7.29696 6.17151 7.5051 6.25722 7.67652 6.42863C7.84793 6.60005 7.93363 6.80819 7.93363 7.05306C7.93363 7.29794 7.84793 7.50608 7.67652 7.67749C7.5051 7.8489 7.29696 7.93461 7.05209 7.93461ZM0.587402 3.52687V1.76378C0.587402 1.44054 0.702493 1.16383 0.932675 0.933652C1.16286 0.70347 1.43957 0.588379 1.7628 0.588379H3.5259V1.76378H1.7628V3.52687H0.587402ZM12.3414 3.52687V1.76378H10.5783V0.588379H12.3414C12.6646 0.588379 12.9413 0.70347 13.1715 0.933652C13.4017 1.16383 13.5168 1.44054 13.5168 1.76378V3.52687H12.3414Z" fill="#29AE48"/>
</g>
<defs>
<clipPath id="clip0_40001944_238">
<rect width="14.1048" height="14.1048" fill="white"/>
</clipPath>
</defs>
</svg>
