<svg width="14" height="14" viewBox="0 0 14 14" fill="none" xmlns="http://www.w3.org/2000/svg">
<path d="M6.99967 9.33325C7.72884 9.33325 8.34863 9.07804 8.85905 8.56763C9.36947 8.05721 9.62467 7.43742 9.62467 6.70825C9.62467 5.97909 9.36947 5.35929 8.85905 4.84888C8.34863 4.33846 7.72884 4.08325 6.99967 4.08325C6.27051 4.08325 5.65072 4.33846 5.1403 4.84888C4.62988 5.35929 4.37467 5.97909 4.37467 6.70825C4.37467 7.43742 4.62988 8.05721 5.1403 8.56763C5.65072 9.07804 6.27051 9.33325 6.99967 9.33325ZM6.99967 8.28325C6.56217 8.28325 6.1903 8.13013 5.88405 7.82388C5.5778 7.51763 5.42467 7.14575 5.42467 6.70825C5.42467 6.27075 5.5778 5.89888 5.88405 5.59263C6.1903 5.28638 6.56217 5.13325 6.99967 5.13325C7.43717 5.13325 7.80905 5.28638 8.1153 5.59263C8.42155 5.89888 8.57467 6.27075 8.57467 6.70825C8.57467 7.14575 8.42155 7.51763 8.1153 7.82388C7.80905 8.13013 7.43717 8.28325 6.99967 8.28325ZM6.99967 11.0833C5.58023 11.0833 4.28717 10.6871 3.12051 9.89471C1.95384 9.10235 1.10801 8.0402 0.583008 6.70825C1.10801 5.37631 1.95384 4.31415 3.12051 3.52179C4.28717 2.72943 5.58023 2.33325 6.99967 2.33325C8.41912 2.33325 9.71217 2.72943 10.8788 3.52179C12.0455 4.31415 12.8913 5.37631 13.4163 6.70825C12.8913 8.0402 12.0455 9.10235 10.8788 9.89471C9.71217 10.6871 8.41912 11.0833 6.99967 11.0833ZM6.99967 9.91659C8.09829 9.91659 9.10697 9.62735 10.0257 9.04888C10.9445 8.4704 11.6469 7.6902 12.133 6.70825C11.6469 5.72631 10.9445 4.9461 10.0257 4.36763C9.10697 3.78915 8.09829 3.49992 6.99967 3.49992C5.90106 3.49992 4.89238 3.78915 3.97363 4.36763C3.05488 4.9461 2.35245 5.72631 1.86634 6.70825C2.35245 7.6902 3.05488 8.4704 3.97363 9.04888C4.89238 9.62735 5.90106 9.91659 6.99967 9.91659Z" fill="white"/>
</svg>
