<svg width="18" height="18" viewBox="0 0 18 18" fill="none" xmlns="http://www.w3.org/2000/svg">
<g clip-path="url(#clip0_1114_7076)">
<path d="M7.5 17.9C3.25 17.15 0 13.45 0 9C0 4.05 4.05 0 9 0C13.95 0 18 4.05 18 9C18 13.45 14.75 17.15 10.5 17.9L10 17.5H8L7.5 17.9Z" fill="url(#paint0_linear_1114_7076)"/>
<path d="M12.5 11.5L12.9 9H10.5V7.25C10.5 6.55 10.75 6 11.85 6H13V3.7C12.35 3.6 11.65 3.5 11 3.5C8.95 3.5 7.5 4.75 7.5 7V9H5.25V11.5H7.5V17.85C8 17.95 8.5 18 9 18C9.5 18 10 17.95 10.5 17.85V11.5H12.5Z" fill="white"/>
</g>
<defs>
<linearGradient id="paint0_linear_1114_7076" x1="900" y1="1737.7" x2="900" y2="0" gradientUnits="userSpaceOnUse">
<stop stop-color="#0062E0"/>
<stop offset="1" stop-color="#19AFFF"/>
</linearGradient>
<clipPath id="clip0_1114_7076">
<rect width="18" height="18" fill="white"/>
</clipPath>
</defs>
</svg>
