<svg width="24" height="24" viewBox="0 0 24 24" fill="none" xmlns="http://www.w3.org/2000/svg">
<g clip-path="url(#clip0_40001088_872)">
<path d="M10 23.8667C4.33333 22.8667 0 17.9333 0 12C0 5.4 5.4 0 12 0C18.6 0 24 5.4 24 12C24 17.9333 19.6667 22.8667 14 23.8667L13.3333 23.3333H10.6667L10 23.8667Z" fill="#63A7FF"/>
<path d="M16.6667 15.3334L17.2 12H14V9.66669C14 8.73335 14.3333 8.00002 15.8 8.00002H17.3333V4.93335C16.4667 4.80002 15.5333 4.66669 14.6667 4.66669C11.9333 4.66669 10 6.33335 10 9.33335V12H7V15.3334H10V23.8C10.6667 23.9334 11.3333 24 12 24C12.6667 24 13.3333 23.9334 14 23.8V15.3334H16.6667Z" fill="white"/>
</g>
<defs>
<clipPath id="clip0_40001088_872">
<rect width="24" height="24" fill="white"/>
</clipPath>
</defs>
</svg>
