<svg width="15" height="15" viewBox="0 0 15 15" fill="none" xmlns="http://www.w3.org/2000/svg">
<path d="M5.11336 7.59614L5.92145 8.13976L7.05277 7.56676L8.18409 8.13976L8.96279 7.62553L8.37509 6.46482H5.67167L5.11336 7.59614ZM3.07111 11.7541H11.0197L9.49172 8.68339L8.27224 9.49147L7.05277 8.88908L5.83329 9.49147L4.58443 8.66869L3.07111 11.7541ZM1.17578 12.9295L4.61382 5.95059C4.71177 5.75469 4.85624 5.59552 5.04725 5.47308C5.23825 5.35065 5.44639 5.28943 5.67167 5.28943H6.46507V1.17554H10.579L9.99126 2.35093L10.579 3.52633H7.64046V5.28943H8.37509C8.60037 5.28943 8.80607 5.3482 8.99217 5.46574C9.17828 5.58328 9.3252 5.74 9.43295 5.93589L12.9298 12.9295H1.17578Z" fill="#29AE48"/>
</svg>
