<svg width="24" height="24" viewBox="0 0 24 24" fill="none" xmlns="http://www.w3.org/2000/svg">
<g clip-path="url(#clip0_40000250_23579)">
<path d="M14.8477 23.9683H10.5579L7.87333 17.6716L5.67285 14.8894L6.21283 11.2772L7.54158 8.57852L9.36855 5.09045L11.1949 3.67876L16.3853 3.38818L18.0875 3.59582L19.7069 3.72052L20.2051 6.0457L20.9527 13.6783L19.4992 18.9168L18.0464 22.1137L16.1359 23.5672L14.8477 23.9683Z" fill="white"/>
<path d="M0 21.0921V2.90535C0.235283 2.40479 0.426449 1.87246 0.723493 1.41072C1.22876 0.625463 2.0499 0.271951 2.90633 -0.000976562H21.0948C21.2084 0.0431389 21.3201 0.0949011 21.4366 0.13137C23.0324 0.63311 23.9953 1.91599 23.9971 3.59179C24.0029 9.19936 24.0029 14.8081 23.9971 20.418C23.9935 22.4767 22.4677 23.9831 20.4055 23.9943C18.6714 24.0031 16.9351 23.9943 15.2028 23.9943C15.0851 23.9943 14.964 23.9755 14.8499 23.9661V15.49H18.3691C18.6044 14.0966 18.8285 12.7372 19.0661 11.3138H14.8428V8.43155H19.0238V4.23176C17.5533 4.23176 16.1169 4.19411 14.684 4.24235C13.3711 4.28705 12.2847 4.84938 11.47 5.90462C10.8412 6.7187 10.6107 7.65688 10.596 8.66095C10.5836 9.53032 10.596 10.4009 10.596 11.3296H7.80844V15.5059H10.5624V23.9849C8.07784 23.9849 5.62678 24.0008 3.17573 23.9743C2.50929 23.9673 1.9152 23.6679 1.37523 23.2649C0.633499 22.7114 0.27234 21.9321 0 21.0921Z" fill="#29AE48"/>
</g>
<defs>
<clipPath id="clip0_40000250_23579">
<rect width="24" height="24" fill="white"/>
</clipPath>
</defs>
</svg>
