<svg width="24" height="24" viewBox="0 0 24 24" fill="none" xmlns="http://www.w3.org/2000/svg">
<path d="M0 18.5641V5.43845C0.0403487 5.34148 0.0738464 5.24178 0.100234 5.14012C0.660196 2.18597 3.26895 0.0110581 6.27533 0.00447028C10.1025 -0.00149009 13.9297 -0.00149009 17.7569 0.00447028C21.1642 0.0119992 23.9875 2.83581 23.9951 6.2431C24.0035 10.0703 24.0035 13.8975 23.9951 17.7247C23.9908 20.5951 22.0018 23.1205 19.2208 23.8118C18.9992 23.8673 18.7808 23.9369 18.562 24H5.43586C5.37178 23.9612 5.3036 23.9297 5.23258 23.9059C2.57645 23.3393 0.888099 21.747 0.167521 19.1288C0.118583 18.9406 0.0564667 18.7524 0 18.5641ZM11.9992 19.7099V19.7833C13.1859 19.7833 14.3727 19.8017 15.5589 19.7791C17.8839 19.7321 19.7125 17.9877 19.7633 15.6763C19.817 13.2266 19.817 10.7758 19.7633 8.3239C19.713 6.04782 17.9235 4.27712 15.6498 4.23336C13.2151 4.18787 10.7798 4.18787 8.3439 4.23336C6.07253 4.27618 4.27829 6.05817 4.23171 8.32719C4.18183 10.7769 4.18183 13.2277 4.23171 15.6796C4.27076 17.744 5.75913 19.4676 7.79382 19.6822C9.18149 19.8271 10.5969 19.7085 12.0001 19.7085L11.9992 19.7099Z" fill="#29AE48"/>
<path d="M11.9998 19.7084C10.5966 19.7084 9.18116 19.827 7.79396 19.6802C5.75928 19.4656 4.27091 17.742 4.23185 15.6776C4.18574 13.2273 4.18574 10.7765 4.23185 8.3252C4.27891 6.05712 6.07267 4.27512 8.34405 4.23136C10.7787 4.18525 13.214 4.18525 15.6499 4.23136C17.9236 4.27418 19.7131 6.04582 19.7635 8.3219C19.8171 10.7716 19.8171 13.2224 19.7635 15.6743C19.7127 17.9857 17.8841 19.7324 15.5591 19.7771C14.3728 19.7997 13.1861 19.7813 11.9993 19.7813L11.9998 19.7084ZM18.3716 12.0167C18.3716 10.83 18.3758 9.64369 18.3716 8.45742C18.3645 6.86083 17.1481 5.63409 15.5643 5.62938C13.1914 5.62279 10.8184 5.62279 8.44521 5.62938C6.85285 5.63362 5.63223 6.85283 5.62847 8.44707C5.62282 10.8202 5.62282 13.1933 5.62847 15.5661C5.63223 17.1317 6.85473 18.3664 8.41086 18.3716C10.7994 18.3794 13.1879 18.3794 15.5765 18.3716C17.1368 18.3669 18.3612 17.1378 18.3706 15.5765C18.3758 14.3897 18.3716 13.203 18.3716 12.0167Z" fill="white"/>
<path d="M18.3721 12.017C18.3721 13.2033 18.3778 14.39 18.3721 15.5763C18.3627 17.1376 17.1383 18.3667 15.578 18.3714C13.1894 18.3789 10.8009 18.3789 8.41233 18.3714C6.8562 18.3662 5.63606 17.1315 5.62994 15.566C5.62335 13.1928 5.62335 10.8198 5.62994 8.44692C5.63371 6.85409 6.85338 5.63347 8.44668 5.62924C10.8195 5.62359 13.1926 5.62359 15.5657 5.62924C17.1515 5.63347 18.366 6.86068 18.3731 8.45727C18.3764 9.64402 18.3721 10.8303 18.3721 12.017ZM15.4909 12.0024C15.4909 10.0426 13.9522 8.50621 11.9904 8.50998C10.0518 8.51327 8.51821 10.0388 8.50833 11.9742C8.4975 13.936 10.0306 15.486 11.9862 15.4916C13.9418 15.4973 15.49 13.9618 15.4909 12.0024ZM16.0513 8.64503C16.4433 8.63514 16.7101 8.35564 16.7059 7.95943C16.7016 7.56322 16.4283 7.295 16.032 7.29406C15.6189 7.29406 15.338 7.58628 15.3544 7.9999C15.3695 8.39234 15.6542 8.65491 16.0513 8.64503Z" fill="#29AE48"/>
<path d="M15.4904 12.0022C15.4904 13.9616 13.947 15.4966 11.9848 15.4914C10.0226 15.4862 8.49607 13.9358 8.50689 11.974C8.51772 10.0386 10.0513 8.51307 11.989 8.50977C13.9526 8.50601 15.4914 10.0424 15.4904 12.0022ZM14.123 12.0055C14.1277 10.8574 13.1555 9.88145 12.0055 9.87721C10.8554 9.87298 9.88091 10.8428 9.87574 11.9947C9.87056 13.1466 10.8451 14.1202 11.9932 14.1235C13.1414 14.1268 14.1187 13.1527 14.123 12.0055Z" fill="white"/>
<path d="M14.1232 12.0058C14.119 13.1544 13.1407 14.1275 11.9935 14.1233C10.8463 14.119 9.86942 13.1407 9.87601 11.9945C9.8826 10.8482 10.8562 9.87273 12.0057 9.87697C13.1553 9.8812 14.128 10.8576 14.1232 12.0058Z" fill="#29AE48"/>
<circle cx="16.0002" cy="8.00022" r="0.800023" fill="white"/>
</svg>
