<svg width="24" height="24" viewBox="0 0 24 24" fill="none" xmlns="http://www.w3.org/2000/svg">
<path d="M24.0035 2.61877V21.3724C23.9445 21.5105 23.878 21.6454 23.8284 21.7866C23.5278 22.6545 22.9498 23.2802 22.1378 23.6862C21.8937 23.808 21.632 23.8946 21.3778 24H2.62476C2.59087 23.9718 2.56201 23.9285 2.52185 23.9165C0.811773 23.3743 0.000976562 22.2736 0.000976562 20.4864C0.000976562 14.8171 0.000976562 9.14821 0.000976562 3.47977C0.000976562 1.35865 1.36025 0 3.48199 0C9.04208 0 14.6022 0 20.1623 0C22.3229 0 23.1808 0.586761 23.9646 2.59868C23.969 2.60559 23.9903 2.61124 24.0035 2.61877ZM12.7641 10.6909C12.7641 10.4324 12.7641 10.3081 12.7641 10.1839C12.7591 9.5375 12.68 9.45843 12.0317 9.45717C11.4381 9.45717 10.8438 9.46972 10.2507 9.45278C9.81146 9.44022 9.62319 9.62033 9.62759 10.0609C9.63449 12.9984 9.62759 15.936 9.63261 18.8735C9.63261 19.3681 9.77192 19.4929 10.289 19.4973C10.8827 19.5024 11.4763 19.5024 12.07 19.4973C12.6235 19.4936 12.7603 19.3586 12.7603 18.807C12.7603 17.3222 12.717 15.8362 12.7835 14.3514C12.8086 13.7866 13.0076 13.1892 13.268 12.6784C13.5535 12.118 14.1409 11.9485 14.7603 12.0176C15.3935 12.0885 15.8466 12.4299 16.0204 13.0461C16.1359 13.4502 16.1992 13.8673 16.2087 14.2874C16.23 15.8029 16.215 17.3185 16.2175 18.834C16.2175 19.3273 16.3675 19.4835 16.8507 19.4885C17.5222 19.4961 18.1943 19.4885 18.8657 19.4885C19.2423 19.4885 19.4431 19.3103 19.4368 18.9143C19.4287 18.3991 19.4437 17.8833 19.433 17.3674C19.4004 15.7446 19.4293 14.1167 19.3075 12.5008C19.1776 10.8133 18.2671 9.72012 16.8249 9.42579C15.3132 9.1183 13.8905 9.25448 12.7641 10.6909ZM5.03267 14.4324C5.03267 15.9002 5.02891 17.3681 5.03267 18.8353C5.03267 19.3317 5.1883 19.4892 5.669 19.4961C6.29655 19.5055 6.91846 19.4998 7.54287 19.4961C7.96082 19.4961 8.17042 19.2965 8.17042 18.8623C8.1654 15.9274 8.1654 12.9922 8.17042 10.0565C8.17042 9.65108 7.98654 9.45089 7.5755 9.45403C6.96678 9.45905 6.35743 9.45403 5.7487 9.45403C5.15379 9.45403 5.03769 9.56762 5.03581 10.1663C5.02953 11.5908 5.03204 13.0091 5.03267 14.4324ZM4.57707 6.52903C4.5733 7.6856 5.4663 8.57296 6.62539 8.5648C7.15469 8.5622 7.6618 8.35177 8.03742 7.97884C8.41305 7.60591 8.62713 7.10035 8.63355 6.57107C8.64359 5.43521 7.72172 4.49577 6.5984 4.50016C6.06136 4.50133 5.54676 4.71569 5.16773 5.09614C4.78869 5.47659 4.57624 5.99199 4.57707 6.52903Z" fill="#29AE48"/>
<path d="M12.7642 10.691C13.8938 9.25457 15.3133 9.11525 16.8194 9.42651C18.2628 9.72397 19.1721 10.8172 19.302 12.5015C19.4275 14.1174 19.398 15.7453 19.4275 17.3681C19.4382 17.884 19.4231 18.3998 19.4313 18.9151C19.4376 19.311 19.2399 19.4886 18.8602 19.4893C18.1887 19.4893 17.5166 19.4955 16.8452 19.4893C16.362 19.4842 16.2132 19.328 16.212 18.8347C16.212 17.3192 16.2245 15.8037 16.2032 14.2881C16.1937 13.868 16.1304 13.4509 16.0149 13.0468C15.8411 12.4306 15.3874 12.0892 14.7548 12.0183C14.1354 11.9493 13.548 12.1187 13.2625 12.6791C13.0021 13.1899 12.8031 13.7855 12.778 14.3521C12.7115 15.8338 12.7573 17.3198 12.7548 18.8077C12.7548 19.3606 12.6186 19.4981 12.0645 19.4981C11.4708 19.5018 10.8772 19.5018 10.2835 19.4981C9.76641 19.4937 9.62772 19.3688 9.62709 18.8743C9.62333 15.9367 9.62709 12.9992 9.62207 10.0616C9.62207 9.62231 9.81034 9.44094 10.2452 9.45349C10.8383 9.47044 11.4326 9.45664 12.0262 9.45789C12.6745 9.45789 12.7535 9.53821 12.7586 10.1846C12.7648 10.3107 12.7642 10.4325 12.7642 10.691Z" fill="white"/>
<path d="M5.03251 14.4321C5.03251 13.0114 5.02937 11.5906 5.03251 10.1698C5.03251 9.57114 5.15049 9.45944 5.7454 9.45756C6.35413 9.45756 6.96348 9.45756 7.5722 9.45756C7.98324 9.45442 8.16774 9.6546 8.16711 10.06C8.1646 12.9948 8.1646 15.9301 8.16711 18.8658C8.16711 19.3 7.96065 19.4977 7.53956 19.4996C6.91202 19.4996 6.29011 19.5071 5.6657 19.4996C5.185 19.4927 5.03125 19.3352 5.02937 18.8388C5.02874 17.3678 5.03251 15.9 5.03251 14.4321Z" fill="white"/>
<path d="M4.57716 6.52894C4.57566 5.99189 4.78748 5.47624 5.16604 5.09532C5.54461 4.71439 6.05895 4.49939 6.59599 4.49756C7.7193 4.49756 8.64117 5.43512 8.63113 6.56847C8.62472 7.09774 8.41063 7.60332 8.035 7.97624C7.65937 8.34917 7.15228 8.5596 6.62297 8.5622C5.4664 8.57287 4.5734 7.68551 4.57716 6.52894Z" fill="white"/>
</svg>
