<svg width="40" height="41" viewBox="0 0 40 41" fill="none" xmlns="http://www.w3.org/2000/svg"><path d="M34.04 17.8039V32.7997H6.91699V17.8039C6.91699 16.1955 8.22082 14.8916 9.82926 14.8916H31.1278C32.7361 14.8916 34.04 16.1954 34.04 17.8039Z" fill="white"></path><path d="M34.0393 32.7997H6.91633L0.917969 37.3202H39.0814L34.0393 32.7997Z" fill="#E9DECE"></path><path d="M32.7709 8.97626C33.8431 6.3897 32.6154 3.42374 30.0288 2.35161C27.4423 1.27947 24.4763 2.50716 23.4042 5.09372C22.332 7.68028 23.5597 10.6462 26.1463 11.7184C28.7328 12.7905 31.6988 11.5628 32.7709 8.97626Z" fill="#E9DECE"></path><path d="M0.917969 37.3202L2.08227 39.3577C2.22242 39.6029 2.4832 39.7543 2.7657 39.7543H37.646C37.9772 39.7543 38.2729 39.5471 38.3859 39.2358L39.0814 37.3202H0.917969Z" fill="white"></path><path d="M17.1533 37.3202L18.0227 35.7083C18.1298 35.5097 18.3372 35.386 18.5628 35.386H22.5019C22.7393 35.386 22.9555 35.523 23.0568 35.7377L23.8036 37.3202H17.1533Z" fill="white"></path><path d="M28.0775 21.1334C28.0775 21.9295 27.4321 22.5749 26.636 22.5749H14.3204C13.5243 22.5749 12.8789 21.9295 12.8789 21.1334C12.8789 20.3373 13.5243 19.6919 14.3204 19.6919H26.636C27.4321 19.6919 28.0775 20.3373 28.0775 21.1334Z" fill="white"></path><path d="M17.684 22.5761C17.3948 22.3882 17.1205 22.1676 16.8671 21.9142C16.2261 21.2732 15.7908 20.5039 15.5642 19.6929C15.0752 17.9697 15.5105 16.0406 16.8671 14.687C18.8617 12.6924 22.0967 12.6924 24.0913 14.687C25.4449 16.0406 25.8802 17.9697 25.3942 19.6929C25.1676 20.5039 24.7323 21.2732 24.0913 21.9142C23.8379 22.1676 23.5636 22.3882 23.2743 22.5761H17.684Z" fill="#E9DECE"></path><path d="M39.3802 36.987L34.4873 32.6V17.8048C34.4873 15.9521 32.9799 14.4448 31.1273 14.4448H26.473C26.2262 14.4448 26.0258 14.6451 26.0258 14.892C26.0258 15.1389 26.2261 15.3393 26.473 15.3393H31.1273C32.4867 15.3393 33.5928 16.4454 33.5928 17.8049V32.3517H7.36446V17.8048C7.36446 16.4453 8.47055 15.3392 9.83032 15.3392H14.4843C14.7312 15.3392 14.9316 15.1389 14.9316 14.892C14.9316 14.6451 14.7313 14.4447 14.4843 14.4447H9.83032C7.97735 14.4447 6.47 15.952 6.47 17.8047V32.5762L0.649301 36.9628C0.475239 37.0943 0.420942 37.3507 0.529926 37.542L1.6943 39.5795C1.91352 39.963 2.32407 40.2015 2.7661 40.2015H37.6463C38.1638 40.2015 38.6298 39.8748 38.8066 39.3883C38.8216 39.3472 39.5486 37.345 39.5023 37.4727C39.564 37.3026 39.5074 37.1009 39.3802 36.987ZM7.06657 33.2467H33.8684L37.913 36.8728H24.087L23.4611 35.5466C23.2867 35.1774 22.9102 34.9386 22.5017 34.9386H18.5626C18.1721 34.9386 17.8143 35.152 17.6288 35.4959L16.8862 36.8728H2.25477L7.06657 33.2467ZM23.098 36.8728H17.9025L18.4161 35.9204C18.4452 35.8666 18.5014 35.8331 18.5626 35.8331H22.5017C22.5658 35.8331 22.6248 35.8706 22.6523 35.9285L23.098 36.8728ZM37.9657 39.0831C37.9171 39.217 37.7887 39.307 37.6463 39.307H2.7661C2.64438 39.307 2.53141 39.2414 2.47118 39.1358L1.68915 37.7674H38.4436L37.9657 39.0831Z" fill="#585D69"></path><path d="M24.4068 14.3706C22.2406 12.2043 18.7161 12.2046 16.5504 14.3703C15.265 15.653 14.7004 17.4778 15.0063 19.245H14.32C13.2761 19.245 12.4326 20.0871 12.4326 21.1323C12.4326 22.1746 13.2793 23.0225 14.32 23.0225C21.6079 23.023 23.4853 23.0225 26.6368 23.0225C27.6774 23.0225 28.5238 22.1746 28.5238 21.1323C28.5238 20.0917 27.6774 19.245 26.6368 19.245H25.9495C26.2534 17.477 25.6892 15.6529 24.4068 14.3706ZM17.1825 15.003C18.9999 13.1858 21.957 13.1861 23.7744 15.003C24.9661 16.1947 25.4218 17.9452 24.9629 19.5725C24.6799 20.585 24.0379 21.5067 23.1384 22.1281H17.8185C16.9379 21.5198 16.2836 20.6078 15.9936 19.5708C15.5325 17.9452 15.9879 16.195 17.1825 15.003ZM13.3271 21.1322C13.3271 20.5754 13.775 20.1393 14.32 20.1393H15.2354C15.4927 20.8766 15.9101 21.5557 16.4543 22.128H14.3201C13.7727 22.128 13.3271 21.6814 13.3271 21.1322ZM27.6294 21.1322C27.6294 21.6814 27.1843 22.128 26.6368 22.128H24.5026C25.047 21.5553 25.4645 20.8761 25.7214 20.1393H26.6368C27.1843 20.1394 27.6294 20.5849 27.6294 21.1322Z" fill="#585D69"></path><path d="M18.2393 16.6947C17.6994 17.3177 17.7187 18.2609 18.3106 18.8534C18.9305 19.4727 19.938 19.4723 20.5566 18.8534L21.0313 18.3787C21.3023 18.1077 21.7423 18.1083 22.0127 18.3787C22.2832 18.6492 22.283 19.0894 22.0127 19.36L21.5617 19.8107C21.2997 20.0727 20.8426 20.0727 20.5805 19.8107C20.4063 19.636 20.1227 19.636 19.948 19.8107C19.7734 19.9851 19.7734 20.2684 19.948 20.4431C20.248 20.7433 20.6469 20.9084 21.0711 20.9084C21.4458 20.9084 21.7965 20.7732 22.0809 20.5363L22.3609 20.8164C22.4483 20.9037 22.5627 20.9474 22.6771 20.9474C23.0712 20.9474 23.2765 20.4672 22.9933 20.184L22.7154 19.9062C23.2563 19.2827 23.2373 18.3386 22.645 17.7464C22.0263 17.1274 21.018 17.1268 20.3987 17.7464L19.9241 18.221C19.6533 18.4912 19.2136 18.4912 18.9428 18.221C18.6726 17.9505 18.6723 17.5103 18.9428 17.2398L19.3938 16.7887C19.6646 16.5185 20.1043 16.5185 20.3751 16.7887C20.5498 16.9634 20.8328 16.9634 21.0075 16.7887C21.1822 16.6141 21.1822 16.331 21.0075 16.1563C20.4234 15.5716 19.497 15.5459 18.8738 16.0645L18.5935 15.7842C18.4188 15.6095 18.1358 15.6095 17.9611 15.7842C17.7864 15.9589 17.7864 16.2419 17.9611 16.4166L18.2393 16.6947Z" fill="#585D69"></path><path d="M33.5931 7.03648C33.5931 3.99499 31.1188 1.52039 28.0773 1.52039C25.0358 1.52039 22.5615 3.99499 22.5615 7.03648C22.5615 10.0777 25.0358 12.552 28.0773 12.552C31.1187 12.552 33.5931 10.0777 33.5931 7.03648ZM23.4559 7.03648C23.4559 4.4882 25.529 2.41484 28.0772 2.41484C30.6254 2.41484 32.6986 4.4882 32.6986 7.03648C32.6986 9.58445 30.6255 11.6576 28.0772 11.6576C25.5289 11.6576 23.4559 9.58445 23.4559 7.03648Z" fill="#585D69"></path><path d="M28.5237 10.1476V9.75439C29.347 9.69626 30.0011 9.01509 30.0011 8.17728C30.0011 7.30142 29.2886 6.589 28.4128 6.589H27.7416C27.359 6.589 27.0478 6.27775 27.0478 5.89548C27.0478 5.51291 27.359 5.20166 27.7416 5.20166H28.3789C28.7615 5.20166 29.0728 5.51291 29.0728 5.89548C29.0728 6.14236 29.2731 6.34275 29.52 6.34275C29.767 6.34275 29.9673 6.14244 29.9673 5.89548C29.9673 5.06923 29.3309 4.39619 28.5237 4.32181V3.92517C28.5237 3.6783 28.3234 3.47791 28.0765 3.47791C27.8296 3.47791 27.6293 3.67822 27.6293 3.92517V4.31853C26.8067 4.37736 26.1533 5.05814 26.1533 5.89548C26.1533 6.77103 26.8658 7.48345 27.7416 7.48345H28.4128C28.7954 7.48345 29.1066 7.7947 29.1066 8.17728C29.1066 8.55986 28.7954 8.87111 28.4128 8.87111H27.7751C27.3925 8.87111 27.0813 8.55986 27.0813 8.17728C27.0813 7.93041 26.881 7.73001 26.634 7.73001C26.3871 7.73001 26.1868 7.93033 26.1868 8.17728C26.1868 9.00314 26.8226 9.67587 27.6293 9.75087V10.1476C27.6293 10.3945 27.8296 10.5949 28.0765 10.5949C28.3234 10.5948 28.5237 10.3945 28.5237 10.1476Z" fill="#585D69"></path><path d="M12.8789 27.126C12.632 27.126 12.4316 27.3263 12.4316 27.5732C12.4316 27.8201 12.632 28.0204 12.8789 28.0204H28.0773C28.6689 28.0204 28.6692 27.126 28.0773 27.126H12.8789Z" fill="#585D69"></path></svg>