<svg width="18" height="18" viewBox="0 0 18 18" fill="none" xmlns="http://www.w3.org/2000/svg">
<g clip-path="url(#clip0_1114_7069)">
<path d="M17.9918 9.16863C17.9918 8.43117 17.9306 7.89303 17.798 7.33496H9.17969V10.6634H14.2385C14.1365 11.4906 13.5858 12.7363 12.3618 13.5734L12.3447 13.6848L15.0696 15.7475L15.2584 15.7659C16.9923 14.2013 17.9918 11.8992 17.9918 9.16863Z" fill="#4285F4"/>
<path d="M9.17676 17.9384C11.6551 17.9384 13.7358 17.1411 15.2555 15.7659L12.3589 13.5734C11.5838 14.1015 10.5434 14.4703 9.17676 14.4703C6.74936 14.4703 4.68913 12.9057 3.95472 10.7432L3.84707 10.7521L1.01362 12.8947L0.976562 12.9954C2.48603 15.9252 5.5866 17.9384 9.17676 17.9384Z" fill="#34A853"/>
<path d="M3.95726 10.7431C3.76348 10.185 3.65133 9.58704 3.65133 8.9692C3.65133 8.35129 3.76348 7.75338 3.94706 7.19531L3.94193 7.07645L1.07297 4.89941L0.979102 4.94304C0.356977 6.15886 0 7.52419 0 8.9692C0 10.4142 0.356977 11.7795 0.979102 12.9953L3.95726 10.7431Z" fill="#FBBC05"/>
<path d="M9.17676 3.46802C10.9004 3.46802 12.0631 4.19551 12.7261 4.80346L15.3167 2.33196C13.7256 0.886946 11.6551 0 9.17676 0C5.5866 0 2.48603 2.01305 0.976562 4.94292L3.94452 7.19519C4.68913 5.03265 6.74936 3.46802 9.17676 3.46802Z" fill="#EB4335"/>
</g>
<defs>
<clipPath id="clip0_1114_7069">
<rect width="18" height="18" fill="white"/>
</clipPath>
</defs>
</svg>
