<svg width="24" height="24" viewBox="0 0 24 24" fill="none" xmlns="http://www.w3.org/2000/svg">
<g clip-path="url(#clip0_40000857_39906)">
<path d="M14.8477 23.9683H10.5579L7.87333 17.6716L5.67285 14.8894L6.21283 11.2772L7.54158 8.57852L9.36855 5.09045L11.1949 3.67876L16.3853 3.38818L18.0875 3.59582L19.7069 3.72052L20.2051 6.0457L20.9527 13.6783L19.4992 18.9168L18.0464 22.1137L16.1359 23.5672L14.8477 23.9683Z" fill="white"/>
<path d="M0 21.0922V2.90548C0.235283 2.40491 0.426449 1.87258 0.723493 1.41084C1.22876 0.625585 2.0499 0.272073 2.90633 -0.000854492H21.0948C21.2084 0.043261 21.3201 0.0950232 21.4366 0.131492C23.0324 0.633232 23.9953 1.91611 23.9971 3.59191C24.0029 9.19948 24.0029 14.8082 23.9971 20.4181C23.9935 22.4769 22.4677 23.9833 20.4055 23.9944C18.6714 24.0033 16.9351 23.9944 15.2028 23.9944C15.0851 23.9944 14.964 23.9756 14.8499 23.9662V15.4902H18.3691C18.6044 14.0967 18.8285 12.7373 19.0661 11.3139H14.8428V8.43168H19.0238V4.23188C17.5533 4.23188 16.1169 4.19423 14.684 4.24247C13.3711 4.28717 12.2847 4.8495 11.47 5.90474C10.8412 6.71882 10.6107 7.65701 10.596 8.66107C10.5836 9.53044 10.596 10.401 10.596 11.3298H7.80844V15.506H10.5624V23.985C8.07784 23.985 5.62678 24.0009 3.17573 23.9744C2.50929 23.9674 1.9152 23.668 1.37523 23.2651C0.633499 22.7116 0.27234 21.9322 0 21.0922Z" fill="#29AE48"/>
</g>
<defs>
<clipPath id="clip0_40000857_39906">
<rect width="24" height="24" fill="white"/>
</clipPath>
</defs>
</svg>
