<svg width="24" height="24" viewBox="0 0 24 24" fill="none" xmlns="http://www.w3.org/2000/svg">
<path d="M0 18.5641V5.43845C0.0403487 5.34148 0.0738464 5.24178 0.100234 5.14012C0.660196 2.18597 3.26895 0.0110581 6.27533 0.00447028C10.1025 -0.00149009 13.9297 -0.00149009 17.7569 0.00447028C21.1642 0.0119992 23.9875 2.83581 23.9951 6.2431C24.0035 10.0703 24.0035 13.8975 23.9951 17.7247C23.9908 20.5951 22.0018 23.1205 19.2208 23.8118C18.9992 23.8673 18.7808 23.9369 18.562 24H5.43586C5.37178 23.9612 5.3036 23.9297 5.23258 23.9059C2.57645 23.3393 0.888099 21.747 0.167521 19.1288C0.118583 18.9406 0.0564667 18.7524 0 18.5641ZM11.9992 19.7099V19.7833C13.1859 19.7833 14.3727 19.8017 15.5589 19.7791C17.8839 19.7321 19.7125 17.9877 19.7633 15.6763C19.817 13.2266 19.817 10.7758 19.7633 8.3239C19.713 6.04782 17.9235 4.27712 15.6498 4.23336C13.2151 4.18787 10.7798 4.18787 8.3439 4.23336C6.07253 4.27618 4.27829 6.05817 4.23171 8.32719C4.18183 10.7769 4.18183 13.2277 4.23171 15.6796C4.27076 17.744 5.75913 19.4676 7.79382 19.6822C9.18149 19.8271 10.5969 19.7085 12.0001 19.7085L11.9992 19.7099Z" fill="#29AE48"/>
<path d="M12 19.7084C10.5968 19.7084 9.18141 19.827 7.79421 19.6802C5.75952 19.4656 4.27115 17.742 4.2321 15.6776C4.18598 13.2273 4.18598 10.7765 4.2321 8.3252C4.27915 6.05712 6.07292 4.27512 8.34429 4.23136C10.7789 4.18525 13.2142 4.18525 15.6501 4.23136C17.9239 4.27418 19.7134 6.04582 19.7637 8.3219C19.8174 10.7716 19.8174 13.2224 19.7637 15.6743C19.7129 17.9857 17.8843 19.7324 15.5593 19.7771C14.373 19.7997 13.1863 19.7813 11.9996 19.7813L12 19.7084ZM18.3718 12.0167C18.3718 10.83 18.3761 9.64369 18.3718 8.45742C18.3648 6.86083 17.1484 5.63409 15.5645 5.62938C13.1916 5.62279 10.8186 5.62279 8.44545 5.62938C6.85309 5.63362 5.63248 6.85283 5.62871 8.44707C5.62307 10.8202 5.62307 13.1933 5.62871 15.5661C5.63248 17.1317 6.85498 18.3664 8.4111 18.3716C10.7996 18.3794 13.1882 18.3794 15.5767 18.3716C17.1371 18.3669 18.3615 17.1378 18.3709 15.5765C18.3761 14.3897 18.3718 13.203 18.3718 12.0167Z" fill="white"/>
<path d="M18.3719 12.0169C18.3719 13.2032 18.3775 14.3899 18.3719 15.5762C18.3625 17.1375 17.1381 18.3666 15.5777 18.3713C13.1892 18.3788 10.8006 18.3788 8.41209 18.3713C6.85596 18.3661 5.63581 17.1314 5.6297 15.5658C5.62311 13.1927 5.62311 10.8197 5.6297 8.4468C5.63346 6.85397 6.85314 5.63335 8.44644 5.62911C10.8193 5.62347 13.1923 5.62347 15.5655 5.62911C17.1513 5.63335 18.3658 6.86056 18.3728 8.45715C18.3761 9.64389 18.3719 10.8302 18.3719 12.0169ZM15.4907 12.0023C15.4907 10.0425 13.9519 8.50609 11.9902 8.50985C10.0515 8.51315 8.51797 10.0387 8.50808 11.9741C8.49726 13.9358 10.0303 15.4858 11.986 15.4915C13.9416 15.4971 15.4897 13.9617 15.4907 12.0023ZM16.0511 8.6449C16.4431 8.63502 16.7099 8.35551 16.7056 7.95931C16.7014 7.5631 16.428 7.29488 16.0318 7.29394C15.6187 7.29394 15.3377 7.58615 15.3542 7.99977C15.3693 8.39222 15.6539 8.65479 16.0511 8.6449Z" fill="#29AE48"/>
<path d="M15.4907 12.0021C15.4907 13.9615 13.9472 15.4965 11.985 15.4913C10.0228 15.4861 8.49631 13.9356 8.50714 11.9739C8.51796 10.0385 10.0515 8.51294 11.9893 8.50965C13.9529 8.50589 15.4916 10.0423 15.4907 12.0021ZM14.1232 12.0054C14.1279 10.8573 13.1558 9.88132 12.0057 9.87709C10.8557 9.87285 9.88116 10.8427 9.87598 11.9946C9.87081 13.1465 10.8453 14.1201 11.9935 14.1234C13.1416 14.1267 14.119 13.1526 14.1232 12.0054Z" fill="white"/>
<path d="M14.1234 12.0055C14.1191 13.1541 13.1408 14.1273 11.9936 14.123C10.8464 14.1188 9.86954 13.1405 9.87613 11.9942C9.88272 10.848 10.8563 9.87249 12.0059 9.87672C13.1554 9.88096 14.1281 10.8574 14.1234 12.0055Z" fill="#29AE48"/>
<circle cx="16.0003" cy="8.00034" r="0.800023" fill="white"/>
</svg>
