<svg xmlns="http://www.w3.org/2000/svg" viewBox="0 0 30.96 48.83">
  <defs>
    <style>
      .cls-1 {
        fill: #d1fadf;
      }

      .cls-2 {
        fill: #fff;
      }
    </style>
  </defs>
  <g id="Layer_2" data-name="Layer 2">
    <g id="Layer_1-2" data-name="Layer 1">
      <g>
        <path class="cls-1" d="M30.19,42.64c0,3-6.58,5.43-14.72,5.43S.76,45.63.76,42.64s6.59-5.43,14.71-5.43S30.19,39.64,30.19,42.64Z"/>
        <path class="cls-2" d="M15.48.76A13.51,13.51,0,0,0,2,14.27c0,7.45,13.5,28.8,13.5,28.8S29,21.72,29,14.27A13.51,13.51,0,0,0,15.48.76Zm0,20.87A6.53,6.53,0,1,1,22,15.1,6.53,6.53,0,0,1,15.48,21.63Z"/>
        <path d="M0,42.64c0,4,8,6.19,15.47,6.19S31,46.66,31,42.64c0-3.18-5-5.2-10.79-5.9,4-7,9.57-17.52,9.57-22.47a14.27,14.27,0,1,0-28.53,0c0,4.94,5.56,15.48,9.58,22.46C5,37.44,0,39.46,0,42.64ZM15.48,1.53A12.75,12.75,0,0,1,28.21,14.27c0,6.23-10.06,23-12.73,27.35C12.8,37.27,2.74,20.5,2.74,14.27A12.75,12.75,0,0,1,15.48,1.53ZM11.62,38.17c1.74,3,3.05,5,3.21,5.31a.77.77,0,0,0,.65.35.75.75,0,0,0,.64-.35c.17-.27,1.47-2.34,3.21-5.3,6.1.62,10.1,2.62,10.1,4.46,0,2.2-5.73,4.66-14,4.66S1.53,44.84,1.53,42.64C1.53,40.79,5.52,38.79,11.62,38.17Z"/>
        <path d="M22.77,15.1a7.29,7.29,0,1,0-7.29,7.29A7.3,7.3,0,0,0,22.77,15.1Zm-13.06,0a5.77,5.77,0,1,1,5.77,5.77A5.77,5.77,0,0,1,9.71,15.1Z"/>
      </g>
    </g>
  </g>
</svg>
