<svg width="40" height="41" viewBox="0 0 40 41" fill="none" xmlns="http://www.w3.org/2000/svg"><path d="M39.0238 6.1192V26.0945C39.0238 28.1583 37.3507 29.8314 35.2869 29.8314H4.71246C2.64863 29.8314 0.975586 28.1583 0.975586 26.0945V6.1192C0.975586 4.05537 2.64863 2.38232 4.71246 2.38232H35.287C37.3507 2.38232 39.0238 4.05537 39.0238 6.1192Z" fill="white"></path><path d="M0.975586 23.8862V26.0945C0.975586 28.1583 2.64863 29.8314 4.71246 29.8314H35.2869C37.3507 29.8314 39.0238 28.1583 39.0238 26.0945V23.8862H0.975586Z" fill="#E9DECE"></path><path d="M22.9839 29.8313L25.7496 35.4814H14.249L17.0149 29.8313H22.9839Z" fill="white"></path><path d="M29.0233 37.4103C29.0233 38.4757 28.1596 39.3393 27.0942 39.3393H12.9056C11.8402 39.3393 10.9766 38.4757 10.9766 37.4103C10.9766 36.3449 11.8402 35.4812 12.9056 35.4812H27.0942C28.1596 35.4813 29.0233 36.345 29.0233 37.4103Z" fill="#E9DECE"></path><path d="M33.9159 11.7455C33.9159 14.0593 32.0403 15.9349 29.7266 15.9349H10.2734C7.95961 15.9349 6.08398 14.0593 6.08398 11.7455C6.08398 9.43178 7.95961 7.55615 10.2734 7.55615H29.7266C32.0402 7.55615 33.9159 9.43178 33.9159 11.7455Z" fill="#E9DECE"></path><path d="M30.5911 22.4864L32.0064 18.2421L36.3753 16.7022L28.9443 15.0342L30.5911 22.4864Z" fill="white"></path><path d="M35.2869 1.87622H4.71246C2.37301 1.87622 0.469727 3.77974 0.469727 6.11919V26.0943C0.469727 28.4361 2.37504 30.3373 4.71246 30.3373H35.2869C37.6202 30.3373 39.5299 28.44 39.5299 26.0943C39.5299 21.9599 39.5299 9.95271 39.5299 6.11919C39.5299 3.77966 37.6264 1.87622 35.2869 1.87622ZM38.518 26.0943C38.518 27.8759 37.0685 29.3254 35.287 29.3254H4.71246C2.9309 29.3254 1.4816 27.8758 1.4816 26.0943V24.3921H38.5179L38.518 26.0943ZM38.518 23.3801H1.4816V6.11919C1.4816 4.33763 2.9309 2.88817 4.71246 2.88817H35.2869C37.0685 2.88817 38.5179 4.3377 38.5179 6.11919L38.518 23.3801Z" fill="#585D69"></path><path d="M16.2476 31.4C15.997 31.2777 15.694 31.3811 15.5706 31.6318L13.9326 34.9754H12.9056C11.563 34.9754 10.4707 36.0677 10.4707 37.4103C10.4707 38.7531 11.563 39.8454 12.9056 39.8454H27.0943C28.4369 39.8454 29.5292 38.7531 29.5292 37.4103C29.5292 36.0677 28.4369 34.9754 27.0943 34.9754H26.0673L24.4291 31.6318C24.3062 31.3807 24.0032 31.2773 23.7522 31.4C23.5012 31.523 23.3974 31.8261 23.5204 32.077L24.9405 34.9752H15.0595L16.4794 32.077C16.6023 31.8261 16.4986 31.5229 16.2476 31.4ZM27.0943 35.9873C27.8789 35.9873 28.5173 36.6257 28.5173 37.4104C28.5173 38.1952 27.879 38.8336 27.0943 38.8336H12.9057C12.1211 38.8336 11.4827 38.1952 11.4827 37.4104C11.4827 36.6257 12.121 35.9873 12.9057 35.9873H27.0943Z" fill="#585D69"></path><path d="M19.3038 27.3647H20.6952C20.9746 27.3647 21.2011 27.1382 21.2011 26.8587C21.2011 26.5793 20.9746 26.3528 20.6952 26.3528H19.3038C19.0243 26.3528 18.7979 26.5793 18.7979 26.8587C18.7979 27.1382 19.0243 27.3647 19.3038 27.3647Z" fill="#585D69"></path><path d="M13.7819 10.0444C13.6203 9.81648 13.3042 9.76273 13.0765 9.92398L11.8873 10.7667V9.58406C11.8873 9.30461 11.6608 9.07812 11.3814 9.07812C11.1019 9.07812 10.8755 9.30461 10.8755 9.58406V10.7667L9.68623 9.92398C9.45858 9.76273 9.14249 9.81648 8.98084 10.0444C8.81936 10.2723 8.87311 10.5881 9.10124 10.7498L10.5063 11.7455L9.10124 12.7412C8.87319 12.9028 8.81936 13.2187 8.98084 13.4466C9.14327 13.6756 9.45936 13.7276 9.68623 13.567L10.8755 12.7242V13.9069C10.8755 14.1863 11.1019 14.4128 11.3814 14.4128C11.6608 14.4128 11.8873 14.1863 11.8873 13.9069V12.7241L13.0765 13.5669C13.3031 13.7273 13.6194 13.6759 13.7819 13.4465C13.9434 13.2186 13.8897 12.9027 13.6615 12.7411L12.2565 11.7454L13.6615 10.7497C13.8897 10.588 13.9434 10.2723 13.7819 10.0444Z" fill="#585D69"></path><path d="M22.4001 10.0444C22.2385 9.81648 21.9224 9.76273 21.6947 9.92398L20.5055 10.7667V9.58406C20.5055 9.30461 20.279 9.07812 19.9996 9.07812C19.7201 9.07812 19.4936 9.30461 19.4936 9.58406V10.7667L18.3044 9.92398C18.0765 9.76273 17.7605 9.81648 17.599 10.0444C17.4375 10.2723 17.4913 10.5881 17.7194 10.7498L19.1245 11.7455L17.7194 12.7412C17.4914 12.9028 17.4375 13.2187 17.599 13.4466C17.7614 13.6756 18.0775 13.7276 18.3044 13.567L19.4936 12.7242V13.9069C19.4936 14.1863 19.7201 14.4128 19.9996 14.4128C20.279 14.4128 20.5055 14.1863 20.5055 13.9069V12.7241L21.6947 13.5669C21.9213 13.7273 22.2375 13.6759 22.4001 13.4465C22.5616 13.2186 22.5078 12.9027 22.2797 12.7411L20.8746 11.7454L22.2797 10.7497C22.5078 10.588 22.5616 10.2723 22.4001 10.0444Z" fill="#585D69"></path><path d="M31.0184 10.0445C30.8568 9.81656 30.5407 9.76281 30.313 9.92406L29.1237 10.7669V9.58406C29.1237 9.30461 28.8972 9.07812 28.6177 9.07812C28.3383 9.07812 28.1118 9.30461 28.1118 9.58406V10.7667L26.9226 9.92406C26.6949 9.76281 26.3788 9.81656 26.2172 10.0445C26.0557 10.2723 26.1094 10.5882 26.3376 10.7498L27.7427 11.7455L26.3376 12.7412C26.1095 12.9029 26.0558 13.2188 26.2172 13.4466C26.3796 13.6757 26.6957 13.7277 26.9226 13.567L28.1118 12.7244V13.907C28.1118 14.1865 28.3383 14.413 28.6177 14.413C28.8972 14.413 29.1237 14.1865 29.1237 13.907V12.7242L30.313 13.567C30.5396 13.7275 30.8558 13.6761 31.0184 13.4466C31.1799 13.2188 31.1262 12.9029 30.898 12.7412L29.4929 11.7455L30.898 10.7498C31.1262 10.5881 31.1799 10.2723 31.0184 10.0445Z" fill="#585D69"></path><path d="M36.4868 16.2086L32.7188 15.3629C33.7798 14.4843 34.4219 13.1669 34.4219 11.7454C34.4219 9.15638 32.3156 7.05005 29.7265 7.05005H10.2733C9.01844 7.05005 7.83914 7.53825 6.95273 8.42481C6.06633 9.31091 5.57812 10.4902 5.57812 11.7454C5.57812 14.3345 7.68437 16.4408 10.2733 16.4408H28.7376L30.0977 22.5958C30.1469 22.8179 30.3382 22.98 30.5653 22.992C30.5742 22.9924 30.5831 22.9926 30.592 22.9926C30.8087 22.9926 31.0027 22.8541 31.0719 22.6468L32.4088 18.6372L36.5442 17.1794C36.7571 17.1045 36.8945 16.8976 36.8812 16.6725C36.8677 16.4471 36.7068 16.2579 36.4868 16.2086ZM28.5879 14.6761C28.4654 14.7982 28.4136 14.9745 28.4509 15.1435L28.514 15.4289H10.2733C8.24234 15.4289 6.59008 13.7764 6.59008 11.7454C6.59008 10.7606 6.97289 9.83544 7.6682 9.14036C8.36367 8.44505 9.28883 8.062 10.2733 8.062H29.7265C31.7574 8.062 33.4099 9.7145 33.4099 11.7454C33.4099 13.159 32.5973 14.4365 31.3343 15.0521L29.0559 14.5407C28.8881 14.5027 28.7106 14.5535 28.5879 14.6761ZM31.8389 17.7652C31.6916 17.817 31.5764 17.9342 31.527 18.0822L30.6908 20.5901L29.6109 15.7025L34.5473 16.8104L31.8389 17.7652Z" fill="#585D69"></path></svg>