<svg width="14" height="14" viewBox="0 0 14 14" fill="none" xmlns="http://www.w3.org/2000/svg">
<path d="M2.33333 12.8334C2.16806 12.8334 2.02951 12.7775 1.91771 12.6657C1.8059 12.5539 1.75 12.4153 1.75 12.25V4.11254C1.75 3.9667 1.77917 3.84274 1.8375 3.74066C1.89583 3.63858 1.99306 3.55837 2.12917 3.50004L7.9625 1.1667C8.15694 1.08892 8.33681 1.11566 8.50208 1.24691C8.66736 1.37816 8.75 1.54587 8.75 1.75004V3.50004H9.33333C9.49861 3.50004 9.63715 3.55594 9.74896 3.66774C9.86076 3.77955 9.91667 3.91809 9.91667 4.08337V5.83337H8.75V4.6667H2.91667V11.6667H5.93542L7.10208 12.8334H2.33333ZM5.25 3.50004H7.58333V2.59587L5.25 3.50004ZM9.91667 12.8334C9.10972 12.8334 8.42187 12.549 7.85312 11.9802C7.28437 11.4115 7 10.7236 7 9.9167C7 9.10976 7.28437 8.42191 7.85312 7.85316C8.42187 7.28441 9.10972 7.00004 9.91667 7.00004C10.7236 7.00004 11.4115 7.28441 11.9802 7.85316C12.549 8.42191 12.8333 9.10976 12.8333 9.9167C12.8333 10.7236 12.549 11.4115 11.9802 11.9802C11.4115 12.549 10.7236 12.8334 9.91667 12.8334ZM9.1875 11.375L11.5208 9.9167L9.1875 8.45837V11.375Z" fill="#525E55"/>
</svg>
