<?xml version="1.0" encoding="UTF-8"?>
<svg xmlns="http://www.w3.org/2000/svg" id="Layer_1" data-name="Layer 1" viewBox="0 0 24 24">
  <path d="m11,4c0,.552-.448,1-1,1s-1-.448-1-1,.448-1,1-1,1,.448,1,1Zm13,.5v13c0,1.636-.889,3.145-2.32,3.938-.242.132-.545.047-.68-.195-.134-.241-.046-.546.195-.68,1.113-.616,1.805-1.79,1.805-3.062v-9.5H1v9.5c0,1.93,1.57,3.5,3.5,3.5h1c.276,0,.5.224.5.5s-.224.5-.5.5h-1c-2.481,0-4.5-2.019-4.5-4.5V4.5C0,2.019,2.019,0,4.5,0h15c2.481,0,4.5,2.019,4.5,4.5Zm-1,0c0-1.93-1.57-3.5-3.5-3.5H4.5c-1.93,0-3.5,1.57-3.5,3.5v2.5h22v-2.5Zm-4,10.844c.017.05,0,5.156,0,5.156,0,.276-.224.5-.5.5s-.5-.224-.5-.5v-3.628l-2,.801v3.719c0,.876-.513,1.68-1.307,2.046-.807.372-1.713.562-2.693.562s-1.885-.188-2.693-.562c-.794-.367-1.307-1.17-1.307-2.046v-3.711l-2.079-.837c-.572-.23-.927-.739-.926-1.328,0-.59.357-1.098.93-1.326l4.707-1.88c.857-.343,1.838-.342,2.694-.003l4.737,1.881c.516.205.873.641.938,1.155Zm-4,2.73l-1.662.666c-.43.173-.891.259-1.353.259s-.927-.087-1.359-.261l-1.626-.654v3.309c0,.487.285.935.726,1.138,1.353.624,3.201.623,4.548,0,.441-.203.727-.65.727-1.138v-3.318Zm2.995-2.557c0-.175-.113-.324-.302-.399l-4.737-1.881c-.621-.248-1.333-.246-1.954.002l-4.707,1.879c-.271.108-.301.315-.301.399,0,.084.029.291.299.399l4.705,1.894c.625.251,1.343.252,1.967.002l4.729-1.895c.271-.108.3-.316.3-.4ZM4,3c-.552,0-1,.448-1,1s.448,1,1,1,1-.448,1-1-.448-1-1-1Zm3,0c-.552,0-1,.448-1,1s.448,1,1,1,1-.448,1-1-.448-1-1-1Z"/>
</svg>
