<svg width="22" height="22" viewBox="0 0 22 22" fill="none" xmlns="http://www.w3.org/2000/svg">
<g clip-path="url(#clip0_40000811_49471)">
<rect width="22" height="22" rx="3" fill="white"/>
<path d="M18.745 18.7453H15.4853V13.6403C15.4853 12.423 15.4636 10.856 13.79 10.856C12.0922 10.856 11.8324 12.1823 11.8324 13.5517V18.7449H8.57278V8.24716H11.702V9.6818H11.7459C12.059 9.14632 12.5116 8.70581 13.0553 8.40719C13.599 8.10856 14.2135 7.96299 14.8334 7.98599C18.1373 7.98599 18.7464 10.1592 18.7464 12.9864L18.745 18.7453ZM4.89466 6.81226C3.84991 6.81243 3.00283 5.9656 3.00266 4.92086C3.00248 3.87612 3.84923 3.02903 4.89397 3.02886C5.93871 3.0286 6.7858 3.87543 6.78597 4.92017C6.78606 5.42188 6.58685 5.90307 6.23216 6.25791C5.87748 6.61274 5.39636 6.81214 4.89466 6.81226ZM6.52455 18.7454H3.26141V8.24716H6.52446V18.7453L6.52455 18.7454ZM20.3701 0.00154014H1.62345C0.73743 -0.00842861 0.0108281 0.701329 0 1.58734V20.4122C0.0104844 21.2987 0.737 22.0091 1.62336 21.9998H20.3701C21.2584 22.0108 21.9877 21.3004 22 20.4122V1.58588C21.9874 0.69815 21.2579 -0.0115224 20.3701 7.92056e-05" fill="#8A8A8A"/>
</g>
<defs>
<clipPath id="clip0_40000811_49471">
<rect width="22" height="22" rx="3" fill="white"/>
</clipPath>
</defs>
</svg>
