<svg width="22" height="22" viewBox="0 0 22 22" fill="none" xmlns="http://www.w3.org/2000/svg">
<g clip-path="url(#clip0_40001088_881)">
<rect width="22" height="22" rx="3" fill="white"/>
<path d="M18.7449 18.7453H15.4852V13.6403C15.4852 12.423 15.4635 10.856 13.7899 10.856C12.0921 10.856 11.8323 12.1823 11.8323 13.5517V18.7449H8.57269V8.24716H11.7019V9.6818H11.7458C12.0589 9.14632 12.5115 8.70581 13.0552 8.40719C13.5989 8.10856 14.2134 7.96299 14.8333 7.98599C18.1372 7.98599 18.7463 10.1592 18.7463 12.9864L18.7449 18.7453ZM4.89456 6.81226C3.84982 6.81243 3.00274 5.9656 3.00256 4.92086C3.00239 3.87612 3.84913 3.02903 4.89388 3.02886C5.93862 3.0286 6.78571 3.87543 6.78588 4.92017C6.78597 5.42188 6.58676 5.90307 6.23207 6.25791C5.87738 6.61274 5.39627 6.81214 4.89456 6.81226ZM6.52446 18.7454H3.26132V8.24716H6.52437V18.7453L6.52446 18.7454ZM20.37 0.00154014H1.62335C0.737338 -0.00842861 0.0107366 0.701329 -9.15527e-05 1.58734V20.4122C0.0103928 21.2987 0.736908 22.0091 1.62327 21.9998H20.37C21.2583 22.0108 21.9876 21.3004 21.9999 20.4122V1.58588C21.9873 0.69815 21.2578 -0.0115224 20.37 7.92056e-05" fill="#63A7FF"/>
</g>
<defs>
<clipPath id="clip0_40001088_881">
<rect width="22" height="22" rx="3" fill="white"/>
</clipPath>
</defs>
</svg>
