<svg width="24" height="24" viewBox="0 0 24 24" fill="none" xmlns="http://www.w3.org/2000/svg">
<path d="M3 6.79634C3.03945 6.60331 3.06998 6.40747 3.1207 6.21679C3.44148 5.00696 4.45499 4.16674 5.72916 4.13246C7.08693 4.09629 8.44706 4.10381 9.80577 4.12588C10.6709 4.14044 11.1781 4.84539 10.9799 5.6842C10.8489 6.2337 10.3618 6.5803 9.68929 6.58359C8.5114 6.58922 7.33397 6.58359 6.15655 6.58688C6.03969 6.58757 5.92299 6.59557 5.80713 6.61083C5.61927 6.63431 5.515 6.74844 5.49574 6.93536C5.48129 7.05728 5.47314 7.17987 5.47132 7.30263C5.47132 10.8063 5.47132 14.3097 5.47132 17.813C5.47132 18.4363 5.56009 18.5264 6.18003 18.5264H16.7078C17.3268 18.5264 17.4123 18.4367 17.4123 17.8121C17.4123 16.6755 17.4123 15.539 17.4151 14.4024C17.4123 14.227 17.4309 14.052 17.4705 13.8811C17.6293 13.2546 18.1337 12.9239 18.8109 12.9855C19.3971 13.039 19.8235 13.4983 19.8733 14.1295C19.8761 14.1648 19.8775 14.2 19.8775 14.2347C19.8775 15.5531 19.8954 16.8714 19.8695 18.1892C19.8522 19.0755 19.4966 19.8241 18.7865 20.3811C18.361 20.715 17.8712 20.894 17.3386 20.9649C17.2813 20.9724 17.2254 20.9879 17.1686 20.9992H5.67186C5.62258 20.9849 5.57257 20.9733 5.52205 20.9644C4.33382 20.8235 3.42551 20.042 3.12117 18.889C3.06951 18.6932 3.03992 18.4912 3 18.2926V6.79634Z" fill="#29AE48"/>
<path d="M16.7088 5.48695C16.2307 5.48695 15.7526 5.48695 15.2745 5.48695C14.9114 5.48695 14.5474 5.49071 14.1853 5.47051C13.417 5.4273 12.9642 4.93464 12.9811 4.18272C12.9976 3.48998 13.5029 3.00858 14.2492 3.00529C15.4792 2.99684 16.7097 3.00107 17.9402 3.00107C18.5376 3.00107 19.1355 2.99637 19.7329 3.0067C19.9025 3.00927 20.0707 3.03696 20.2321 3.08889C20.7201 3.24998 20.9958 3.67925 20.9972 4.26913C21.0014 5.60483 21 6.941 21 8.2767C21 8.77453 21.0033 9.27284 20.9972 9.77067C20.9873 10.6367 20.2988 11.1773 19.4558 10.9857C19.1977 10.9328 18.9656 10.7926 18.7988 10.5887C18.632 10.3847 18.5406 10.1295 18.54 9.86601C18.5235 9.0676 18.5217 8.27247 18.5137 7.47594C18.5137 7.41394 18.5137 7.35242 18.5137 7.24769C18.432 7.32565 18.3817 7.37074 18.3338 7.41817C16.2275 9.52911 14.1194 11.6383 12.0094 13.7458C11.7902 13.9554 11.5358 14.1249 11.258 14.2465C10.5136 14.5837 9.82364 14.0398 9.68181 13.3748C9.57801 12.8892 9.74381 12.4881 10.0843 12.1476C11.038 11.1958 11.993 10.2444 12.9492 9.2935C14.1778 8.06958 15.4071 6.84629 16.6369 5.62362C16.6691 5.59745 16.7039 5.57463 16.7407 5.55552L16.7088 5.48695Z" fill="#29AE48"/>
</svg>
