<svg width="24" height="24" viewBox="0 0 24 24" fill="none" xmlns="http://www.w3.org/2000/svg">
<path d="M24.0025 2.61877V21.3724C23.9435 21.5105 23.877 21.6454 23.8274 21.7866C23.5268 22.6545 22.9489 23.2802 22.1368 23.6862C21.8927 23.808 21.631 23.8946 21.3768 24H2.62378C2.5899 23.9718 2.56103 23.9285 2.52087 23.9165C0.810797 23.3743 0 22.2736 0 20.4864C0 14.8171 0 9.14821 0 3.47977C0 1.35865 1.35927 0 3.48102 0C9.04111 0 14.6012 0 20.1613 0C22.3219 0 23.1798 0.586761 23.9636 2.59868C23.968 2.60559 23.9893 2.61124 24.0025 2.61877ZM12.7631 10.6909C12.7631 10.4324 12.7631 10.3081 12.7631 10.1839C12.7581 9.5375 12.679 9.45843 12.0308 9.45717C11.4371 9.45717 10.8428 9.46972 10.2498 9.45278C9.81048 9.44022 9.62222 9.62033 9.62661 10.0609C9.63351 12.9984 9.62661 15.936 9.63163 18.8735C9.63163 19.3681 9.77094 19.4929 10.288 19.4973C10.8817 19.5024 11.4754 19.5024 12.069 19.4973C12.6225 19.4936 12.7593 19.3586 12.7593 18.807C12.7593 17.3222 12.716 15.8362 12.7826 14.3514C12.8077 13.7866 13.0066 13.1892 13.267 12.6784C13.5526 12.118 14.1399 11.9485 14.7593 12.0176C15.3925 12.0885 15.8456 12.4299 16.0195 13.0461C16.1349 13.4502 16.1982 13.8673 16.2077 14.2874C16.2291 15.8029 16.214 17.3185 16.2165 18.834C16.2165 19.3273 16.3665 19.4835 16.8497 19.4885C17.5212 19.4961 18.1933 19.4885 18.8648 19.4885C19.2413 19.4885 19.4421 19.3103 19.4358 18.9143C19.4277 18.3991 19.4427 17.8833 19.4321 17.3674C19.3994 15.7446 19.4283 14.1167 19.3066 12.5008C19.1767 10.8133 18.2661 9.72012 16.824 9.42579C15.3122 9.1183 13.8896 9.25448 12.7631 10.6909ZM5.03169 14.4324C5.03169 15.9002 5.02793 17.3681 5.03169 18.8353C5.03169 19.3317 5.18732 19.4892 5.66803 19.4961C6.29558 19.5055 6.91748 19.4998 7.54189 19.4961C7.95984 19.4961 8.16944 19.2965 8.16944 18.8623C8.16442 15.9274 8.16442 12.9922 8.16944 10.0565C8.16944 9.65108 7.98557 9.45089 7.57452 9.45403C6.9658 9.45905 6.35645 9.45403 5.74773 9.45403C5.15281 9.45403 5.03671 9.56762 5.03483 10.1663C5.02856 11.5908 5.03107 13.0091 5.03169 14.4324ZM4.57609 6.52903C4.57233 7.6856 5.46533 8.57296 6.62441 8.5648C7.15372 8.5622 7.66082 8.35177 8.03645 7.97884C8.41207 7.60591 8.62616 7.10035 8.63257 6.57107C8.64261 5.43521 7.72074 4.49577 6.59743 4.50016C6.06039 4.50133 5.54579 4.71569 5.16675 5.09614C4.78771 5.47659 4.57526 5.99199 4.57609 6.52903Z" fill="#29AE48"/>
<path d="M12.763 10.6909C13.8926 9.25444 15.3121 9.11513 16.8182 9.42639C18.2616 9.72385 19.1709 10.817 19.3008 12.5014C19.4263 14.1173 19.3968 15.7452 19.4263 17.368C19.437 17.8839 19.4219 18.3997 19.4301 18.9149C19.4363 19.3109 19.2387 19.4885 18.859 19.4891C18.1875 19.4891 17.5154 19.4954 16.8439 19.4891C16.3607 19.4841 16.212 19.3279 16.2107 18.8346C16.2107 17.3191 16.2233 15.8035 16.202 14.288C16.1924 13.8679 16.1292 13.4508 16.0137 13.0467C15.8399 12.4305 15.3861 12.0891 14.7536 12.0182C14.1342 11.9491 13.5468 12.1186 13.2613 12.679C13.0008 13.1898 12.8019 13.7853 12.7768 14.352C12.7103 15.8337 12.7561 17.3197 12.7536 18.8076C12.7536 19.3605 12.6174 19.4979 12.0633 19.4979C11.4696 19.5017 10.876 19.5017 10.2823 19.4979C9.76519 19.4935 9.6265 19.3687 9.62587 18.8741C9.62211 15.9366 9.62587 12.999 9.62085 10.0615C9.62085 9.62219 9.80912 9.44082 10.244 9.45337C10.837 9.47031 11.4313 9.45651 12.025 9.45777C12.6733 9.45777 12.7523 9.53809 12.7573 10.1845C12.7636 10.3106 12.763 10.4324 12.763 10.6909Z" fill="white"/>
<path d="M5.03153 14.4323C5.03153 13.0115 5.02839 11.5907 5.03153 10.1699C5.03153 9.57126 5.14951 9.45956 5.74443 9.45768C6.35315 9.45768 6.9625 9.45768 7.57122 9.45768C7.98227 9.45454 8.16676 9.65473 8.16614 10.0601C8.16363 12.995 8.16363 15.9302 8.16614 18.8659C8.16614 19.3002 7.95967 19.4978 7.53859 19.4997C6.91104 19.4997 6.28914 19.5073 5.66473 19.4997C5.18402 19.4928 5.03027 19.3353 5.02839 18.8389C5.02776 17.3679 5.03153 15.9001 5.03153 14.4323Z" fill="white"/>
<path d="M4.57594 6.52894C4.57444 5.99189 4.78625 5.47624 5.16482 5.09532C5.54339 4.71439 6.05773 4.49939 6.59476 4.49756C7.71808 4.49756 8.63995 5.43512 8.62991 6.56847C8.62349 7.09774 8.40941 7.60332 8.03378 7.97624C7.65815 8.34917 7.15105 8.5596 6.62175 8.5622C5.46518 8.57287 4.57217 7.68551 4.57594 6.52894Z" fill="white"/>
</svg>
