<svg width="24" height="24" viewBox="0 0 24 24" fill="none" xmlns="http://www.w3.org/2000/svg">
<g clip-path="url(#clip0_40000435_5325)">
<mask id="mask0_40000435_5325" style="mask-type:luminance" maskUnits="userSpaceOnUse" x="0" y="0" width="24" height="24">
<path d="M24 0H0V24H24V0Z" fill="white"/>
</mask>
<g mask="url(#mask0_40000435_5325)">
<g opacity="0.0714978">
<path d="M5.05834 4.02971C5.22053 4.19214 5.31168 4.41232 5.31168 4.64186C5.31168 4.87144 5.22053 5.09162 5.05834 5.254C4.14668 6.16566 3.42346 7.24792 2.93012 8.43909C2.43668 9.63021 2.18276 10.9069 2.18276 12.1961C2.18276 13.4854 2.43668 14.762 2.93012 15.9532C3.42346 17.1443 4.14668 18.2266 5.05834 19.1382C5.21607 19.3017 5.30328 19.5206 5.30122 19.7477C5.29911 19.9748 5.20791 20.192 5.04725 20.3526C4.8865 20.5132 4.66925 20.6041 4.44212 20.606C4.21498 20.6079 3.9962 20.5204 3.8329 20.3626C-0.677373 15.8523 -0.677373 8.53998 3.8329 4.02971C3.99533 3.86752 4.21546 3.77637 4.44504 3.77637C4.67458 3.77637 4.89476 3.86752 5.05719 4.02971H5.05834Z" fill="#DB3739"/>
</g>
<g opacity="0.0714978">
<path d="M20.1669 4.02961C24.6774 8.53988 24.6774 15.8522 20.1669 20.3636C20.0028 20.5166 19.7856 20.5999 19.5612 20.5959C19.3368 20.592 19.1226 20.5011 18.964 20.3424C18.8053 20.1837 18.7143 19.9696 18.7103 19.7451C18.7064 19.5207 18.7897 19.3035 18.9427 19.1393C19.8545 18.2276 20.578 17.1453 21.0714 15.954C21.5648 14.7628 21.8189 13.4859 21.8189 12.1966C21.8189 10.9071 21.5648 9.63044 21.0714 8.43918C20.578 7.24796 19.8545 6.16561 18.9427 5.2539C18.8576 5.1746 18.7893 5.07899 18.742 4.97271C18.6947 4.86644 18.6692 4.75177 18.6671 4.63542C18.6651 4.51911 18.6865 4.40363 18.7301 4.29572C18.7736 4.18787 18.8384 4.0899 18.9207 4.00763C19.003 3.92535 19.101 3.86051 19.2088 3.81697C19.3167 3.77339 19.4322 3.75198 19.5485 3.75404C19.6649 3.75611 19.7796 3.78155 19.8858 3.82887C19.9921 3.87625 20.0877 3.94451 20.1669 4.02961Z" fill="#DB3739"/>
</g>
<g opacity="0.736237">
<path d="M8.32472 7.29626C8.48691 7.4587 8.57806 7.67892 8.57806 7.90846C8.57806 8.13804 8.48691 8.35822 8.32472 8.5206C7.84189 9.00329 7.4589 9.57626 7.19763 10.207C6.93632 10.8377 6.80178 11.5137 6.80178 12.1963C6.80178 12.879 6.93632 13.555 7.19763 14.1858C7.4589 14.8164 7.84189 15.3895 8.32472 15.8722C8.47774 16.0363 8.56102 16.2535 8.55709 16.478C8.5531 16.7023 8.46219 16.9165 8.3035 17.0752C8.14477 17.2339 7.93069 17.3248 7.70624 17.3288C7.48184 17.3327 7.26464 17.2494 7.10043 17.0964C5.80088 15.7968 5.0708 14.0343 5.0708 12.1963C5.0708 10.3585 5.80088 8.59586 7.10043 7.29626C7.26282 7.13407 7.48299 7.04297 7.71258 7.04297C7.94211 7.04297 8.16229 7.13407 8.32472 7.29626Z" fill="#DB3739"/>
</g>
<g opacity="0.736237">
<path d="M16.9007 7.2958C18.2003 8.5954 18.9303 10.358 18.9303 12.1959C18.9303 14.0338 18.2003 15.7964 16.9007 17.096C16.8209 17.1788 16.7253 17.2448 16.6197 17.2902C16.514 17.3357 16.4003 17.3596 16.2853 17.3607C16.1703 17.3617 16.0562 17.3399 15.9498 17.2964C15.8433 17.2529 15.7465 17.1886 15.6651 17.1073C15.5838 17.026 15.5194 16.9293 15.4758 16.8229C15.4322 16.7164 15.4102 16.6024 15.4112 16.4874C15.4121 16.3723 15.4359 16.2587 15.4813 16.153C15.5267 16.0473 15.5926 15.9516 15.6753 15.8717C16.1579 15.389 16.5408 14.8161 16.802 14.1855C17.0632 13.5549 17.1976 12.879 17.1976 12.1965C17.1976 11.5139 17.0632 10.8381 16.802 10.2074C16.5408 9.57686 16.1579 9.00388 15.6753 8.52124C15.5222 8.35703 15.439 8.13983 15.4429 7.91543C15.4469 7.69099 15.5378 7.47691 15.6965 7.31817C15.8553 7.15948 16.0693 7.06857 16.2937 7.06459C16.5182 7.06065 16.7354 7.14393 16.8996 7.29695L16.9007 7.2958Z" fill="#DB3739"/>
</g>
<path d="M12.0001 10.4639C12.4596 10.4639 12.9002 10.6464 13.2251 10.9713C13.5501 11.2962 13.7326 11.7369 13.7326 12.1964C13.7326 12.6558 13.5501 13.0965 13.2251 13.4214C12.9002 13.7463 12.4596 13.9289 12.0001 13.9289C11.5406 13.9289 11.0999 13.7463 10.775 13.4214C10.4501 13.0965 10.2676 12.6558 10.2676 12.1964C10.2676 11.7369 10.4501 11.2962 10.775 10.9713C11.0999 10.6464 11.5406 10.4639 12.0001 10.4639Z" fill="#DB3739"/>
</g>
</g>
<defs>
<clipPath id="clip0_40000435_5325">
<rect width="24" height="24" fill="white"/>
</clipPath>
</defs>
</svg>
