<svg width="1418" height="225" viewBox="0 0 1418 225" fill="none" xmlns="http://www.w3.org/2000/svg">
<g opacity="0.25">
<path d="M253.961 0.34375L-275.135 225.102" stroke="#B3B3B3"/>
<path d="M273.203 0.351562L-97.1556 225.182" stroke="#B3B3B3"/>
<path d="M292.445 0.360352L38.4845 225.243" stroke="#B3B3B3"/>
<path d="M311.688 0.369141L148.426 225.293" stroke="#B3B3B3"/>
<path d="M330.93 0.37793L241.745 225.335" stroke="#B3B3B3"/>
<path d="M350.172 0.386719L323.847 225.372" stroke="#B3B3B3"/>
<path d="M369.414 0.395508L398.184 225.406" stroke="#B3B3B3"/>
<path d="M388.656 0.404297L467.101 225.437" stroke="#B3B3B3"/>
<path d="M407.895 0.413086L532.285 225.467" stroke="#B3B3B3"/>
<path d="M427.137 0.421875L595.034 225.495" stroke="#B3B3B3"/>
<path d="M446.379 0.430664L656.403 225.523" stroke="#B3B3B3"/>
<path d="M465.621 0.438477L717.326 225.55" stroke="#B3B3B3"/>
<path d="M484.863 0.447266L778.695 225.577" stroke="#B3B3B3"/>
<path d="M504.105 0.456055L841.445 225.606" stroke="#B3B3B3"/>
<path d="M523.348 0.464844L906.632 225.635" stroke="#B3B3B3"/>
<path d="M542.59 0.473633L975.55 225.667" stroke="#B3B3B3"/>
<path d="M561.832 0.482422L1049.89 225.7" stroke="#B3B3B3"/>
<path d="M581.074 0.491211L1131.99 225.738" stroke="#B3B3B3"/>
<path d="M600.316 0.5L1225.31 225.78" stroke="#B3B3B3"/>
<path d="M619.555 0.508789L1335.25 225.83" stroke="#B3B3B3"/>
<path d="M638.797 0.517578L1470.89 225.891" stroke="#B3B3B3"/>
<path d="M658.039 0.525391L1648.86 225.971" stroke="#B3B3B3"/>
<path d="M253.961 0.34375L658.039 0.526297" stroke="#B3B3B3"/>
<path d="M253.961 0.34375L658.039 0.526297" stroke="#B3B3B3"/>
<path d="M253.961 0.34375L658.039 0.526297" stroke="#B3B3B3"/>
<path d="M253.961 0.34375L658.039 0.526297" stroke="#B3B3B3"/>
<path d="M253.961 0.34375L658.041 0.526298" stroke="#B3B3B3"/>
<path d="M253.957 0.344727L658.046 0.527279" stroke="#B3B3B3"/>
<path d="M253.945 0.349609L658.063 0.532174" stroke="#B3B3B3"/>
<path d="M253.922 0.361328L658.12 0.54393" stroke="#B3B3B3"/>
<path d="M253.855 0.389648L658.247 0.572337" stroke="#B3B3B3"/>
<path d="M253.707 0.451172L658.517 0.63405" stroke="#B3B3B3"/>
<path d="M253.418 0.575195L659.059 0.758449" stroke="#B3B3B3"/>
<path d="M252.883 0.802734L660.066 0.986684" stroke="#B3B3B3"/>
<path d="M251.941 1.20312L661.829 1.3883" stroke="#B3B3B3"/>
<path d="M250.363 1.87207L664.779 2.05929" stroke="#B3B3B3"/>
<path d="M247.828 2.9502L669.532 3.1407" stroke="#B3B3B3"/>
<path d="M243.879 4.62695L676.922 4.82259" stroke="#B3B3B3"/>
<path d="M237.914 7.16016L688.09 7.36353" stroke="#B3B3B3"/>
<path d="M229.133 10.8906L704.537 11.1054" stroke="#B3B3B3"/>
<path d="M216.492 16.2607L728.211 16.4919" stroke="#B3B3B3"/>
<path d="M198.66 23.8359L761.607 24.0903" stroke="#B3B3B3"/>
<path d="M173.953 34.3311L807.873 34.6174" stroke="#B3B3B3"/>
<path d="M140.277 48.6367L870.937 48.9668" stroke="#B3B3B3"/>
<path d="M95.0469 67.8506L955.641 68.2394" stroke="#B3B3B3"/>
<path d="M35.1016 93.3145L1067.89 93.781" stroke="#B3B3B3"/>
<path d="M-43.375 126.65L1214.85 127.219" stroke="#B3B3B3"/>
<path d="M-144.965 169.808L1405.1 170.508" stroke="#B3B3B3"/>
<path d="M-275.133 225.102L1648.87 225.971" stroke="#B3B3B3"/>
</g>
<path d="M812.453 170.077L879.088 170.098" stroke="url(#paint0_linear_1084_6787)" stroke-linecap="round"/>
<path d="M384.801 126.807L520.022 126.868" stroke="url(#paint1_linear_1084_6787)" stroke-linecap="round"/>
<path d="M633.73 48.5342L768.951 48.5953" stroke="url(#paint2_linear_1084_6787)" stroke-linecap="round"/>
<defs>
<linearGradient id="paint0_linear_1084_6787" x1="812.811" y1="170.426" x2="845.268" y2="137.13" gradientUnits="userSpaceOnUse">
<stop stop-color="#29AE48" stop-opacity="0"/>
<stop offset="0.475962" stop-color="#73B983" stop-opacity="0.7"/>
<stop offset="1" stop-color="#29AE48" stop-opacity="0"/>
</linearGradient>
<linearGradient id="paint1_linear_1084_6787" x1="385.159" y1="127.156" x2="451.03" y2="59.5982" gradientUnits="userSpaceOnUse">
<stop stop-color="#29AE48" stop-opacity="0"/>
<stop offset="0.475962" stop-color="#73B983" stop-opacity="0.7"/>
<stop offset="1" stop-color="#29AE48" stop-opacity="0"/>
</linearGradient>
<linearGradient id="paint2_linear_1084_6787" x1="634.088" y1="48.8832" x2="699.96" y2="-18.6743" gradientUnits="userSpaceOnUse">
<stop stop-color="#29AE48" stop-opacity="0"/>
<stop offset="0.475962" stop-color="#73B983" stop-opacity="0.7"/>
<stop offset="1" stop-color="#29AE48" stop-opacity="0"/>
</linearGradient>
</defs>
</svg>
