<svg width="15" height="15" viewBox="0 0 15 15" fill="none" xmlns="http://www.w3.org/2000/svg">
<path d="M4.11401 1.17578H9.991V5.78921C9.991 6.0145 9.94202 6.2153 9.84407 6.39161C9.74612 6.56791 9.60899 6.70994 9.43269 6.81769L7.34636 8.05185L7.75774 9.40356H9.991L8.16913 10.6965L8.87437 12.9298L7.05251 11.5487L5.23064 12.9298L5.93588 10.6965L4.11401 9.40356H6.34727L6.75866 8.05185L4.67233 6.81769C4.49602 6.70994 4.35889 6.56791 4.26094 6.39161C4.16299 6.2153 4.11401 6.0145 4.11401 5.78921V1.17578ZM5.28941 2.35118V5.78921L6.46481 6.49445V2.35118H5.28941ZM8.8156 2.35118H7.6402V6.49445L8.8156 5.78921V2.35118Z" fill="#29AE48"/>
</svg>
