<svg width="189" height="30" viewBox="0 0 189 30" fill="none" xmlns="http://www.w3.org/2000/svg">
<path d="M17.6242 27.7647C17.7257 27.7063 18.1774 27.5893 18.3653 27.5117C18.2135 27.7839 17.2572 27.976 17.6242 27.7647ZM33.6942 8.06625C33.5394 8.15011 33.3811 8.23512 33.22 8.32112C33.7185 8.23527 34.3387 8.05712 34.7968 7.99785C34.8713 7.98843 34.7161 8.16247 34.8895 8.12894C35.0629 8.09539 34.9843 7.92416 35.2302 7.8481C35.5052 7.76306 36.8316 7.59671 37.2839 7.4944C38.9953 7.10348 40.6147 6.65747 42.3344 6.38423C40.6196 6.8708 42.4056 6.64196 42.8848 6.48696C42.9878 6.45347 42.9086 6.12579 44.6752 5.86508C45.7893 5.70371 44.8667 6.35896 46.6645 5.77574C45.174 5.72546 46.573 5.48001 47.6955 5.26218C47.8849 5.22453 49.4774 4.98351 50.1581 4.85003C50.3905 4.80386 50.7138 4.57562 51.0243 4.51757C51.2381 4.47771 51.4181 4.54017 51.7361 4.48098C53.2146 4.20722 54.7119 3.95452 56.2062 3.75186C55.415 4.30656 56.9193 3.8229 56.9939 3.83285C57.3681 3.89053 55.773 4.17364 56.4188 4.14528C57.3003 3.99306 58.1868 3.8439 59.0782 3.69794C58.3355 3.7559 59.9901 3.20558 60.3304 3.29644C60.1461 2.94518 64.4433 3.04501 65.0711 2.84655C65.202 2.80471 64.2948 2.73786 66.3459 2.56106C66.5684 2.54242 66.5007 2.66032 66.6152 2.63583C66.6836 2.62096 67.0546 2.228 67.532 2.36192C67.7023 2.41205 66.7025 2.75659 68.959 2.39766C68.0005 2.15525 72.0972 1.85204 72.8713 1.86433C72.7144 1.83447 72.5574 1.80463 72.4005 1.77481C73.1637 1.81965 73.2847 1.69098 73.4543 1.68003C74.1357 1.63624 75.0659 1.66209 75.6932 1.5921C76.4258 1.51084 76.4041 1.30251 77.2726 1.3063C77.0635 1.27871 76.8544 1.25119 76.6453 1.22374C77.2396 1.18117 77.8353 1.14006 78.4325 1.10045C77.0842 1.49269 78.7308 1.08735 78.8417 1.07319C79.0171 1.04853 78.7756 1.18135 79.0692 1.1428C79.0996 1.13804 79.0439 1.03634 79.4983 0.987376C80.45 0.88618 80.3048 1.03125 80.7017 0.998521C80.7379 0.995175 80.6011 0.910329 81.2818 0.836479C83.4489 0.606081 81.2772 0.908056 81.1962 0.928454C81.0892 0.954665 81.8697 1.28671 80.0177 1.29393C80.6393 1.28873 80.7192 1.45807 80.7891 1.45677C80.8506 1.45497 81.9189 1.34748 81.9779 1.33751C82.4996 1.23919 82.0239 1.15586 82.1247 1.12697C82.2069 1.10338 83.5166 1.16256 83.7894 0.789685C84.4415 1.07311 83.4575 1.10818 82.4242 1.23534C82.279 1.31347 83.4261 1.29539 83.4865 1.29138C84.9617 1.18769 84.1209 0.977763 84.4285 0.784961C84.5904 0.684395 85.2103 0.827604 84.6317 0.624356C85.9753 0.513758 85.1712 0.703859 85.2599 0.718739C85.3936 0.740386 85.8591 0.642951 85.9191 0.648559C86.0069 0.656709 85.7126 0.757522 86.0568 0.76563C86.1138 0.766245 86.653 0.591746 85.9368 0.566621C86.888 0.529859 86.7925 0.415849 87.1322 0.63979C87.7418 0.145571 87.6228 0.884189 87.8791 0.895292C88.5611 0.92516 88.3375 0.578257 88.3718 0.558745C88.6092 0.432618 90.5009 0.463096 90.966 0.392806C90.7986 0.655433 89.471 0.464578 89.1825 0.529423C88.2205 0.744379 90.566 0.589525 89.8813 0.946808C90.1716 0.843546 90.4626 0.741052 90.7541 0.639326C91.3141 0.820914 90.5449 0.944184 92.0099 0.804482C92.2387 0.616751 90.9723 0.878066 91.2198 0.727111C91.3653 0.637845 92.2176 0.584137 92.2318 0.540647C92.2452 0.487845 91.4777 0.581808 91.594 0.496773C91.8516 0.310444 94.6644 0.369192 92.5374 0.543866C93.1382 0.517359 93.4563 0.847011 93.9646 0.72214C94.2937 0.643256 92.3938 0.233162 95.2079 0.22979C95.2761 0.387061 94.0871 0.312137 94.0574 0.325787C94.0153 0.345072 94.2498 0.699568 94.2877 0.716052C94.4194 0.766523 97.2807 0.488752 97.9004 0.657811C97.6491 0.455899 100.081 0.576808 100.334 0.51373C100.403 0.495676 100.138 0.37476 100.212 0.360533C100.673 0.275378 101.94 0.483796 102.525 0.485947C103.18 0.488348 103.095 0.383213 103.131 0.383132C103.42 0.387962 103.191 0.460699 103.368 0.459842C103.633 0.457013 105.468 0.472747 105.561 0.45967C105.588 0.455216 105.286 0.333975 105.686 0.31318C105.754 0.310103 105.72 0.449556 106.893 0.398335C108.309 0.339446 105.906 0.213351 106.493 0.0711487C107.407 0.290573 107.375 0.0827314 107.622 0.102219C107.708 0.109426 108.347 0.293845 109.04 0.294668C108.542 0.314486 108.046 0.335829 107.55 0.35868C108.038 0.394895 108.986 0.371168 109.39 0.413562C109.586 0.434048 109.425 0.574669 109.852 0.578683C109.943 0.579014 110.301 0.235686 109.183 0.371917C109.093 0.245057 109.626 0.336193 109.873 0.306011C109.91 0.30122 110.057 0.0959765 110.373 0.232436C110.45 0.267018 109.623 0.850668 111.755 0.464842C111.823 0.452617 111.585 0.370844 111.652 0.356971C111.698 0.347479 112.243 0.393025 112.303 0.384209C112.365 0.374545 112.102 0.284803 112.175 0.270743C112.552 0.198692 113.043 0.538321 112.268 0.491133C112.527 0.538682 112.788 0.586457 113.043 0.634386C112.77 0.381334 113.447 0.578008 113.803 0.582549C116.084 0.615999 114.559 0.404257 114.953 0.336867C115.587 0.231643 115.097 0.625019 116.037 0.539747C116.125 0.532825 114.992 0.305719 117.208 0.504456C116.88 0.495829 116.553 0.487832 116.225 0.480458C116.409 0.720477 117.408 0.517527 117.484 0.518788C118.357 0.530206 117.765 0.582033 119.065 0.532265C119.181 0.527962 119.432 0.59816 119.68 0.583982C120.706 0.525939 118.329 0.438089 118.265 0.343829C118.237 0.293803 120.792 0.450327 120.876 0.479841C121.243 0.596752 119.721 0.452208 120.008 0.587948C120.11 0.630074 123.742 0.777872 124.472 0.884503C125.311 0.999849 125.674 1.3294 125.698 0.993433C125.918 1.34205 126.14 1.13359 126.248 1.1447C127.545 1.28118 127.543 1.28483 128.657 1.35219C128.903 1.36752 129.103 1.48468 129.191 1.47602C129.243 1.47067 129.155 1.35686 129.405 1.34749C129.752 1.33319 131.814 1.64451 131.963 1.71898C132.112 1.79141 131.087 1.65547 131.264 1.7684C132.007 1.85151 132.723 1.90214 133.471 1.99258C133.779 2.03035 133.615 2.0782 133.749 2.09395C133.805 2.10025 134.878 2.16187 134.835 2.13355C134.737 2.06124 131.422 1.74723 132.304 1.72532C132.474 1.7206 133.058 1.93415 132.978 1.7412C135.922 2.09789 138.882 2.50582 141.813 2.9624C140.118 2.85305 138.211 2.48541 136.437 2.28507C136.193 2.25706 135.373 2.14351 135.464 2.24641C136.97 2.44301 138.853 2.63245 140.298 2.88724C140.344 2.89537 140.166 2.95183 140.337 2.9877C140.657 3.05375 141.724 3.07252 141.897 3.1311C141.926 3.14274 141.315 3.16256 141.49 3.25399C141.937 3.48783 142.1 3.13087 142.502 3.19341C142.812 3.24023 144.879 3.72939 145.414 3.70126C145.984 3.66796 143.883 3.39412 144.05 3.32127C145.478 3.43725 146.911 3.77437 148.239 3.98669C148.262 3.99041 148.069 3.88105 148.368 3.92115C148.888 3.99136 149.008 4.12065 149.257 4.181C149.526 4.24541 150.489 4.4004 150.611 4.46189C150.627 4.46976 150.416 4.53838 150.386 4.53612C149.961 4.50473 149.834 4.34429 149.796 4.33577C149.654 4.30553 149.505 4.33277 149.375 4.30709C149.162 4.26475 149.05 4.19628 148.768 4.14345C148.573 4.10692 148.748 4.2316 148.56 4.19533C148.491 4.18167 147.776 3.84356 147.675 4.04933C147.643 4.09713 153.731 5.26648 154.348 5.35388C153.831 5.2276 153.31 5.1021 152.792 4.97852C153.846 5.23852 155.144 5.32545 155.19 5.58665C159.104 6.38295 163.003 7.27891 166.876 8.27824C167.565 8.47335 167.154 8.51705 168.3 8.76886C168.019 8.64843 167.734 8.52739 167.45 8.40693C168.032 8.58511 170.582 9.32578 171.006 9.41548C171.061 9.42667 171.167 9.32213 171.812 9.49011C172.384 9.63979 172.451 9.75792 172.751 9.86123C173.003 9.94786 173.296 10.0058 173.371 10.0325C173.428 10.0532 173.436 10.1154 173.574 10.1651C174.008 10.3218 173.691 10.0629 174.082 10.3683C173.973 10.3443 173.865 10.3204 173.756 10.2966C174.282 10.4756 174.988 10.7678 174.193 10.5807C174.056 10.5487 174.186 10.5286 174.086 10.4998C170.14 9.39622 173.262 10.3808 174.664 10.7003C174.999 10.8795 176.982 11.4181 177.043 11.4559C177.128 11.5054 176.774 11.465 177.201 11.6518C177.291 11.6868 179.936 12.462 178.958 12.2678C178.757 12.2266 177.501 11.8167 177.195 11.7288C177.865 12.105 179.61 12.3959 179.797 12.4642C180.55 12.729 178.294 12.1419 180.002 12.7001C181.315 13.1334 180.11 12.6339 180.63 12.7508C180.924 12.8161 182.374 13.4162 182.378 13.2559C182.89 13.4087 182.569 13.388 182.63 13.4144C182.689 13.439 183.7 13.7294 184.014 13.8708C184.052 13.888 183.904 13.9214 183.943 13.9414C184.018 13.978 184.984 14.2916 185.024 14.2993C185.05 14.3034 184.843 14.159 184.942 14.1756C185.058 14.1946 185.976 14.5322 186.033 14.5321C186.115 14.5288 184.968 14.1492 185.182 14.1428C185.702 14.3433 186.574 14.5976 186.94 14.6648C186.85 14.6506 186.34 14.4715 186.165 14.4032C186.283 14.326 187.377 14.72 186.975 14.6688C187.227 14.7096 187.073 14.6277 187.221 14.634C187.26 14.6359 187.598 14.756 187.67 14.7617C187.679 14.7612 187.344 14.5953 187.421 14.5995C187.561 14.6062 188.581 14.9905 188.661 15.0321C188.887 15.1471 188.041 14.8733 187.957 14.8923C187.944 14.8953 188.624 15.2409 188.632 15.2525C188.646 15.3481 187.877 15.0011 187.942 15.1074C188.132 15.1939 188.322 15.2805 188.511 15.3673C187.734 15.1639 186.353 14.629 185.965 14.5898C187.091 14.9555 188.257 15.3849 188.189 15.5726C188.161 15.6516 187.664 15.5254 187.675 15.5526C187.721 15.6503 188.416 15.812 188.439 15.8251C188.458 15.8369 188.466 15.8445 188.464 15.8487C188.464 15.8487 188.464 15.8487 188.464 15.8487C188.45 15.8902 187.488 15.5789 187.433 15.5821C187.341 15.5884 187.716 15.8814 187.705 15.9125C187.688 15.9132 186.999 15.7075 187.208 15.8434C187.421 15.9802 188.013 16.1917 188.032 16.2051C188.134 16.2777 187.086 15.9412 187.049 15.9509C187.029 15.9551 187.565 16.2116 187.575 16.2348C187.583 16.2572 187.147 16.1468 186.961 16.1447C186.823 16.1429 187.174 16.3005 187.108 16.2848C187.061 16.2726 186.082 15.934 186.031 15.9256C185.955 15.9119 186.168 16.0403 186.131 16.0413C186.077 16.043 185.767 15.9173 185.802 15.9498C185.828 15.9737 186.996 16.5649 186.973 16.6079C186.932 16.6799 185.696 16.0584 186.799 16.7774C186.806 16.7822 187.108 16.8612 187.115 16.866C187.277 16.9843 186.306 16.7479 187.462 17.1278C185.288 16.494 187.156 17.1526 186.795 17.1748C186.655 17.1829 185.818 16.9259 185.812 16.9326C185.871 17.0237 186.152 17.062 186.231 17.1236C186.275 17.1572 185.509 16.9785 185.662 17.0783C185.74 17.1292 186.531 17.3834 186.562 17.3991C186.86 17.5452 186.462 17.4616 186.521 17.5141C186.559 17.5489 187.034 17.7099 187.045 17.7177C187.062 17.7315 186.39 17.595 186.246 17.5791C186.137 17.5669 186.509 17.7279 186.434 17.7137C185.986 17.6273 185.121 17.1844 185.933 17.6753C185.982 17.7052 186.317 17.8099 186.326 17.8156C186.512 17.9405 185.898 17.7435 185.772 17.7551C185.556 17.7746 186.453 18.0168 185.701 17.8349C186.232 18.0667 186.539 18.1644 187.187 18.3637C185.393 17.8144 184.695 17.8276 186.672 18.4632C186.045 18.2541 186.074 18.3953 185.886 18.3367C185.769 18.2998 184.898 17.8905 185.227 18.2889C185.268 18.3384 185.835 18.4733 185.639 18.4853C184.317 18.0459 185.597 18.519 185.595 18.5286C185.526 18.6722 182.323 17.5391 181.758 17.3986C181.103 17.2272 180.489 17.1902 180.346 17.1495C179.879 17.0153 180.287 17.0609 180.19 17.0067C180.091 16.9507 178.725 16.7015 178.661 16.6776C178.412 16.5777 178.697 16.5712 178.672 16.5598C178.368 16.4198 176.565 15.9939 176.07 15.8449C176.071 15.9013 177.073 16.1738 176.422 16.0905C175.665 15.9954 175.689 15.7528 175.673 15.7372C172.333 14.8586 168.955 14.059 165.572 13.3436C165.584 13.486 167.819 13.8644 167.863 13.8959C168.137 14.0593 164.398 13.2526 163.948 13.1192C164.291 13.2201 164.633 13.3215 164.975 13.4236C164.344 13.4567 163.072 12.9843 162.195 12.8879C161.911 12.857 162.432 13.0227 162.42 13.0248C162.094 13.0262 161.603 12.882 161.996 12.8701C161.215 12.8039 161.346 12.7366 160.761 12.6194C160.731 12.6136 160.969 12.726 160.5 12.667C160.282 12.6389 159.117 12.4274 158.949 12.4587C158.88 12.472 159.419 12.8347 159.537 12.6265C160.779 12.9635 159.961 12.5993 160.45 12.6944C160.525 12.7101 160.327 12.7979 161.571 12.9729C161.29 13.1463 159.908 12.7208 159.656 12.704C159.144 12.6685 161.188 13.157 161.602 13.0607C161.389 13.1983 161.744 13.1109 162.203 13.2066C162.706 13.3115 162.475 13.3196 162.748 13.3728C163.493 13.5198 163.21 13.3404 163.802 13.5697C163.275 13.1184 164.865 13.7384 165.326 13.9244C164.539 13.7788 163.752 13.6381 162.965 13.5022C163.006 13.5284 163.047 13.5546 163.088 13.5808C162.882 13.5381 162.676 13.4956 162.471 13.4534C162.507 13.443 162.544 13.4325 162.581 13.4221C161.493 13.3271 161.26 13.1577 161.174 13.1394C160.063 12.9169 158.763 12.6859 157.628 12.4929C157.458 12.4644 157.553 12.5957 156.328 12.3015C155.938 12.2082 156.328 12.1795 155.877 12.1199C155.271 12.2734 155.317 12.081 155.15 12.0539C154.671 11.9779 154.368 11.994 154.324 11.9878C153.73 11.9057 152.867 11.7657 152.21 11.6801C152.198 11.6793 152.525 11.8055 152.104 11.7214C151.957 11.6923 150.673 11.1675 149.488 11.1203C149.788 11.1836 150.088 11.2474 150.389 11.3117C150.036 11.2268 147.521 10.9878 148.119 11.1583C148.485 11.2601 149.434 11.163 149.502 11.385C148.682 11.1994 144.064 10.7512 143.708 10.6736C143.66 10.6611 143.975 10.6237 143.907 10.6074C143.855 10.5941 142.795 10.4987 142.659 10.4577C142.577 10.4327 143.05 10.438 143.015 10.4086C142.984 10.3862 141.668 10.2201 141.582 10.3032C141.91 10.2989 142.817 10.4237 142.33 10.4498C142.267 10.4529 141.956 10.3632 141.88 10.3677C141.174 10.4076 143.246 10.589 143.567 10.6267C142.25 10.5995 140.265 10.2708 138.744 10.217C138.141 10.088 139.664 10.1802 138.978 10.0568C137.557 9.80157 138.585 10.1289 138.539 10.1344C138.175 10.1806 137.005 9.66709 136.972 9.98347C136.457 9.89515 136.629 9.86756 135.892 9.85368C135.986 9.88295 136.08 9.91225 136.175 9.94156C135.343 10.0638 133.668 9.47848 133.799 9.45074C134.155 9.37769 135.038 9.59154 135.114 9.59366C135.228 9.59661 135.573 9.29461 136.787 9.68178C137.317 9.50594 134.832 9.38168 135.974 9.32199C135.209 9.2816 132.097 8.91336 131.629 8.98742C131.574 8.99707 131.808 9.23348 131.04 9.07493C130.676 8.99944 131.565 9.0489 131.401 8.98847C130.89 8.77769 123.834 8.55787 122.488 8.561C122.401 8.55908 122.436 8.4871 122.351 8.48562C122.088 8.48047 121.127 8.56832 120.66 8.52669C121.625 8.68019 119.741 8.65686 119.26 8.63789C118.527 8.60642 118.577 8.47652 118.261 8.44545C117.042 8.32349 115.152 8.63933 114.214 8.34943C114.261 8.64402 112.589 8.21575 111.813 8.22379C111.209 8.2291 110.336 8.44472 111.148 8.55107C110.109 8.55527 109.018 8.63752 108.048 8.68474C107.888 8.69257 108.108 8.59581 107.834 8.61203C107.809 8.61418 107.776 8.70363 107.542 8.72018C105.607 8.86165 106.548 8.64202 106.182 8.59833C105.977 8.57431 105.826 8.56421 105.715 8.56314C106.854 8.50321 108.149 8.43177 108.5 8.42048C108.198 8.23097 106.001 8.53178 105.342 8.50648C105.32 8.50538 105.396 8.39335 105.373 8.39344C105.373 8.39345 105.372 8.39347 105.372 8.39349C105.127 8.39286 103.576 8.49693 103.899 8.61512C103.986 8.64649 104.699 8.61521 105.547 8.5719C105.318 8.60489 105.491 8.72062 105.451 8.72735C104.961 8.80608 103.758 8.7374 103.333 8.74098C103.235 8.74186 103.245 8.82069 103.229 8.82161C102.842 8.82182 102.994 8.5877 102.604 8.84034C101.896 8.59093 103.914 8.73673 103.768 8.56181C103.649 8.41791 99.2035 8.72073 99.2167 8.95605C99.2002 8.93278 99.1372 8.90645 99.0093 8.8799C98.7252 8.82015 97.4798 8.92292 97.2677 8.98009C97.2318 8.99078 97.2571 9.21148 97.2123 9.21658C97.1 9.22884 95.5739 9.16032 95.0174 9.33628C95.324 9.34461 95.6308 9.35328 95.9379 9.36228C94.0954 9.50101 94.386 9.54949 95.0018 9.56824C95.0325 9.56649 95.0628 9.5727 95.0921 9.57137C95.5699 9.58434 96.1826 9.58694 96.1928 9.60388C96.2284 9.66429 93.1157 9.94942 93.7026 9.69343C93.7838 9.6573 95.2312 9.6366 94.5085 9.54405C94.3815 9.52739 93.4601 9.64427 93.4092 9.63228C93.078 9.54767 95.0905 9.24309 94.8356 9.10907C94.3506 9.29329 93.7215 9.26472 93.1537 9.34924C92.8957 9.38762 92.8395 9.50645 92.8077 9.51123C92.3327 9.58076 92.5927 9.43929 92.4336 9.4556C92.3479 9.46418 91.4274 9.79996 91.5808 9.4337C88.5165 9.97039 90.7415 9.76281 92.6382 9.58242C92.0462 9.75964 90.8699 9.80231 90.3476 9.88114C90.1602 9.90947 90.2802 10.0168 89.9644 10.0704C89.3138 10.177 86.1943 10.3581 85.3689 10.4198C85.8657 10.3224 85.7078 10.2075 85.322 10.2586C84.9364 10.3101 85.2768 10.4497 85.2031 10.4768C85.1232 10.5042 83.3087 10.6268 83.0126 10.6864C84.3633 10.4639 84.0447 10.368 82.8913 10.4881C83.0539 10.4305 83.2167 10.3731 83.3798 10.3159C82.7081 10.4467 81.2749 10.4142 80.8903 10.5234C80.8296 10.5407 81.0633 10.6254 81.0288 10.6352C80.6885 10.7248 79.5033 10.7588 79.4535 10.8046C79.4109 10.8426 79.9205 10.873 79.7403 10.9433C79.7027 10.9581 79.2044 10.8673 78.7357 10.967C78.5619 11.0039 78.6795 11.097 78.6361 11.1091C78.2741 11.2095 78.4704 10.9999 77.8021 11.119C77.3129 11.2067 76.9683 11.4342 76.2854 11.4703C78.535 11.3879 76.6527 11.5505 75.7364 11.7529C75.5887 11.7855 75.7432 11.9627 74.8419 11.9971C76.6877 11.3661 74.2789 11.8852 73.7713 11.9593C73.7437 11.9622 73.7173 11.8328 73.4714 11.8675C73.4506 11.8708 73.4919 11.9547 73.2647 11.9959C71.1145 12.3904 72.4816 12.079 72.0598 12.0541C71.8799 12.0432 70.8519 12.3336 70.5724 12.3822C70.508 12.3929 70.5245 12.2951 70.2756 12.3388C69.8351 12.4165 69.4552 12.5805 69.1665 12.6363C69.1323 12.6426 69.112 12.4944 68.559 12.6354C68.4038 12.675 68.2353 12.7571 68.4645 12.7623C69.2325 12.7758 70.5666 12.3115 71.4199 12.3193C72.1921 12.3245 69.8132 12.7164 69.6928 12.7395C69.6476 12.7473 70.1 12.5984 69.6278 12.661C69.2287 12.7139 68.5194 13.0934 67.9067 13.1414C67.8599 13.1451 67.3444 13.0105 67.3647 12.994C67.3832 12.9811 68.1189 12.8077 68.0019 12.7633C67.9878 12.7583 67.5158 12.8398 67.4473 12.8035C67.3634 12.7594 67.0754 12.2339 66.9723 12.2367C66.7083 12.2457 66.8961 12.3451 66.7276 12.3646C66.3656 12.4065 65.1008 12.4544 65.0922 12.6576C65.2981 12.6333 65.5042 12.6092 65.7105 12.5852C64.5769 12.8039 65.0752 12.803 64.92 12.8679C64.7534 12.9383 64.7745 12.7574 64.3902 12.8092C64.3054 12.8195 62.7208 13.1443 62.7547 13.214C63.63 12.9343 63.3286 13.2103 63.3722 13.2061C63.5284 13.1918 63.7055 13.0361 63.913 13.0012C65.374 12.7582 63.9337 13.2107 64.2858 13.1976C64.4068 13.1925 64.6265 13.0481 64.6777 13.0443C64.844 13.032 64.8679 13.165 64.9753 13.1347C65.2262 13.0643 64.8987 12.9285 64.9173 12.9151C65.1261 12.7564 66.0442 12.7463 65.5193 13.049C65.8649 13.0638 65.8655 12.8083 66.1465 12.8614C66.705 12.9661 65.9059 13.0533 65.6975 13.124C64.95 13.378 64.7072 13.3225 63.6354 13.5527C63.2534 13.6348 62.8024 13.8448 62.6219 13.8858C62.5074 13.9117 61.3507 13.6896 61.434 14.3653C61.0035 14.3818 60.2697 14.0673 59.8429 14.1718C59.4601 14.2662 59.6252 14.4805 59.5908 14.4968C59.5381 14.5221 59.0694 14.5961 58.9185 14.6616C58.7417 14.7385 58.8498 14.8112 58.5651 14.9075C57.8575 15.1476 57.8326 14.8995 57.7552 14.8987C56.847 14.8942 57.2928 15.1649 57.104 15.233C56.9241 15.2948 54.3715 15.6967 53.8666 15.9036C54.0711 15.8069 54.2761 15.7104 54.4817 15.6142C54.0662 15.5428 53.7092 15.8844 53.6473 15.6082C53.6576 16.0737 52.8088 15.9484 52.5748 16.0128C52.4826 16.0384 52.5054 16.1135 52.3896 16.1429C51.9399 16.2574 50.8722 16.436 50.6329 16.5326C49.5814 16.9517 52.4251 16.5906 52.6303 16.5639C52.2066 16.6513 49.7469 17.3281 50.9287 17.2821C51.1106 17.2748 51.3796 17.0003 51.4768 16.9698C52.1347 16.7643 51.646 17.0661 51.7019 17.0714C51.7958 17.0787 52.2039 16.8023 52.3204 16.7977C52.3598 16.7957 52.1483 17.0151 52.7739 16.8763C52.5115 17.1006 50.6825 17.3876 50.4622 17.4801C50.3827 17.5133 50.9716 17.731 49.3865 17.7596C49.4108 17.7872 49.4351 17.8148 49.4594 17.8424C48.62 18.0572 47.788 18.2743 46.9601 18.4943C47.0346 18.3977 47.4697 18.1336 46.8862 18.3113C46.5434 18.4155 46.8367 18.5166 46.8061 18.5292C46.4746 18.6465 41.0949 19.985 40.0229 20.3127C39.666 20.4163 38.7114 20.827 38.6379 20.8508C38.1877 20.9903 36.6006 21.3481 36.2693 21.4652C36.0718 21.5357 36.2998 21.6229 36.1189 21.6681C35.9508 21.71 36.0871 21.5223 36.0362 21.5308C35.6005 21.5978 32.5953 22.6883 31.8414 22.7828C32.2974 22.6824 34.4196 21.7463 34.3563 21.6626C34.3428 21.6521 33.7738 21.7065 33.6768 21.791C33.46 21.7253 32.9317 22.279 32.5735 22.3101C32.533 22.3135 32.6267 22.0621 32.0119 22.2079C31.7993 22.2583 31.2775 22.5917 30.6671 22.5839C29.87 22.9148 25.5993 23.9902 25.367 24.3233C25.3618 24.338 25.9794 24.2193 25.6062 24.4444C25.1116 24.7438 25.4625 24.1712 24.8328 24.3409C24.7339 24.366 23.0466 24.9816 23.0037 25.0266C22.5674 25.4349 24.0691 25.0263 24.0593 25.0606C24.0241 25.1469 22.8254 25.6036 22.7539 25.6107C22.7007 25.6101 23.6309 24.9472 22.4307 25.4898C22.5842 25.478 22.7381 25.4662 22.8922 25.4543C22.3312 25.7273 22.2091 25.5318 22.064 25.5673C21.6137 25.6768 21.2504 26.1681 20.432 26.0067C20.2153 25.9635 20.4778 25.7377 20.45 25.7296C20.1838 25.662 20.0331 26.1474 19.6126 25.9746C19.5816 25.9617 20.2795 25.5191 18.9589 25.9898C19.0587 25.9851 19.1585 25.9804 19.2585 25.9757C19.1026 26.0996 17.7491 26.6301 17.5588 26.6843C17.0085 26.8377 17.4066 26.4666 16.878 26.6876C17.3121 26.8351 15.7092 27.4716 15.7224 27.2003C15.6029 27.5804 14.1724 27.8632 13.507 28.1131C13.094 28.2672 12.3198 28.7206 12.1884 28.7556C12.0269 28.7981 11.9981 28.5752 11.7027 28.6401C11.6116 28.6608 10.8713 29.1286 10.0256 29.2269C9.86555 29.2448 9.4297 29.0198 9.66469 28.8241C10.0729 28.4869 11.0421 28.4227 10.948 28.2246C10.8654 28.0049 9.73543 28.6055 9.40998 28.7057C7.9151 29.161 8.65849 28.5871 8.59311 28.5315C8.42894 28.3986 7.65129 28.7237 7.61444 28.7215C7.45311 28.7079 7.94933 28.3451 7.91759 28.2366C7.87336 28.0957 7.02711 28.1557 7.17924 28.0397C7.39532 27.8744 8.17127 27.7977 8.21258 27.7698C8.7402 27.4034 7.82333 27.4077 7.54628 27.34C7.46165 27.3188 7.69379 27.1341 7.63368 27.1422C6.71756 27.2664 7.63074 27.6579 7.06448 27.8382C6.56204 27.999 7.1064 27.5338 7.08406 27.5299C7.0541 27.5273 6.46743 27.7547 6.34855 27.7182C6.28296 27.6999 7.65014 26.6748 7.52134 26.5195C7.04173 26.7575 6.56958 26.9952 6.105 27.2325C5.97196 27.0113 6.73713 26.9017 6.80122 26.8477C6.92809 26.7396 6.4736 26.7849 6.46171 26.703C6.45174 26.6516 6.86411 26.2885 6.40371 26.3932C6.23907 26.4316 6.02189 26.7122 5.38154 26.7772C7.20013 25.7847 5.82747 26.1894 5.74381 26.1251C5.65504 26.0635 6.47634 25.5029 5.39826 25.979C5.16393 25.5385 5.36758 25.822 5.64241 25.6172C5.98481 25.3648 5.03749 25.5666 6.4859 25.1228C6.31679 24.9401 5.20674 25.401 5.13446 25.4112C5.07613 25.4166 5.28877 25.2078 5.1842 25.2081C3.91738 25.2346 4.74886 25.1204 4.32318 24.9826C4.28359 24.9704 3.21391 25.2906 3.98239 24.9327C5.42127 24.2693 6.06244 24.3748 6.05987 23.6229C4.92103 23.7373 3.79386 24.6802 3.47843 24.8187C2.99335 25.0286 3.44542 24.6883 3.37004 24.6755C3.34363 24.672 2.92751 24.8549 2.91796 24.8465C2.39308 24.4751 4.84295 24.0551 5.44498 23.7228C5.23479 23.7192 5.02523 23.7154 4.81632 23.7115C5.05829 23.6125 5.30198 23.5135 5.54737 23.4143C4.31976 23.7222 5.48013 23.3736 5.61948 22.8564C5.65025 22.7403 4.93368 23.1961 5.72253 22.6016C5.04476 22.7963 5.21998 22.6332 4.67891 22.9755C4.62613 22.8079 5.88301 22.1114 6.39415 21.8254C4.43768 22.3622 5.74796 22.541 4.01759 22.8537C3.79238 23.1743 4.55894 22.8275 4.50335 22.8879C4.34452 23.0876 3.70233 23.1204 3.23083 23.7953C3.15436 23.906 3.68171 23.9382 3.02418 24.1923C2.95119 24.2201 2.46434 24.2079 2.4649 24.1925C2.4607 24.029 2.89234 23.9156 2.88561 23.8498C2.87825 23.7876 2.43453 24.0066 2.42712 23.9918C2.33979 23.8206 2.78053 23.7695 2.70044 23.7374C2.5273 23.6675 0.722342 23.9524 2.92225 23.1947C1.21444 24.117 2.76323 23.4831 3.44493 23.1238C3.61844 23.0325 3.62168 22.9088 3.86756 22.7695C4.19632 22.5851 4.56836 22.499 4.73184 22.4133C4.90345 22.3228 3.78414 22.4669 5.28995 21.9726C4.45072 22.0073 3.19025 22.8064 2.36828 22.9351C0.71646 23.1878 3.24365 22.0851 3.52136 21.9427C3.59095 21.9049 3.28811 21.8584 3.33344 21.8305C3.43034 21.7754 4.8753 21.2949 4.97902 21.1219C5.07526 20.9502 4.45068 21.3291 4.35889 21.2234C4.2901 21.1524 5.99577 20.3418 5.01879 20.6451C4.34386 20.8531 3.29051 21.6434 2.92089 21.3754C3.91656 20.953 4.81132 20.5801 5.79362 20.1813C5.20408 20.2454 4.62031 20.309 4.04234 20.372C5.10093 19.922 6.11987 19.7192 7.11322 19.1402C4.39345 19.6349 7.81096 18.493 7.80028 18.4436C7.79566 18.4095 6.70947 18.3976 6.50636 18.3982C7.31967 17.9471 9.9713 16.9593 8.24445 17.0683C8.56367 17.0674 9.17243 16.5882 9.15749 16.5732C8.99552 16.4126 7.53289 17.0556 7.71621 16.7982C7.92573 16.4997 8.42483 16.6342 8.8593 16.4616C11.1196 15.5706 10.1012 14.8005 12.4404 14.224C12.3828 14.2032 12.3251 14.1825 12.2675 14.1618C14.8217 13.4101 17.2684 12.7362 19.7938 12.0723C20.6426 11.5022 23.272 10.5805 24.5192 10.2898C24.7751 10.2282 26.0834 10.0507 26.1882 10.0528C26.3798 10.058 25.4121 10.3321 25.8796 10.3138C25.9736 10.3086 28.1545 9.8152 27.9571 9.6929C27.7069 9.73589 26.9699 10.0129 26.8356 10.0066C25.9057 9.93656 32.5634 8.51223 32.8934 8.33755C32.7307 8.32051 32.5682 8.30345 32.4058 8.28639C32.8335 8.21261 33.2771 8.13559 33.6942 8.06625ZM19.0347 26.7113C18.8742 26.9588 18.2306 27.0503 17.9034 27.2242C17.4459 27.466 16.8725 28.4184 16.9914 27.635C17.6616 27.3267 18.3662 27.0109 19.0347 26.7113ZM29.3401 23.4977C28.8427 23.5589 29.1054 23.0883 29.5368 23.1136C29.585 23.1169 30.0141 23.4142 29.3401 23.4977ZM24.3417 24.945C24.3597 24.9336 24.7671 24.8071 24.7832 24.808C25.19 24.8299 23.9627 25.2109 24.3417 24.945ZM48.5364 17.7967C48.0079 17.9399 48.4583 18.1502 48.7622 17.9452C48.7813 17.9323 48.5713 17.7876 48.5364 17.7967ZM48.1565 17.8803C47.6838 17.7076 46.9793 18.464 47.624 18.2465C47.6862 18.225 48.1782 17.8887 48.1565 17.8803ZM27.6281 23.8912C27.6474 23.7631 28.1443 23.6619 28.3587 23.6224C28.3824 23.7253 27.825 23.8138 27.6281 23.8912ZM40.0832 20.1515C40.0813 20.0609 38.3591 20.5409 38.2739 20.6859C38.5294 20.5624 40.0802 20.2321 40.0832 20.1515ZM44.4872 18.8607C44.4396 18.8575 43.8468 19.0334 43.8815 19.1023C44.1948 19.123 44.7001 18.8748 44.4872 18.8607ZM53.3671 16.7315C53.3964 16.7066 52.8557 16.3542 53.9816 16.4145C54.1468 16.4231 53.6106 16.6656 53.6696 16.6695C53.7923 16.6751 53.8873 16.6692 53.9618 16.6554C53.4722 16.8035 52.9626 16.9376 52.9075 16.9214C52.6482 16.8444 53.3539 16.7421 53.3671 16.7315ZM57.9988 15.3848C58.0876 15.2909 58.7496 15.1953 58.9046 15.1948C58.9312 15.1952 58.8536 15.408 59.1465 15.3335C59.3819 15.2735 58.9921 15.151 59.4608 15.0884C59.9347 15.0252 59.3335 15.2898 59.3764 15.2916C59.4331 15.2932 60.1426 15.0601 60.1401 15.1775C60.1377 15.2642 59.3516 15.3645 59.1637 15.4216C58.9229 15.4946 59.2447 15.5734 58.8305 15.6275C58.5704 15.6616 58.6682 15.3863 58.6118 15.385C58.564 15.384 57.6943 15.7116 58.0004 15.3853C57.9999 15.3851 57.9993 15.385 57.9988 15.3848ZM54.0941 16.6144C54.0583 16.6312 54.0153 16.6454 53.9618 16.6554C54.0062 16.6419 54.0504 16.628 54.0941 16.6144ZM20.3264 26.1123C20.5958 26.1118 19.9149 26.4762 19.6099 26.4608C19.5745 26.3721 20.2828 26.1127 20.3264 26.1123ZM54.5161 16.3088C55.2701 16.2089 54.7398 16.4136 54.0941 16.6144C54.2933 16.521 54.2632 16.3427 54.5161 16.3088ZM33.6768 21.791C33.7127 21.8018 33.7404 21.8271 33.7567 21.8774C33.6615 21.8455 33.6462 21.8176 33.6768 21.791ZM35.3989 21.3829C35.9444 21.0583 34.7549 21.4099 34.7932 21.5189C34.8077 21.5596 35.3767 21.3958 35.3989 21.3829ZM49.2235 17.6468C49.1665 17.6452 49.9092 16.9984 48.7642 17.6243C49.4241 17.5215 48.7502 17.7342 48.7689 17.7711C48.8188 17.877 49.8865 17.508 50.1405 17.4996C50.288 17.2541 49.4109 17.6515 49.2248 17.6465C49.2244 17.6466 49.2239 17.6467 49.2235 17.6468ZM66.5006 13.8558C66.3673 13.9933 65.8857 14.0431 65.5644 14.0949C65.6965 13.9564 66.1777 13.9065 66.5006 13.8558ZM151.688 11.6848C149.453 11.44 149.211 11.1142 151.229 11.5091C151.268 11.517 151.828 11.6751 151.688 11.6848ZM132.556 9.67525C132.356 9.52003 133.057 9.54041 133.508 9.62898C133.611 9.64896 133.98 9.8168 133.541 9.81635C133.57 9.64614 132.902 9.53639 132.556 9.67525ZM54.9098 16.0856C55.0995 15.9016 55.7861 15.855 56.1432 15.8003C55.9487 15.9582 55.2281 16.0608 54.9098 16.0856ZM144.396 10.6073C144.162 10.5711 143.988 10.6685 144.027 10.6824C144.203 10.7457 144.656 10.702 144.396 10.6073ZM52.7678 16.5379C52.7205 16.462 53.5795 16.1876 53.6812 16.3773C53.4906 16.404 52.7995 16.5846 52.7678 16.5379ZM65.8854 13.9054C65.7411 13.8901 66.4447 13.6907 66.6679 13.6922C66.663 13.7784 65.9796 13.9149 65.8854 13.9054ZM140.605 10.2578C140.396 10.2275 139.871 10.1759 139.808 10.2184C139.729 10.2713 140.501 10.3215 140.605 10.2578ZM179.363 17.2682C179.384 17.2904 178.558 17.1822 178.214 17.0583C177.561 16.8201 179.338 17.2472 179.363 17.2682ZM146.632 10.8072C147.278 10.9943 146.559 10.8016 146.572 10.9179C147.016 10.9746 148.122 11.1184 147.377 10.9135C147.232 10.8737 146.839 10.8394 146.632 10.8072ZM146.026 10.6961C145.949 10.7241 145.454 10.784 145.869 10.8241C146.062 10.8424 146.389 10.7511 146.026 10.6961ZM174.437 15.9978C173.88 15.7688 176.525 16.4948 176.598 16.5329C176.636 16.5508 176.66 16.5646 176.674 16.5743C176.778 16.5753 177.281 16.7051 177.321 16.7826C177.172 16.737 176.76 16.6332 176.714 16.6138C176.695 16.6054 176.68 16.5986 176.67 16.593C176.478 16.5976 174.545 16.0389 174.437 15.9978ZM170.031 14.8421C170.73 14.8755 170.795 15.1106 170.736 15.1034C169.987 15.0183 170.5 14.9766 170.48 14.9643C170.432 14.9403 169.897 14.8915 170.033 14.8426C170.032 14.8424 170.031 14.8423 170.031 14.8421ZM173.544 15.7384C173.572 15.7424 174.127 15.888 174.149 15.8971C174.587 16.0783 173.015 15.6673 173.544 15.7384ZM61.49 14.4037C61.9017 14.364 61.5284 14.5831 61.251 14.5842C61.2282 14.5835 61.127 14.4387 61.49 14.4037ZM145.695 10.6825C145.602 10.6509 143.178 10.3127 143.307 10.4735C143.515 10.4746 146.269 10.8608 145.695 10.6825ZM127.503 9.21036C127.933 9.22975 127.455 9.35838 127.23 9.29386C127.146 9.26979 127.395 9.20552 127.503 9.21036ZM51.5411 16.6166C51.1265 16.8326 51.137 16.4236 51.5448 16.47C51.5609 16.4718 51.5573 16.6082 51.5411 16.6166ZM130.933 9.46192C129.442 9.47211 129.826 9.02166 131.748 9.29088C131.686 9.30772 131.624 9.32459 131.561 9.34153C133.788 9.54602 131.711 9.38096 131.163 9.37701C130.955 9.37511 131.123 9.46184 130.934 9.46255C130.934 9.46234 130.933 9.46213 130.933 9.46192ZM125.243 9.11622C123.826 8.729 126.556 9.04098 127.333 9.0334C126.568 9.13967 125.586 9.08354 126.915 9.27627C124.956 9.23074 125.775 9.12766 125.699 9.11305C125.607 9.09713 125.303 9.13275 125.243 9.11622ZM129.009 9.26691C129.092 9.26109 129.709 9.35907 129.934 9.35983C129.612 9.45568 128.456 9.30673 129.009 9.26691ZM165.356 13.8785C165.423 13.8209 165.56 13.7966 166.037 13.924C165.88 13.9264 165.565 13.8911 165.356 13.8785ZM18.3515 26.1345C18.0252 26.2405 17.3724 26.4189 17.6172 26.4951C17.6418 26.4999 18.3773 26.2172 18.3515 26.1345ZM138.643 9.89577C138.572 9.87744 136.713 9.71592 137.346 9.86204C137.536 9.90422 139.23 10.0382 138.643 9.89577ZM148.232 10.9388C148.078 10.9179 147.449 10.8535 147.433 10.8707C147.381 10.9293 148.156 10.9908 148.232 10.9388ZM16.6947 26.5766C16.6465 26.5773 15.6996 26.9576 15.8292 26.9868C16.0708 27.0416 16.8533 26.5742 16.6947 26.5766ZM62.921 13.8369C63.006 13.8164 63.1412 13.9273 63.1711 13.9232C63.2431 13.9108 64.7746 13.5769 64.2131 13.854C64.1268 13.8972 61.871 14.2536 61.5763 14.295C61.4322 14.1342 62.4205 14.1242 62.6519 14.0616C62.6926 14.0503 62.6936 13.8933 62.9205 13.8378C62.9207 13.8375 62.9208 13.8372 62.921 13.8369ZM167.881 14.3438C167.965 14.2932 169.791 14.6626 169.751 14.7349C169.128 14.6015 168.504 14.4711 167.881 14.3438ZM166.961 14.1322C166.585 14.0033 167.496 14.1845 167.758 14.2638C167.751 14.3066 167.016 14.1506 166.961 14.1322ZM144.766 10.2322C144.577 10.2293 145.135 10.4059 145.004 10.4126C144.92 10.4165 144.51 10.3274 144.372 10.3473C144.333 10.3541 144.744 10.5062 144.867 10.5157C145.042 10.5296 144.884 10.4284 145.075 10.4498C145.707 10.521 146.262 10.6461 146.849 10.7165C146.902 10.7228 146.498 10.6151 146.951 10.6717C147.022 10.6805 147.43 10.8168 147.975 10.8734C149.214 10.7678 150.056 11.1396 151.595 11.2653C151.542 11.2326 150.412 11.0065 150.345 10.9954C149.076 10.773 146.804 10.4753 145.461 10.3187C145.117 10.278 145.276 10.3539 145.127 10.3387C145.01 10.3267 145.164 10.2383 144.766 10.2322ZM18.4884 25.9723C18.2742 25.8448 17.7737 26.1542 17.431 26.2686C17.6061 26.3897 18.1382 26.0523 18.4884 25.9723ZM158.767 12.4512C158.587 12.423 158.037 12.2976 157.986 12.3183C157.92 12.345 158.716 12.508 158.767 12.4512ZM71.7025 12.3706C71.7191 12.3637 72.1506 12.3045 72.1676 12.3069C72.5684 12.3695 71.2749 12.5469 71.7025 12.3706ZM82.0344 10.9562C82.3588 10.8981 82.6842 10.8128 82.8058 10.9186C82.5955 10.9251 82.0044 11.0439 82.0344 10.9562ZM96.3452 9.55744C96.2693 9.41546 97.2672 9.44002 97.4558 9.44059C97.3889 9.50957 96.4003 9.65899 96.3452 9.55744ZM165.354 13.567C165.951 13.6982 165.858 13.5293 166.223 13.6749C166.282 13.6993 166.413 14.0372 165.782 13.7873C165.668 13.7424 166.147 13.7691 165.354 13.567ZM132.063 9.31375C132.224 9.2432 132.709 9.29759 133.032 9.32505C132.955 9.37917 132.296 9.32204 132.063 9.31375ZM14.9245 27.0694C14.6151 26.9786 13.4148 27.589 13.7668 27.5924C13.8174 27.5903 14.7624 27.1221 14.9245 27.0694ZM56.3232 15.2395C56.8328 15.0008 55.7198 15.1924 55.3974 15.3913C55.5526 15.3495 56.2885 15.2553 56.3232 15.2395ZM92.9014 9.74691C92.9269 9.74011 93.5053 9.70273 93.5301 9.70621C94.0083 9.78094 92.378 9.88783 92.9014 9.74691ZM78.6073 11.1996C78.8015 11.0756 80.167 10.9772 80.4826 11.0344C80.2027 11.2095 78.3649 11.3529 78.6073 11.1996ZM162.885 13.108C163.312 13.1891 163.712 13.2882 164.099 13.3926C164.005 13.4239 162.922 13.1532 162.885 13.108ZM95.0018 9.56824C95.0325 9.56649 95.0628 9.5727 95.0921 9.57137C95.0614 9.57053 95.0313 9.56919 95.0018 9.56824ZM153.309 11.3987C152.954 11.3231 153.01 11.4319 153.032 11.4383C153.298 11.5106 153.711 11.4846 153.309 11.3987ZM18.003 25.8458C17.8276 25.7256 17.2909 26.0614 16.9484 26.1429C17.0877 26.2372 17.7383 25.9598 18.003 25.8458ZM123.719 8.85063C123.266 8.72016 125.137 8.6435 125.527 8.73419C125.552 8.80435 123.784 8.86665 123.719 8.85063ZM54.6316 15.371C54.5733 15.2637 53.8402 15.5667 54.0125 15.5862C54.1211 15.5984 54.6665 15.4376 54.6316 15.371ZM126.461 8.81822C126.636 8.79995 127.038 8.898 126.892 8.94155C126.704 8.99751 126.415 8.82369 126.461 8.81822ZM142.117 9.87509C142.042 9.85507 141.011 9.82857 141.424 9.9477C141.71 10.0302 141.77 9.92687 141.839 9.93359C141.916 9.941 143.541 10.2454 142.117 9.87509ZM113.305 8.68323C113.692 8.64498 114.159 8.68071 114.564 8.67588C114.398 8.73092 113.469 8.75407 113.305 8.68323ZM57.5849 14.7203C57.4808 14.6915 54.952 15.1906 56.4118 15.0331C56.4957 15.0231 57.8936 14.8009 57.5849 14.7203ZM165.354 13.567C165.279 13.5505 165.193 13.5294 165.093 13.5022C165.193 13.5255 165.279 13.5479 165.354 13.567ZM158.557 12.2448C158.705 12.2212 158.01 12.0849 157.799 12.0753C157.724 12.1231 158.537 12.2478 158.557 12.2448ZM114.596 8.58611C114.83 8.54808 115.253 8.58569 115.543 8.58097C115.493 8.64011 114.696 8.64594 114.596 8.58611ZM98.1775 9.09184C98.6441 9.10034 99.2166 9.04761 99.2222 8.96819C99.2324 8.97995 99.2556 8.99169 99.2936 9.00261C99.3313 9.01328 99.8325 8.94682 100.046 8.96154C101.352 9.03749 95.0445 9.37054 98.6869 8.91342C98.5169 8.97262 98.3471 9.03209 98.1775 9.09184ZM76.7577 11.2425C76.4845 11.1718 75.7734 11.4074 75.9673 11.423C76.1018 11.4328 77.0307 11.3132 76.7577 11.2425ZM86.8292 9.96292C86.7485 9.95264 86.0337 10.0997 86.0201 10.1558C86.4386 10.168 87.1957 10.0101 86.8292 9.96292ZM74.7451 11.3999C74.5778 11.4075 74.3894 11.6111 74.4097 11.6159C74.5851 11.6544 75.0344 11.456 74.7451 11.3999ZM164.177 13.0351C163.942 12.9555 163.154 12.8738 162.971 12.9094C162.943 12.8899 162.862 12.8559 162.713 12.8046C162.713 12.8047 162.713 12.8048 162.714 12.8049C162.517 12.7186 156.27 11.5387 160.438 12.445C160.568 12.4739 160.402 12.3773 160.933 12.4889C160.968 12.4964 160.974 12.5506 161.083 12.5737C161.332 12.6255 162.657 12.9152 162.933 12.9292C162.933 12.9389 162.949 12.9512 162.984 12.9666C163.296 13.1028 164.36 13.0956 164.177 13.0351ZM88.2465 9.80509C88.1003 9.7899 87.6479 9.8631 87.6067 9.93784C87.8344 9.94901 88.5855 9.84036 88.2465 9.80509ZM57.447 14.4129C57.1419 14.4073 56.4256 14.6808 56.661 14.6995C56.8046 14.7105 57.7979 14.4186 57.447 14.4129ZM83.6703 10.3302C85.3622 10.2235 84.0715 10.2778 84.3198 10.1447C84.103 10.2062 83.8865 10.268 83.6703 10.3302ZM171.812 14.9136C171.552 14.8358 171.893 14.7924 172.166 14.9277C172.252 14.9703 171.957 14.9567 171.812 14.9136ZM183.619 18.1106C183.428 17.9489 184.491 18.337 184.049 18.2707C184.028 18.2668 183.634 18.119 183.619 18.1106ZM175.406 15.7363C175.209 15.759 175.091 15.7368 174.596 15.5908C175.342 15.7626 174.672 15.523 175.406 15.7363ZM99.2167 8.95605C99.2199 8.96054 99.2225 8.96385 99.2222 8.96819C99.2187 8.96413 99.2171 8.96019 99.2167 8.95605ZM73.1636 11.6668C72.9385 11.5883 72.3504 11.6855 72.5406 11.7699C72.5589 11.7775 73.0879 11.7608 73.1636 11.6668ZM162.971 12.9094C162.996 12.9266 162.981 12.9314 162.933 12.9292C162.933 12.92 162.947 12.9141 162.971 12.9094ZM76.3145 11.1213C76.3031 11.205 77.2003 11.1131 77.2354 11.099C77.7329 10.8895 76.682 11.0648 76.3145 11.1213ZM51.5722 15.5367C51.5278 15.5564 51.8728 15.719 52.0343 15.5893C52.1597 15.4887 51.7383 15.4628 51.5722 15.5367ZM177.113 16.1612C177.391 16.2363 177.781 16.3435 177.838 16.4156C177.654 16.3563 177.096 16.1981 177.113 16.1612ZM183.218 17.9136C182.874 17.8726 182.132 17.6496 181.661 17.5001C181.677 17.4188 182.908 17.8377 183.218 17.9136ZM164.934 13.2276C164.911 13.2188 164.211 13.0451 164.294 13.1265C164.415 13.245 165.125 13.3021 164.934 13.2276ZM52.953 15.3583C53.249 15.213 52.4844 15.1315 52.1944 15.3879C52.0453 15.5192 52.9027 15.3826 52.953 15.3583ZM71.3072 11.8029C70.8973 11.9289 71.9486 11.8753 72.0795 11.744C71.8851 11.7648 71.4528 11.7583 71.3072 11.8029ZM85.6138 9.82025C84.2525 9.66446 85.0289 10.1321 85.2607 10.0581C85.2932 10.0475 85.647 9.82369 85.6138 9.82025ZM11.5779 27.489C11.4244 27.6094 12.1399 27.5489 12.1787 27.3903C12.2015 27.2915 11.6754 27.4122 11.5779 27.489ZM105.715 8.56314C105.659 8.56608 105.602 8.56905 105.547 8.5719C105.588 8.56591 105.643 8.56244 105.715 8.56314ZM67.4443 11.9881C68.446 12.2857 68.2967 11.9536 68.3784 11.9422C68.5545 11.9184 68.984 11.9732 69.3046 11.901C68.9414 12.0115 68.5645 12.125 68.194 12.2385C68.5106 12.2173 71.0927 11.9708 71.141 11.8916C71.204 11.7761 70.3976 11.9359 70.3731 11.9308C70.3373 11.9232 70.1703 11.6553 70.0936 11.6562C69.9717 11.6558 67.8062 12 67.4443 11.9881ZM82.837 10.1763C83.0532 10.1842 83.1243 10.2854 83.2208 10.2481C83.2536 10.2354 83.2491 10.1315 83.3618 10.0917C83.1867 10.1198 83.0118 10.148 82.837 10.1763ZM65.8414 12.6804C65.5576 12.5904 66.7431 12.4386 66.7839 12.4477C66.9993 12.5043 66.0723 12.7532 65.8414 12.6804ZM75.8577 11.0891C75.8136 11.0873 74.9066 11.1742 74.9232 11.2459C75.1677 11.2664 76.3769 11.1128 75.8577 11.0891ZM83.5035 10.0685C83.8245 10.044 84.4402 10.08 84.3563 9.93319C84.3558 9.93325 84.3554 9.9333 84.3549 9.93335C84.0707 9.97795 83.7869 10.023 83.5035 10.0685ZM53.9492 14.7589C53.3129 14.606 53.6573 14.8975 54.1901 14.8766C54.3221 14.7189 54.0534 14.7835 53.9492 14.7589ZM52.053 14.9531C51.8861 14.936 50.2046 15.3678 50.4949 15.4589C50.5963 15.4909 51.5381 15.1416 51.5857 15.1423C51.6567 15.1424 51.3798 15.3745 51.8918 15.2275C51.8518 15.1784 52.1111 14.9578 52.053 14.9531ZM53.4328 14.6843C52.8136 14.597 52.7625 15.0153 53.1957 14.9225C53.3651 14.8865 53.5212 14.6971 53.4328 14.6843ZM55.8121 14.218C55.5948 14.2248 55.0253 14.287 54.6666 14.4968C55.1822 14.3997 55.6998 14.3035 56.2193 14.2082C56.2653 14.1233 56.0021 14.2122 55.8107 14.2183C55.8111 14.2182 55.8116 14.2181 55.8121 14.218ZM186.786 18.5472C186.351 18.3498 187.398 18.674 187.438 18.7013C187.555 18.784 186.98 18.635 186.786 18.5472ZM6.63518 24.8388C6.49375 24.8371 6.34929 24.7046 6.11601 24.8963C6.43195 24.911 6.74926 24.9254 7.06795 24.9397C7.17194 24.5796 6.78968 24.8412 6.63518 24.8388ZM5.20985 24.2305C5.24521 24.2088 4.86838 23.8636 5.47131 23.9554C5.88496 24.0126 4.13587 24.9259 3.71566 24.8791C4.04288 24.6428 4.92409 24.4067 5.20985 24.2305ZM1.22756 23.6803C1.1912 23.6548 1.86196 23.3223 1.95415 23.3135C2.42997 23.2685 1.41386 23.8173 1.22756 23.6803ZM3.50333 22.8582C3.13207 22.9088 3.85991 22.5589 4.1023 22.5198C4.15877 22.5893 3.55877 22.85 3.50333 22.8582ZM183.009 14.575C182.684 14.3377 182.279 14.489 182.853 14.6183C182.88 14.6245 183.023 14.5859 183.009 14.575ZM1.72502 22.9722C2.0872 22.9228 1.38321 23.2701 1.15131 23.3093C1.09725 23.2378 1.66912 22.9802 1.72502 22.9722ZM182.844 14.2086C182.389 13.9649 182.468 14.3089 182.525 14.3398C182.758 14.4654 183.643 14.6321 183.825 14.663C182.541 14.2849 183.057 14.3239 182.844 14.2086ZM180.562 13.6673C180.102 13.5573 181.234 13.9782 181.478 13.9678C181.254 13.9002 180.692 13.6982 180.562 13.6673ZM177.855 12.7315C177.616 12.6475 176.902 12.407 176.767 12.4197C177.034 12.4887 177.739 12.7493 177.855 12.7315ZM177.347 12.4244C176.986 12.2462 176.841 12.4089 177.295 12.4824C177.312 12.4853 177.36 12.4321 177.347 12.4244ZM175.233 11.7298C175.005 11.5811 174.669 11.6873 175.071 11.8077C175.191 11.8431 175.257 11.7462 175.233 11.7298ZM182.338 13.7009C181.995 13.5542 181.501 13.5319 182.25 13.791C181.979 13.7235 181.71 13.6573 181.437 13.5908C182.405 13.98 182.385 13.7846 182.666 13.8847C183.059 14.0254 182.983 14.157 182.889 14.1754C183.241 14.194 184.62 14.6533 185.42 14.9122C184.733 14.6355 183.618 14.1898 182.934 13.9385C182.738 13.8664 182.535 13.8424 182.368 13.7829C182.1 13.6874 182.357 13.7094 182.34 13.7013C182.339 13.7012 182.339 13.701 182.338 13.7009ZM172.411 10.935C171.696 10.6447 172.112 10.9645 172.538 11.0438C172.557 11.0461 172.428 10.9422 172.411 10.935ZM0.249854 22.0557C1.27263 21.8532 0.65562 22.3671 2.54068 21.2092C1.78556 21.7989 2.5667 21.41 2.44084 21.5778C2.33896 21.7114 1.8135 21.8417 2.16974 21.8899C1.70859 21.8639 0.115495 22.5644 0.0390334 22.5641C0.0396984 22.5638 0.0403634 22.5635 0.0410284 22.5633C-0.00856476 22.5635 -0.0731119 22.1202 0.249854 22.0557ZM177.99 12.2523C177.81 11.9558 177.613 12.2796 177.186 11.9504C176.47 12.0259 178.951 12.4849 179.175 12.8026C176.575 11.9748 180.832 13.5554 179.111 12.6596C180.575 13.2479 179.615 12.7719 179.859 12.8019C180.12 12.8344 180.953 13.1536 180.935 13.0599C180.934 13.0597 180.934 13.0596 180.933 13.0594C180.413 12.8984 179.893 12.7397 179.372 12.5831C179.827 12.9173 178.783 12.5344 178.465 12.2797C178.307 12.2702 178.148 12.2611 177.99 12.2523ZM180.877 13.3325C180.827 13.3113 179.692 12.9801 179.754 13.0388C179.898 13.1065 181.506 13.5882 180.877 13.3325ZM185.811 14.9347C185.411 14.7951 184.802 14.5503 184.563 14.5391C184.964 14.6756 185.573 14.9209 185.811 14.9347ZM164.868 8.84057C164.328 8.77783 165.943 9.18082 165.491 8.99632C165.469 8.98717 164.894 8.8436 164.868 8.84057ZM176.804 11.9318C176.298 11.7067 176.485 11.9992 176.89 12.0579C176.914 12.0613 176.828 11.9421 176.804 11.9318ZM0.990049 21.6863C0.968729 21.5497 2.40634 21.0823 2.66437 20.9824C2.55975 21.153 1.00409 21.8436 0.990049 21.6863ZM186.577 14.9995C185.839 14.5422 184.688 14.3725 184.571 14.3288C184.455 14.2839 184.665 14.2694 184.639 14.2581C184.579 14.2317 183.319 13.8123 183.256 13.7985C183.211 13.7883 183.403 13.975 183.133 13.9234C183.66 14.025 185.946 14.8525 186.068 14.8853C186.164 14.9084 185.505 14.5507 186.576 14.999C186.576 14.9991 186.576 14.9993 186.577 14.9995ZM184.282 14.2039C184.582 14.3564 183.699 14.0634 183.491 13.9754C183.029 13.7779 184.244 14.1838 184.282 14.2039ZM182.175 13.4524C182.078 13.4086 181.167 13.1015 181.072 13.1297C181.487 13.3376 182.396 13.5516 182.175 13.4524ZM171.934 10.3827C171.691 10.324 171.04 10.1003 170.989 10.1412C171.232 10.1983 171.883 10.4226 171.934 10.3827ZM5.40401 18.8853C4.96964 18.9388 5.8792 18.5633 6.17109 18.5088C6.21264 18.577 5.43979 18.8808 5.40401 18.8853ZM176.845 11.4443C176.71 11.3821 173.808 10.5702 173.389 10.483C173.783 10.6292 176.647 11.4703 176.78 11.4963C176.82 11.5024 176.863 11.452 176.845 11.4443ZM183.072 13.4035C183.354 13.4248 183.5 13.5626 183.532 13.5746C183.853 13.6938 184.528 13.9087 184.36 13.9218C183.798 13.6994 182.509 13.3616 183.072 13.4035ZM171.814 9.98973C170.818 9.74584 172.696 10.3461 172.467 10.2009C172.453 10.1916 171.917 10.0148 171.814 9.98973ZM177.174 11.5211C177.407 11.5243 180.276 12.4736 180.738 12.6285C180.293 12.597 179.982 12.4128 179.424 12.2421C179.273 12.1963 179.301 12.2519 179.285 12.2469C179.024 12.1673 179.233 12.1787 179.073 12.1276C178.972 12.0923 176.847 11.5075 177.174 11.5211ZM183.236 13.4076C183.408 13.4208 185.194 14.0169 185.262 14.0539C185.774 14.3122 183.37 13.4637 183.236 13.4076ZM176.935 11.347C177.281 11.3171 178.691 11.8417 177.692 11.6C177.597 11.5768 177.216 11.4024 176.935 11.347ZM171.951 9.89626C171.903 9.87842 170.878 9.56987 170.849 9.60685C170.994 9.66194 172.494 10.0907 171.951 9.89626ZM172.521 9.9071C172.496 9.9012 172.717 10.0471 172.236 9.90214C172.196 9.89017 172.144 9.77979 171.528 9.64444C171.403 9.6171 171.196 9.62385 171.209 9.63132C171.807 9.9411 173.781 10.2132 172.521 9.9071ZM183.289 13.3541C183.203 13.288 183.467 13.2667 183.66 13.3884C183.742 13.4406 183.556 13.4431 183.289 13.3541ZM168.688 8.98078C169.305 9.06743 167.423 8.56443 167.319 8.55924C167.371 8.61797 168.627 8.97126 168.688 8.98078ZM5.91397 17.4076C5.91349 17.4078 5.91301 17.408 5.91253 17.4081C6.43905 17.2586 6.16695 17.4942 6.19243 17.4895C7.32214 17.2929 6.9302 17.1193 7.08477 17.0279C7.41212 16.8341 7.4783 17.1902 8.02773 16.8428C7.11191 17.3925 7.98215 16.9932 8.05462 17.103C8.3395 17.5539 6.66792 17.3276 6.20063 17.611C6.13711 17.6497 6.71236 17.6222 6.55132 17.7297C6.01543 18.0838 3.91107 17.9819 5.91397 17.4076ZM183.824 13.4346C184.072 13.4521 185.791 14.1142 185.314 14.0013C185.238 13.9808 183.459 13.4041 183.824 13.4346ZM99.0556 1.01519C99.4979 0.914746 98.4597 0.828432 98.2716 0.90451C98.1782 0.942234 98.8614 1.05925 99.0556 1.01519ZM91.8211 0.850587C91.2922 0.892463 90.7624 1.3142 91.4156 1.22184C91.4849 1.21167 91.8852 0.902345 91.8211 0.850587ZM126.442 1.60272C125.898 1.4413 125.919 1.66386 126.323 1.69199C126.466 1.70206 126.46 1.60784 126.442 1.60272ZM105.448 0.794873C105.392 0.786015 104.754 0.801284 104.778 0.858003C105.015 0.891405 105.807 0.854238 105.448 0.794873ZM126.618 1.58534C126.292 1.59925 126.84 1.80118 127.246 1.67934C127.044 1.67543 126.652 1.58395 126.618 1.58534ZM175.945 10.6853C175.667 10.6692 174.937 10.4321 174.505 10.3181C174.482 10.2222 175.639 10.6085 175.945 10.6853ZM94.0695 0.918275C93.5782 1.03367 94.6474 1.07365 94.5427 0.949525C94.5287 0.943003 94.0888 0.913367 94.0695 0.918275ZM144.08 3.57076C143.713 3.5792 144.841 3.83408 144.542 3.67773C144.527 3.67087 144.1 3.57017 144.08 3.57076ZM149.04 4.40324C148.772 4.33577 147.617 4.14909 148.058 4.28331C148.126 4.3036 149.011 4.45444 149.04 4.40324ZM7.06488 16.886C6.85421 16.7468 7.68556 16.5088 7.81641 16.5011C7.86668 16.4988 7.337 17.0668 7.06488 16.886ZM122.87 1.32601C122.585 1.32244 121.85 1.24695 121.718 1.30385C122.065 1.3113 122.958 1.45965 122.87 1.32601ZM96.3412 0.843114C95.8985 0.70336 95.1572 0.741598 95.3514 0.935449C96.17 0.896114 95.2402 0.758741 96.3412 0.843114ZM128.45 1.59878C128.224 1.56897 128.039 1.71591 128.064 1.72574C128.306 1.81905 128.672 1.68134 128.45 1.59878ZM111.326 0.79701C111.312 0.720676 110.578 0.738903 110.676 0.790145C110.708 0.807113 111.336 0.858439 111.326 0.79701ZM166.723 8.10675C166.408 7.97593 167.414 8.18162 167.695 8.31397C167.819 8.43048 166.763 8.12209 166.723 8.10675ZM134.754 2.2678C134.796 2.17246 133.657 2.10298 134.096 2.2343C134.207 2.26689 134.739 2.29926 134.754 2.2678ZM145.627 3.61646C144.853 3.604 148.033 4.19275 147.213 3.92327C147.155 3.90281 145.695 3.61661 145.627 3.61646ZM150.808 4.55907C150.679 4.52409 150.791 4.23769 151.313 4.45104C151.381 4.47875 151.037 4.49674 151.092 4.5253C151.125 4.54108 152.292 4.79844 152.347 4.80236C152.406 4.80543 152.353 4.69834 152.414 4.69882C152.482 4.69936 153.191 4.9184 153.57 4.99233C154.283 5.13147 154.372 5.06992 154.43 5.08094C154.599 5.11379 154.874 5.22471 155.217 5.29326C156.947 5.63424 159.605 6.14212 160.944 6.61133C159.737 6.27309 158.561 6.0867 157.344 5.85423C157.728 5.76906 155.536 5.60751 156.822 5.68269C156.244 5.58876 151.232 4.65856 150.809 4.55933C150.809 4.55924 150.808 4.55915 150.808 4.55907ZM89.7263 0.831325C90.0398 0.671764 88.3797 0.788077 88.2529 0.963618C88.4729 0.973957 89.6868 0.848892 89.7263 0.831325ZM97.3874 0.210059C97.5414 0.182775 97.6761 -0.0906411 98.4975 0.0308947C98.4982 0.0308802 98.499 0.0308676 98.4997 0.0308546C98.7398 0.0663395 98.471 0.136656 98.5156 0.159204C98.532 0.168415 99.2808 0.288303 98.6644 0.321095C97.7251 0.372554 98.5672 0.122768 98.0654 0.129775C98.0038 0.130238 97.0624 0.297281 97.1193 0.328558C97.1251 0.332123 97.4087 0.294506 97.4565 0.306809C97.6366 0.352871 97.5539 0.439064 97.5792 0.442504C97.6609 0.449716 99.1557 0.27686 99.3799 0.398633C99.451 0.434922 96.9938 0.580059 96.8987 0.56415C96.8375 0.552435 96.8517 0.317177 96.7879 0.295654C96.7548 0.284492 95.7721 0.399035 95.6433 0.38158C95.6059 0.376384 95.5771 0.370451 95.556 0.365482C95.7088 0.43385 94.8166 0.455831 94.8395 0.372553C94.8531 0.339431 95.4682 0.339602 95.4905 0.344754C95.5003 0.346868 95.5088 0.349928 95.5168 0.351977C95.3838 0.265005 97.4687 0.215503 97.0126 0.0957795C97.6146 0.0100026 96.9358 0.290496 97.3874 0.210059ZM100.29 0.0165517C100.229 0.0415632 100.168 0.0666162 100.107 0.0917088C101.158 0.0189873 102.38 0.126046 103.599 0.123629C103.909 0.123362 103.549 -0.0226395 103.956 0.0173627C104.282 0.0495627 104.646 0.185349 104.469 0.215114C104.426 0.222487 103.762 0.133925 103.431 0.143729C102.455 0.173025 102.705 0.299098 102.648 0.302483C102.585 0.306334 101.969 0.221254 101.634 0.228105C100.792 0.245797 100.415 0.32795 99.2592 0.243739C99.9228 0.148958 99.5494 -0.0284976 100.29 0.0165517ZM139.586 2.56272C139.633 2.50326 140.316 2.65336 140.563 2.67805C140.518 2.73693 139.837 2.58633 139.586 2.56272ZM37.0311 7.59211C36.8618 7.80544 38.4459 7.4998 37.9973 7.45248C37.8975 7.44173 37.2283 7.54949 37.0311 7.59211ZM44.0979 6.21616C44.3001 6.12884 43.4193 6.18042 43.4498 6.30716C43.4599 6.34752 44.0716 6.22736 44.0979 6.21616ZM113.962 0.300992C114.002 0.298437 114.586 0.347275 114.604 0.354324C114.989 0.497991 113.069 0.354357 113.962 0.300992ZM52.6216 4.44862C51.9071 4.67652 54.1282 4.35009 53.4266 4.33086C53.3913 4.32986 52.6557 4.43745 52.6216 4.44862ZM55.7058 3.91378C55.534 3.94638 54.7303 4.02271 54.7301 4.07259C54.7277 4.15296 55.6456 4.05955 55.7058 3.91378ZM128.632 1.18425C128.555 1.04848 129.585 1.24062 129.947 1.25975C130.024 1.39435 128.993 1.20028 128.632 1.18425ZM122.076 0.574756C126.468 0.782624 125.485 0.986456 121.812 0.622285C121.81 0.536806 121.799 0.563108 122.076 0.574756ZM127.69 1.02077C127.527 1.08905 127.032 1.02217 126.698 0.987723C126.762 0.935021 127.448 1.01418 127.69 1.02077ZM35.107 7.74954C35.3358 7.53505 36.5811 7.45614 36.3838 7.56666C36.3363 7.59094 35.0286 7.85597 35.107 7.74954ZM114.33 0.196039C114.23 0.0570428 115.546 0.164559 115.647 0.19919C116.051 0.335066 114.437 0.169322 114.33 0.196039ZM134.846 1.71621C135.086 1.64911 135.738 1.77465 136.16 1.82717C135.96 1.88306 135.204 1.75904 134.846 1.71621ZM131.797 1.30683C131.823 1.30577 132.415 1.37661 132.441 1.38397C132.919 1.52763 131.246 1.32872 131.797 1.30683ZM4.63666 16.1732C4.65366 16.1614 5.09692 16.0159 5.11485 16.0163C5.56345 16.0262 4.23437 16.4623 4.63666 16.1732Z" fill="#FF5457"/>
</svg>
