<svg width="82" height="50" viewBox="0 0 82 50" fill="none" xmlns="http://www.w3.org/2000/svg">
<rect width="82" height="50" rx="8" fill="white"/>
<path d="M30.7577 15.1584C30.7577 15.4218 30.7577 15.6476 30.7201 15.8733C30.6448 16.9268 30.3815 17.905 29.9676 18.808C29.8171 19.1842 29.629 19.5229 29.4033 19.8615C27.8232 22.3447 25.0391 24.0001 21.8789 24.0001C20.5245 24.0001 19.2453 23.6991 18.1166 23.1724C15.1068 21.7803 13 18.6951 13 15.1584C13 11.6594 15.0316 8.64945 17.9285 7.21973C17.7028 7.52072 17.477 7.82171 17.2889 8.16033C17.2889 8.19796 17.2513 8.19796 17.2513 8.23558C17.1384 8.34845 17.0256 8.4237 16.9127 8.53657C16.7622 8.64945 16.6494 8.79994 16.4989 8.91282L16.4236 8.98807L16.3484 9.06331C16.3108 9.10094 16.2731 9.17619 16.1979 9.21381C16.1226 9.32668 16.0098 9.43956 15.9345 9.55243C15.5583 10.0415 15.2573 10.5683 15.0316 11.1326C14.994 11.1703 14.994 11.2455 14.9564 11.2831C14.9187 11.3584 14.9187 11.4336 14.8811 11.4713C14.8811 11.5089 14.8435 11.5465 14.8435 11.5841C14.8059 11.697 14.7682 11.7723 14.7306 11.8851C14.693 11.9604 14.693 12.0356 14.6554 12.0733C14.6554 12.1109 14.6178 12.1485 14.6178 12.1861C14.6178 12.2614 14.5801 12.3366 14.5801 12.4119L14.4673 13.0891C14.4673 13.1644 14.4673 13.202 14.4296 13.2772V14.1802C14.4296 16.5882 15.5207 18.7704 17.2889 20.1625C18.6433 21.2536 20.3363 21.9308 22.1798 21.9308C23.8728 21.9308 25.4153 21.4041 26.6945 20.4635C27.6351 19.7862 28.3875 18.9209 28.9518 17.905C29.0271 17.7545 29.1023 17.6416 29.1776 17.4911C29.629 16.5505 29.8924 15.5347 29.8924 14.4436V14.1802C29.8924 13.9168 29.8924 13.6911 29.8548 13.4277L29.8924 13.4654C30.0053 13.5782 30.1181 13.6535 30.231 13.7663C30.3439 13.5782 30.4567 13.4277 30.5696 13.2396C30.6448 13.5782 30.6825 13.9168 30.7201 14.2931C30.7577 14.6317 30.7577 14.8951 30.7577 15.1584Z" fill="#ED1C24"/>
<path d="M22.9314 8.04756L21.276 5C18.5296 6.2416 16.6484 8.98817 16.6484 12.1862C16.6484 13.8041 17.1375 15.309 17.9652 16.5506C17.89 16.1368 17.89 15.7229 17.89 15.2714C17.9276 11.9981 19.9968 9.21391 22.9314 8.04756Z" fill="#F7941D"/>
<path d="M24.2501 9.55235C24.9273 9.36422 25.6797 9.28898 26.3945 9.28898C26.846 9.28898 27.3351 9.3266 27.7489 9.40185L27.7113 8.04738L27.6361 5.33843C27.3351 5.30081 26.9965 5.26318 26.6579 5.26318C25.153 5.26318 23.761 5.7523 22.6323 6.54241L23.5352 8.19787C21.9175 8.76224 20.6007 9.89096 19.773 11.3583C19.3592 12.0732 19.0582 12.9009 18.9453 13.7663C19.171 13.3148 19.4344 12.9009 19.7354 12.5247C20.8264 11.0949 22.4066 10.0038 24.2501 9.55235Z" fill="#ED1C24"/>
<path d="M28.1979 8.00977L28.2732 9.9286C27.6336 9.74048 26.994 9.62761 26.2792 9.62761C24.9624 9.62761 23.7209 10.0039 22.6298 10.6435C21.2754 11.4712 20.222 12.788 19.6953 14.3306C20.222 13.6158 20.8616 12.9762 21.614 12.487C22.7051 11.7722 24.0219 11.3583 25.4139 11.3583C26.4673 11.3583 27.4455 11.5841 28.3484 11.9979C29.0256 12.2989 29.6276 12.7128 30.1543 13.2395L31.2077 11.6593L32.5621 9.58998C31.3582 8.61175 29.8533 8.00977 28.1979 8.00977Z" fill="#F7941D"/>
<path d="M29.8924 14.2557V14.519C29.8924 16.0993 29.2529 17.4161 29.1776 17.5666C29.1024 17.7171 29.0271 17.83 28.9519 17.9805C28.3875 18.9963 27.6351 19.8617 26.6945 20.5389C25.4154 21.4419 23.8729 22.0063 22.1799 22.0063C20.3364 22.0063 18.6058 21.3666 17.289 20.2379C15.5584 18.8082 14.4297 16.6636 14.4297 14.2557V13.3527C14.4297 13.2774 14.4297 13.2398 14.4673 13.1646L14.5802 12.4873C14.5802 12.4121 14.6178 12.3368 14.6178 12.2616C14.6178 12.224 14.6554 12.1863 14.6554 12.1487C14.693 12.0735 14.693 11.9982 14.7307 11.9606C14.7683 11.8477 14.8059 11.7348 14.8435 11.6596C14.8435 11.622 14.8812 11.5843 14.8812 11.5467C14.9188 11.4715 14.9188 11.3962 14.9564 11.3586C14.994 11.321 14.994 11.2457 15.0316 11.2081C15.2574 10.6437 15.596 10.117 15.9346 9.62788C16.0098 9.51501 16.1227 9.40214 16.1979 9.28927C16.2356 9.25164 16.2732 9.17639 16.3484 9.13877C16.386 9.10114 16.386 9.06352 16.4237 9.06352C16.4613 9.0259 16.4613 8.98827 16.4989 8.98827C16.6118 8.83777 16.7623 8.7249 16.9128 8.61203C17.0256 8.49916 17.1385 8.42391 17.2514 8.31104C17.2514 8.34866 17.2137 8.34866 17.2137 8.38628C17.2137 8.42391 17.1761 8.46153 17.1761 8.46153C16.7246 9.36451 16.4237 10.4556 16.3108 11.5843C16.2732 11.8853 16.2732 12.1863 16.2732 12.525C16.2732 16.5884 18.6434 19.8617 21.5779 19.8617H21.8789C22.2927 19.8617 22.7066 19.7864 23.1204 19.7112C25.1144 19.1844 26.5817 17.3409 26.5817 15.1963V15.0834C26.5441 13.8042 26.0173 12.6378 25.152 11.8477C25.754 11.8477 26.3559 11.9606 26.9203 12.1111C28.0113 12.3745 28.9895 12.9012 29.8548 13.5784L29.8924 13.6161C29.8548 13.7666 29.8924 14.0299 29.8924 14.2557Z" fill="#F7941D"/>
<path d="M29.8906 14.2558V14.5191C29.8906 16.1746 29.1381 17.6043 29.1381 17.6043C29.0629 17.7548 28.9876 17.8677 28.9124 18.0182C28.3481 19.034 27.558 19.8994 26.6174 20.5766C25.3007 21.5549 23.7205 22.044 22.0652 22.044C20.2593 22.044 18.5287 21.4044 17.1366 20.2756C15.3308 18.8083 14.2773 16.5885 14.2773 14.2558C14.2773 11.9231 15.3308 9.70324 17.1366 8.23589L17.2119 8.16064C17.2119 8.19827 17.1743 8.19827 17.1743 8.23589C17.1743 8.27352 17.1366 8.27352 17.1366 8.31114C15.3684 9.77849 14.3526 11.9231 14.3526 14.2558C14.3526 16.5885 15.3684 18.7331 17.1743 20.238C18.5287 21.3667 20.2969 21.9687 22.0652 21.9687C23.6829 21.9687 25.263 21.4796 26.5798 20.5014C27.5204 19.8242 28.2728 18.9588 28.8372 17.9429C28.9124 17.7924 28.9876 17.6796 29.0253 17.5291C29.0253 17.5291 29.7777 16.137 29.7777 14.4815V14.2181C29.7777 13.9548 29.7777 13.729 29.7401 13.4657V13.428L29.7777 13.4657L29.8153 13.5033C29.8906 13.8043 29.8906 14.03 29.8906 14.2558Z" fill="#F7941D"/>
<mask id="mask0_1052_10497" style="mask-type:luminance" maskUnits="userSpaceOnUse" x="46" y="5" width="28" height="18">
<path d="M59.9276 5.89062C52.2369 5.89062 46 9.72 46 14.4414C46 19.167 52.2369 22.9999 59.9276 22.9999C67.6202 22.9999 73.8625 19.167 73.8625 14.4414C73.8621 9.72 67.6198 5.89062 59.9276 5.89062Z" fill="white"/>
</mask>
<g mask="url(#mask0_1052_10497)">
<path d="M73.8621 5.89062H46V22.9999H73.8621V5.89062Z" fill="url(#paint0_linear_1052_10497)"/>
</g>
<mask id="mask1_1052_10497" style="mask-type:luminance" maskUnits="userSpaceOnUse" x="46" y="5" width="28" height="18">
<path d="M67.5617 6.39474C67.2152 6.25932 66.8687 6.12965 66.4972 6.0102C66.3771 5.96677 66.258 5.93195 66.1395 5.89714C65.7812 5.78632 65.4145 5.6822 65.0399 5.59597C64.8712 5.55094 64.7001 5.51069 64.5238 5.47971C64.1536 5.40146 63.779 5.32385 63.3941 5.26669C62.2817 5.09007 61.1249 5 59.9276 5C52.2369 5 46 8.83065 46 13.5511C46 17.1726 49.6591 20.267 54.828 21.5196C56.2017 21.8528 57.6785 22.0533 59.2265 22.0952C59.4565 22.1057 59.6963 22.1089 59.9276 22.1089C60.1233 22.1089 60.3127 22.1073 60.4964 22.1003C61.8416 22.0674 63.1421 21.9166 64.3666 21.6685C64.7202 21.5941 65.0763 21.5072 65.4209 21.4171C66.6116 21.1038 67.7211 20.6909 68.7124 20.1923C71.8545 18.6238 73.8625 16.2313 73.8625 13.5505C73.8625 10.5585 71.3582 7.92457 67.5617 6.39474Z" fill="white"/>
</mask>
<g mask="url(#mask1_1052_10497)">
<path d="M73.8621 5H46V22.1092H73.8621V5Z" fill="url(#paint1_linear_1052_10497)"/>
</g>
<path d="M64.524 5.48012C64.1538 5.40187 63.7792 5.32426 63.3943 5.26709C61.9271 5.73818 50.9909 9.44108 51.0471 14.0817C51.0784 16.6045 53.6935 20.1068 54.8282 21.5201C56.2019 21.8532 57.6787 22.0537 59.2268 22.0956C57.9329 20.6577 54.4188 16.5368 54.0617 13.9792C53.4511 9.61258 63.205 5.9528 64.524 5.48012Z" fill="#1D3F86"/>
<path d="M57.7136 13.5315C56.9232 9.38213 65.008 6.29755 66.1386 5.89737C65.7802 5.78655 65.4136 5.68242 65.0389 5.59619C63.6174 6.08836 54.4601 9.42557 54.7817 13.697C55.0094 16.4797 59.4086 21.0181 60.4957 22.1008C61.841 22.0679 63.1415 21.9172 64.366 21.669C62.9706 20.4353 58.3684 16.2105 57.7136 13.5315Z" fill="#E52929"/>
<path d="M61.2449 13.0817C60.2739 9.19863 66.522 6.77389 67.5609 6.39479C67.2144 6.25937 66.8679 6.1297 66.4964 6.01025C65.0851 6.53691 57.8712 9.44934 58.4599 13.3084C58.8719 16.0564 64.1365 20.3971 65.4201 21.4178C66.6108 21.1045 67.7203 20.6915 68.7117 20.193C67.1192 19.1566 62.172 15.752 61.2449 13.0817Z" fill="#00994A"/>
<g clip-path="url(#clip0_1052_10497)">
<path fill-rule="evenodd" clip-rule="evenodd" d="M10 44H35V27H10V44Z" fill="#8C3493"/>
<path fill-rule="evenodd" clip-rule="evenodd" d="M27.4207 29.7616L24.452 32.7771L24.6602 34.4703L25.2074 33.3062L26.8998 35.5019L29.2697 28.0952L21.3789 31.4283L23.5147 32.5656L27.4207 29.7616Z" fill="white"/>
<path d="M23.6967 38.2265C23.6967 38.2265 22.082 38.2265 21.9518 38.2265C20.8711 38.2927 20.5195 36.4809 21.8477 36.2426C22.2383 36.2426 23.6967 36.2426 23.6967 36.2426V38.2265ZM24.8417 35.0522C24.8417 35.0522 22.3284 35.0522 21.7167 35.0522C19.3337 35.4228 19.0864 38.9408 21.6906 39.4171H24.8417V36.2426C25.8921 36.278 26.1091 37.6093 25.3364 38.0943C25.4927 38.2795 26.1179 38.9673 26.1179 38.9673C27.7584 37.53 26.8209 35.1669 24.8417 35.0522Z" fill="white"/>
<path fill-rule="evenodd" clip-rule="evenodd" d="M31.3775 36.6392C30.8567 36.6392 30.2317 36.6392 30.2317 36.6392L29.7367 37.8033C29.7367 37.8033 31.0649 37.8033 31.1951 37.8033C31.4883 37.79 31.5013 38.2264 31.1951 38.2529C30.8177 38.2529 28.6692 38.2529 28.6692 38.2529V36.2424H32.5494V35.0521C32.5494 35.0521 32.0092 35.0521 31.9766 35.0521C31.8071 32.5921 28.91 32.5194 28.1484 33.862C28.2982 33.9874 29.0077 34.6291 29.0077 34.6291C29.444 33.9347 30.6549 33.9678 30.8306 35.0521H27.5234V39.417H31.2473C32.0936 39.4036 32.4843 38.7688 32.5755 38.2264C32.6274 37.3535 32.1066 36.7715 31.3775 36.6392Z" fill="white"/>
<path fill-rule="evenodd" clip-rule="evenodd" d="M20.2303 35.0522H18.72C18.2382 35.6474 17.4047 38.0546 19.0584 39.8667C19.0584 39.8667 19.7746 39.245 19.9177 39.1261C19.41 38.6233 18.5637 36.5733 20.2303 35.0522Z" fill="white"/>
<path fill-rule="evenodd" clip-rule="evenodd" d="M16.3856 39.9086C16.3856 40.4397 15.9617 40.8701 15.4388 40.8701C14.9159 40.8701 14.4922 40.4397 14.4922 39.9086C14.4922 39.3774 14.9159 38.9468 15.4388 38.9468C15.9617 38.9468 16.3856 39.3774 16.3856 39.9086Z" fill="white"/>
<path fill-rule="evenodd" clip-rule="evenodd" d="M16.352 38.2265C16.352 38.2265 14.7374 38.2265 14.6072 38.2265C13.5265 38.2927 13.1749 36.4809 14.503 36.2426C14.8937 36.2426 16.352 36.2426 16.352 36.2426V38.2265ZM14.3728 35.0522C11.9901 35.4228 11.7426 38.9408 14.3467 39.4171H14.364C14.549 38.9999 14.9614 38.7094 15.4408 38.7094C15.9203 38.7094 16.3327 38.9999 16.5174 39.4171H17.4978C17.4978 39.2715 17.4978 35.0522 17.4978 35.0522C17.4978 35.0522 14.9849 35.0522 14.3728 35.0522Z" fill="white"/>
<path fill-rule="evenodd" clip-rule="evenodd" d="M15.4442 33.4833C15.4442 33.5384 15.4 33.5833 15.3458 33.5833H14.8474V33.3721H15.3458C15.4 33.3721 15.4442 33.4169 15.4442 33.4721V33.4833ZM15.4938 34.0208C15.8774 33.9547 16.0663 33.1545 15.4414 32.9761C15.3698 32.9761 14.4258 32.9761 14.4258 32.9761V34.4971H14.8422V34.0208L15.3111 34.4971H15.9624L15.4938 34.0208Z" fill="white"/>
<path fill-rule="evenodd" clip-rule="evenodd" d="M16.6885 34.0612C16.5043 34.0612 16.3549 33.9095 16.3549 33.7224C16.3549 33.5353 16.5043 33.3836 16.6885 33.3836C16.8727 33.3836 17.022 33.5353 17.022 33.7224C17.022 33.9095 16.8727 34.0612 16.6885 34.0612ZM16.6885 32.9517C16.2694 32.9517 15.9297 33.2967 15.9297 33.7224C15.9297 34.148 16.2694 34.4931 16.6885 34.4931C17.1075 34.4931 17.4472 34.148 17.4472 33.7224C17.4472 33.2967 17.1075 32.9517 16.6885 32.9517Z" fill="white"/>
<path fill-rule="evenodd" clip-rule="evenodd" d="M20.9935 33.3898H21.6755V32.9429H21.0983C20.6447 32.9429 20.2734 33.2908 20.2734 33.716C20.2734 34.1411 20.6447 34.4891 21.0983 34.4891H21.6755V34.0422H20.9935C20.8935 34.0422 20.8043 33.9936 20.747 33.9188H21.6755V33.5131H20.747C20.8043 33.4383 20.8935 33.3898 20.9935 33.3898Z" fill="white"/>
<path fill-rule="evenodd" clip-rule="evenodd" d="M18.2814 34.0422C18.1096 34.0422 17.9691 33.8994 17.9691 33.7249V33.707C17.9691 33.5325 18.1096 33.3898 18.2814 33.3898H18.9296V32.9429H18.3483C17.8947 32.9429 17.5234 33.2908 17.5234 33.716C17.5234 34.1411 17.8947 34.4891 18.3483 34.4891H18.9296V34.0422H18.2814Z" fill="white"/>
<path fill-rule="evenodd" clip-rule="evenodd" d="M23.2588 32.9722H21.7891V33.3721H22.3272V34.4654H22.7207V33.3721H23.2588V32.9722Z" fill="white"/>
<path d="M19.7601 33.713L20.4834 32.9722H19.898L19.4911 33.3889V32.9722H19.0977V34.4654H19.4911V34.0373L19.9091 34.4654H20.4948L19.7601 33.713Z" fill="white"/>
<path d="M25.6776 40.1573C25.6125 40.1705 25.5554 40.2119 25.5061 40.2817C25.4586 40.3481 25.4351 40.4153 25.4351 40.4835C25.4351 40.5245 25.4433 40.5644 25.4601 40.6027C25.481 40.6518 25.5097 40.6759 25.5459 40.6759C25.5642 40.6759 25.588 40.6659 25.6172 40.6457L25.658 40.7567C25.6211 40.7793 25.5852 40.7906 25.5503 40.7906C25.503 40.7906 25.4575 40.7727 25.4136 40.737C25.3883 40.7163 25.364 40.6767 25.3413 40.6182C25.3299 40.5896 25.3242 40.5463 25.3242 40.4888V40.4484C25.3242 40.3578 25.3715 40.256 25.4661 40.1427C25.4862 40.1193 25.52 40.086 25.5673 40.0435H25.7159V40.1534C25.7019 40.1552 25.689 40.1566 25.6776 40.1573Z" fill="white"/>
<path d="M26.213 40.1537H25.9218C26.0043 40.2077 26.0469 40.2786 26.0505 40.366C26.1029 40.387 26.1572 40.4284 26.213 40.4906V40.1537ZM26.3368 40.1537V40.7819H26.213V40.7008C26.213 40.6727 26.1921 40.6371 26.1502 40.5935C26.1187 40.5604 26.0856 40.5316 26.0508 40.5072C26.0123 40.4801 25.9704 40.4667 25.9249 40.4667C25.8787 40.4667 25.8451 40.4867 25.8242 40.5271C25.8216 40.5316 25.8203 40.5371 25.8203 40.5442C25.8203 40.561 25.8283 40.5759 25.8446 40.5896C25.8606 40.6032 25.8769 40.6098 25.8937 40.6098C25.9066 40.6098 25.9381 40.6001 25.988 40.5806L26.0244 40.6948C25.9691 40.7234 25.9234 40.7378 25.8865 40.7378C25.8451 40.7378 25.8077 40.726 25.7733 40.7027C25.7392 40.679 25.7141 40.6483 25.6984 40.61C25.6914 40.5935 25.6878 40.5733 25.6878 40.5489C25.6878 40.4778 25.717 40.4234 25.7748 40.3859C25.8151 40.3592 25.8583 40.3455 25.904 40.3455C25.9082 40.3455 25.9123 40.3455 25.9159 40.3455C25.9149 40.3237 25.9035 40.2991 25.8815 40.2715C25.8596 40.2445 25.8381 40.2308 25.817 40.2308H25.68V40.1537H25.625V40.0435H26.4212V40.1537H26.3368Z" fill="white"/>
<path d="M26.5743 40.1537V40.7819H26.4506V40.1537H26.3594V40.0435H26.6567V40.1537H26.5743Z" fill="white"/>
<path d="M27.1817 40.2896C27.1587 40.2975 27.1341 40.3064 27.1075 40.3169C27.0688 40.3342 26.9983 40.3657 26.8959 40.4108L26.8724 40.4213C26.9701 40.456 27.0634 40.5074 27.1525 40.5754C27.1639 40.584 27.1737 40.5914 27.1817 40.5974V40.2896ZM27.1744 40.1537H26.6172V40.0435H27.3886V40.1537H27.3031V40.7819H27.1938C27.1832 40.7496 27.1298 40.6995 27.0331 40.6318C26.9939 40.6043 26.9393 40.5772 26.8701 40.5512C26.7962 40.5232 26.7376 40.5095 26.6937 40.5095L26.6608 40.3843C26.6895 40.3607 26.7694 40.3203 26.8998 40.2631C26.9551 40.2387 27.0466 40.2022 27.1744 40.1537Z" fill="white"/>
<path d="M27.5428 40.1537V40.7819H27.4193V40.1537H27.3281V40.0435H27.6252V40.1537H27.5428Z" fill="white"/>
<path d="M28.0119 40.8873C27.9618 40.8411 27.9083 40.7984 27.8515 40.7582C27.8244 40.7393 27.7792 40.7181 27.7161 40.6947C27.6663 40.6763 27.6368 40.6672 27.628 40.6672L27.6296 40.5202C27.6399 40.5202 27.6559 40.5207 27.6774 40.522C27.6988 40.5233 27.7148 40.5241 27.7254 40.5241C27.7815 40.5241 27.8269 40.5168 27.8621 40.5021C27.9285 40.4738 27.9618 40.4404 27.9618 40.4018C27.9618 40.3735 27.9491 40.3499 27.9238 40.331C27.8993 40.3163 27.8742 40.3021 27.8489 40.2885C27.8419 40.2851 27.8347 40.2832 27.828 40.2832C27.813 40.2832 27.7967 40.2872 27.7792 40.2948C27.7572 40.3053 27.7474 40.3168 27.7489 40.3297C27.7533 40.3622 27.7872 40.3759 27.8502 40.3709L27.7833 40.4751C27.7562 40.4769 27.7285 40.4682 27.7004 40.4491C27.6495 40.4142 27.6241 40.3717 27.6241 40.3213C27.6241 40.2709 27.65 40.2318 27.7016 40.2037C27.7438 40.1804 27.7921 40.1686 27.8463 40.1686C27.8698 40.1686 27.8905 40.1728 27.9076 40.1804C27.9246 40.1882 27.9419 40.1969 27.9595 40.2063C28.0434 40.2499 28.0856 40.3158 28.0856 40.4042C28.0856 40.4677 28.0597 40.5189 28.0081 40.558C27.9685 40.5874 27.9119 40.6086 27.8383 40.6218C27.8603 40.632 27.8918 40.6498 27.9329 40.675C28.0031 40.7288 28.0597 40.7771 28.1026 40.8196L28.0119 40.8873ZM27.582 40.1533V40.0431H27.9473C27.9484 40.0387 27.9489 40.0355 27.9489 40.0339C27.9489 39.9762 27.922 39.9384 27.8685 39.92C27.8616 39.9182 27.8536 39.9174 27.8448 39.9174C27.8316 39.9174 27.8156 39.92 27.7962 39.9253C27.7701 39.9324 27.7541 39.9363 27.7489 39.9374C27.728 39.9408 27.7097 39.9473 27.6939 39.957C27.6737 39.9712 27.6505 39.9841 27.6241 39.9956L27.5849 39.9025C27.6322 39.8691 27.6942 39.8408 27.7714 39.8172C27.8037 39.8075 27.8344 39.8027 27.8634 39.8027C27.8941 39.8027 27.9285 39.814 27.9672 39.8368C28.0329 39.8767 28.067 39.9455 28.0698 40.0431H28.1406V40.1533H27.582Z" fill="white"/>
<path d="M28.878 40.1537V40.7819H28.7545V40.5326C28.7545 40.5108 28.7452 40.4888 28.7269 40.4657C28.7086 40.4429 28.6889 40.4313 28.668 40.4313C28.6486 40.4313 28.6303 40.4434 28.6127 40.4675C28.5951 40.4919 28.5866 40.5192 28.5866 40.5505H28.4528C28.4528 40.5156 28.444 40.4856 28.4264 40.4604C28.4086 40.4353 28.3885 40.4224 28.3655 40.4224C28.3461 40.4224 28.3275 40.4295 28.3099 40.4434C28.2924 40.4573 28.2828 40.4736 28.281 40.4919L28.2771 40.5245V40.5373C28.2771 40.6019 28.3159 40.6342 28.3936 40.6342C28.406 40.6342 28.427 40.6315 28.4567 40.6263L28.4133 40.7531C28.3879 40.7562 28.3724 40.7575 28.3673 40.7575C28.3094 40.7575 28.2559 40.7357 28.2068 40.6922C28.1875 40.6756 28.172 40.6504 28.1596 40.6166C28.1482 40.5861 28.1425 40.5565 28.1425 40.5276C28.1425 40.4597 28.1629 40.4046 28.2043 40.3626C28.2456 40.3203 28.2996 40.2991 28.3662 40.2991C28.4285 40.2991 28.4807 40.3292 28.5228 40.3893C28.5683 40.3292 28.6176 40.2991 28.6701 40.2991C28.6993 40.2991 28.7272 40.3124 28.7545 40.3392V40.1537H28.0859V40.0435H28.9481V40.1537H28.878Z" fill="white"/>
<path d="M29.8142 40.2896C29.7915 40.2975 29.7667 40.3064 29.7403 40.3169C29.7016 40.3342 29.6311 40.3657 29.5288 40.4108L29.505 40.4213C29.6029 40.456 29.6962 40.5074 29.7853 40.5754C29.7967 40.584 29.8065 40.5914 29.8142 40.5974V40.2896ZM29.8073 40.1537H29.25V40.0435H30.0214V40.1537H29.9359V40.7819H29.8266C29.816 40.7496 29.7626 40.6995 29.6659 40.6318C29.6264 40.6043 29.5722 40.5772 29.5027 40.5512C29.429 40.5232 29.3704 40.5095 29.3265 40.5095L29.2934 40.3843C29.3223 40.3607 29.4022 40.3203 29.5326 40.2631C29.5879 40.2387 29.6794 40.2022 29.8073 40.1537Z" fill="white"/>
<path d="M30.2292 40.1537C30.1899 40.2085 30.1705 40.2539 30.1705 40.2896C30.1705 40.3061 30.1904 40.3725 30.2305 40.4885C30.2511 40.547 30.2617 40.5953 30.2617 40.6339C30.2617 40.7071 30.2214 40.758 30.1408 40.7869C30.1163 40.7966 30.0726 40.8042 30.0096 40.8105L30.0261 40.7019C30.0992 40.6861 30.1359 40.6602 30.1359 40.6234C30.1359 40.5893 30.1207 40.5371 30.0902 40.4662C30.0597 40.3956 30.0447 40.3437 30.0447 40.3106C30.0447 40.2678 30.0623 40.2156 30.0974 40.1537H29.9688V40.0435H30.3136V40.1537H30.2292Z" fill="white"/>
<path d="M30.4959 40.1537V40.7819H30.3722V40.1537H30.2812V40.0435H30.5784V40.1537H30.4959Z" fill="white"/>
<path d="M30.8076 40.1955C30.7952 40.1869 30.7828 40.1832 30.7704 40.185C30.7237 40.1929 30.7004 40.2162 30.7004 40.2553C30.7004 40.2756 30.7082 40.2939 30.7237 40.311C30.7392 40.3278 30.7565 40.3364 30.7759 40.3364L30.7929 40.3338C30.8283 40.3225 30.8459 40.3007 30.8459 40.2685C30.8459 40.238 30.8332 40.2136 30.8076 40.1955ZM30.9169 40.856C30.7601 40.7219 30.6539 40.6414 30.5976 40.6143L30.5991 40.4409C30.8146 40.5975 30.9557 40.7225 31.0221 40.8156V40.9447L30.9169 40.856ZM30.7818 40.4511C30.7239 40.4511 30.6774 40.4325 30.6423 40.3955C30.6074 40.3585 30.5898 40.3107 30.5898 40.2525C30.5898 40.1984 30.6077 40.1535 30.6438 40.1173C30.6795 40.0811 30.7242 40.063 30.7779 40.063C30.8505 40.063 30.903 40.1 30.9355 40.174C30.9495 40.2055 30.9567 40.2365 30.9567 40.2669C30.9567 40.3233 30.9415 40.3684 30.9112 40.4015C30.881 40.4346 30.8379 40.4511 30.7818 40.4511Z" fill="white"/>
<path d="M31.7981 39.9695C31.6539 39.8777 31.5361 39.8315 31.4444 39.8315C31.3361 39.8315 31.2566 39.8664 31.2059 39.9359C31.1883 39.9603 31.1788 39.9963 31.177 40.0433H31.2638V40.1535H31.177V40.7817H31.0512V40.1535H30.9688V40.0433H31.0512C31.0537 39.954 31.0827 39.8816 31.138 39.826C31.193 39.7706 31.2679 39.7365 31.3627 39.7234C31.3723 39.7226 31.3909 39.7205 31.418 39.7168H31.4441C31.5196 39.7168 31.5945 39.7333 31.6691 39.7664C31.7094 39.7856 31.7756 39.8236 31.8675 39.8811L31.7981 39.9695Z" fill="white"/>
<path d="M31.5703 40.2988C31.5502 40.3143 31.5194 40.3353 31.4781 40.3613C31.4677 40.3657 31.4556 40.3746 31.4422 40.388C31.4285 40.4017 31.4156 40.414 31.4032 40.4253C31.4163 40.4374 31.4373 40.4544 31.4665 40.4762C31.4936 40.5074 31.5282 40.5463 31.5703 40.5922V40.2988ZM31.6941 40.1537V40.1576C31.7457 40.1602 31.7997 40.1768 31.8558 40.2072C31.9346 40.251 31.9741 40.3103 31.9741 40.3854C31.9741 40.4292 31.9609 40.467 31.9346 40.4988C31.908 40.5305 31.8736 40.5515 31.831 40.5615C31.7884 40.5717 31.7522 40.573 31.7222 40.5662V40.4473C31.7364 40.4492 31.7493 40.4502 31.7617 40.4502C31.8238 40.4502 31.8548 40.4274 31.8548 40.3822C31.8548 40.3282 31.801 40.2943 31.6941 40.2804V40.7819H31.585C31.5672 40.747 31.5499 40.7202 31.5323 40.7011C31.5261 40.694 31.5104 40.6733 31.4848 40.6384C31.477 40.6271 31.4626 40.6129 31.4417 40.5953C31.4205 40.578 31.406 40.5638 31.3983 40.5526C31.3946 40.5473 31.3848 40.5415 31.3691 40.5355C31.3156 40.5163 31.2722 40.5066 31.2388 40.5066L31.206 40.3817C31.2334 40.3618 31.2947 40.3243 31.3902 40.2697C31.3972 40.2644 31.4264 40.2471 31.4778 40.2174C31.4962 40.2062 31.5272 40.1878 31.5703 40.1626V40.1537H31.1797V40.0435H32.0289V40.1537H31.6941Z" fill="white"/>
<path d="M32.2412 40.1955C32.2291 40.1869 32.2167 40.1832 32.2043 40.185C32.1575 40.1929 32.1343 40.2162 32.1343 40.2553C32.1343 40.2756 32.142 40.2939 32.1575 40.311C32.1728 40.3278 32.1903 40.3364 32.2097 40.3364L32.2268 40.3338C32.2622 40.3225 32.2797 40.3007 32.2797 40.2685C32.2797 40.238 32.2668 40.2136 32.2412 40.1955ZM32.3508 40.856C32.1939 40.7219 32.0875 40.6414 32.0314 40.6143L32.0327 40.4409C32.2485 40.5975 32.3893 40.7225 32.4559 40.8156V40.9447L32.3508 40.856ZM32.2156 40.4511C32.1578 40.4511 32.1113 40.4325 32.0761 40.3955C32.041 40.3585 32.0234 40.3107 32.0234 40.2525C32.0234 40.1984 32.0415 40.1535 32.0774 40.1173C32.1133 40.0811 32.158 40.063 32.2115 40.063C32.2844 40.063 32.3368 40.1 32.3694 40.174C32.3833 40.2055 32.3903 40.2365 32.3903 40.2669C32.3903 40.3233 32.3753 40.3684 32.3451 40.4015C32.3149 40.4346 32.2715 40.4511 32.2156 40.4511Z" fill="white"/>
<path d="M18.543 40.8356L18.7734 40.9145L18.8656 40.8356L18.6352 40.7534L18.543 40.8356Z" fill="white"/>
<path d="M18.4184 40.4814C18.4416 40.4882 18.4724 40.4502 18.4954 40.4189C18.4954 40.4536 18.4954 40.5092 18.4954 40.5646C18.4954 40.6202 18.4517 40.6688 18.4184 40.6688C18.3853 40.6688 18.096 40.6688 18.096 40.6688V40.4814C18.096 40.4814 18.3902 40.4814 18.4184 40.4814ZM18.6183 40.1857V40.0439H16.8086V40.1857H17.1127V40.5021C17.1127 40.5021 17.3457 40.5021 17.3739 40.5021C17.3739 40.5021 17.448 40.478 17.4661 40.4397C17.4661 40.4848 17.4661 40.5473 17.4661 40.5646C17.4661 40.6202 17.425 40.6688 17.3739 40.6688C17.3227 40.6688 17.0129 40.6688 16.99 40.6688C16.9667 40.6688 16.9437 40.6583 16.9437 40.5646C16.9437 40.4709 16.9437 40.2696 16.9437 40.2696H16.8086C16.8086 40.2696 16.8086 40.6168 16.8086 40.648C16.8086 40.6793 16.828 40.7895 16.9251 40.7895C17.0225 40.7895 17.4253 40.7895 17.4457 40.7895C17.5268 40.7869 17.5844 40.7029 17.5888 40.6323C17.5888 40.4796 17.5888 40.2696 17.5888 40.2696H17.4661C17.4532 40.3253 17.4609 40.3633 17.4046 40.3772C17.3483 40.3772 17.2509 40.3772 17.2509 40.3772V40.1857H17.6965V40.7895H17.85V40.1857H17.9577V40.7895C17.9577 40.7895 18.4287 40.7895 18.4646 40.7895C18.5005 40.7895 18.6183 40.759 18.6183 40.6273C18.6183 40.4953 18.6183 40.2696 18.6183 40.2696H18.4954C18.4954 40.3043 18.4902 40.3565 18.4339 40.3565C18.3776 40.3565 18.096 40.3565 18.096 40.3565V40.1857H18.6183Z" fill="white"/>
<path d="M18.7852 40.5228H19.0923V40.3564H18.7852V40.5228Z" fill="white"/>
<path d="M19.7717 40.6895C19.7717 40.6895 19.4772 40.6895 19.4646 40.6895C19.4186 40.6827 19.3878 40.6273 19.3878 40.5646C19.3878 40.5021 19.3878 40.398 19.3878 40.398H19.7717V40.6895ZM19.2656 40.0439V40.1857H19.7717V40.2696H19.2656C19.2656 40.2696 19.2656 40.5819 19.2656 40.6063C19.2765 40.716 19.3318 40.7895 19.4369 40.7895C19.5622 40.7895 19.8947 40.7895 19.8947 40.7895V40.1857H20.0022V40.7895H20.1404V40.0439H19.2656Z" fill="white"/>
<path d="M20.8047 40.1857H21.4314V40.2696C21.4033 40.2696 21.2651 40.2696 21.2472 40.2696C21.2395 40.3287 21.1447 40.3607 21.1243 40.2696C21.022 40.2696 20.8047 40.2696 20.8047 40.2696C20.8047 40.2696 20.8047 40.5924 20.8047 40.6273C20.8047 40.662 20.8099 40.7753 20.9036 40.7895C20.9907 40.7895 21.155 40.7895 21.155 40.7895V40.6688C21.155 40.6688 21.0168 40.6688 20.986 40.6688C20.9527 40.6583 20.9246 40.6375 20.9246 40.5856C20.9246 40.5229 20.9246 40.398 20.9246 40.398H21.0935V40.5021H21.2472V40.4189C21.2369 40.3806 21.4085 40.384 21.4162 40.4189C21.4162 40.4709 21.4162 40.7895 21.4162 40.7895H21.5544V40.1857H21.6466V40.7895H21.7849V40.0439H20.8047V40.1857Z" fill="white"/>
<path d="M20.4849 40.2948C20.426 40.2948 20.3782 40.2728 20.3782 40.2458C20.3782 40.219 20.426 40.1969 20.4849 40.1969C20.5438 40.1969 20.5916 40.219 20.5916 40.2458C20.5916 40.2728 20.5438 40.2948 20.4849 40.2948ZM20.5844 40.0859C20.528 40.0859 20.2578 40.0859 20.2578 40.0859C20.2578 40.0859 20.2578 40.2505 20.2578 40.2817C20.2707 40.3442 20.3035 40.4213 20.4154 40.4274C20.528 40.4274 20.6766 40.4274 20.6766 40.4274V40.1859C20.6688 40.145 20.6407 40.0928 20.5844 40.0859Z" fill="white"/>
<path d="M20.2812 40.5005V40.6233L20.676 40.7897V40.6595L20.2812 40.5005Z" fill="white"/>
<path d="M23.7971 40.2948C23.7382 40.2948 23.6904 40.2728 23.6904 40.2458C23.6904 40.219 23.7382 40.1969 23.7971 40.1969C23.856 40.1969 23.9038 40.219 23.9038 40.2458C23.9038 40.2728 23.856 40.2948 23.7971 40.2948ZM23.8966 40.0859C23.8403 40.0859 23.5703 40.0859 23.5703 40.0859C23.5703 40.0859 23.5703 40.2505 23.5703 40.2817C23.583 40.3442 23.6158 40.4213 23.7276 40.4274C23.8403 40.4274 23.9888 40.4274 23.9888 40.4274V40.1859C23.9811 40.145 23.9529 40.0928 23.8966 40.0859Z" fill="white"/>
<path d="M23.5898 40.5005V40.6233L23.9846 40.7897V40.6595L23.5898 40.5005Z" fill="white"/>
<path d="M24.6077 40.6895C24.6077 40.6895 24.3132 40.6895 24.3005 40.6895C24.2542 40.6827 24.2238 40.6273 24.2238 40.5646C24.2238 40.5021 24.2238 40.398 24.2238 40.398H24.6053L24.6074 40.4189H24.6077V40.6895ZM24.7306 40.2696V40.1857H24.9851V40.0439H24.1016V40.1857H24.6077V40.2696H24.1016C24.1016 40.2696 24.1016 40.5819 24.1016 40.6063C24.1124 40.716 24.1677 40.7895 24.2726 40.7895C24.3981 40.7895 24.7306 40.7895 24.7306 40.7895V40.4189H24.8534C24.8738 40.4189 24.8789 40.4085 24.8841 40.4397C24.8841 40.478 24.8841 40.5021 24.8841 40.5021C24.8764 40.5336 24.8738 40.5544 24.8534 40.5646C24.833 40.5646 24.8081 40.5646 24.8081 40.5646V40.6895H24.8993C24.9301 40.6861 24.9864 40.6515 24.9916 40.6063C24.9916 40.537 24.9916 40.2696 24.9916 40.2696H24.7306Z" fill="white"/>
<path d="M22.7017 40.6895C22.7017 40.6895 22.4072 40.6895 22.3942 40.6895C22.3483 40.6827 22.3175 40.6273 22.3175 40.5646C22.3175 40.5021 22.3175 40.398 22.3175 40.398H22.7017V40.6895ZM22.1953 40.0439V40.1857H22.7017V40.2696H22.1953C22.1953 40.2696 22.1953 40.5819 22.1953 40.6063C22.2064 40.716 22.2617 40.7895 22.3666 40.7895C22.4922 40.7895 22.8244 40.7895 22.8244 40.7895V40.1857H22.9846L22.9262 40.304V40.3875C22.9262 40.3875 23.0132 40.3875 23.0339 40.3875C23.091 40.394 23.1106 40.4326 23.1106 40.5331C23.1106 40.6026 23.0949 40.6528 23.0419 40.6583C23.0086 40.6583 22.9414 40.6583 22.9414 40.6583V40.7832C22.9414 40.7832 23.0184 40.7832 23.0492 40.7832C23.0799 40.7832 23.2207 40.7971 23.2336 40.6583C23.2489 40.377 23.2615 40.304 23.0644 40.2833L23.0933 40.1857H23.3098V40.7895H23.4481V40.0439H22.1953Z" fill="white"/>
</g>
<g clip-path="url(#clip1_1052_10497)">
<path d="M71.6532 41.4453C71.6532 42.7396 70.6168 43.7891 69.3384 43.7891H49.6625C48.3841 43.7891 47.3477 42.7396 47.3477 41.4453V28.5547C47.3477 27.2604 48.3841 26.2109 49.6625 26.2109H69.3384C70.6168 26.2109 71.6532 27.2604 71.6532 28.5547V41.4453Z" fill="#1565C0"/>
<path d="M54.3981 32.0704L52.8785 36.6595C52.8785 36.6595 52.4925 34.7183 52.4543 34.4745C51.5891 32.4759 50.3125 32.5872 50.3125 32.5872L51.8171 38.5157V38.5146H53.6464L56.1759 32.0704H54.3981ZM55.8466 38.5157H57.5081L58.5127 32.0704H56.8304L55.8466 38.5157ZM67.6053 32.0704H65.8571L63.1314 38.5157H64.7818L65.1221 37.5952H67.2031L67.3802 38.5157H68.8924L67.6053 32.0704ZM65.5828 36.3642L66.4873 33.9284L66.9606 36.3642H65.5828ZM60.8698 33.9489C60.8698 33.5938 61.158 33.3296 61.9844 33.3296C62.5214 33.3296 63.1366 33.7245 63.1366 33.7245L63.4062 32.3716C63.4062 32.3716 62.6204 32.0698 61.849 32.0698C60.1019 32.0698 59.2008 32.9159 59.2008 33.987C59.2008 35.9241 61.5035 35.6587 61.5035 36.6536C61.5035 36.8241 61.3698 37.2185 60.4109 37.2185C59.4491 37.2185 58.8142 36.8616 58.8142 36.8616L58.5278 38.1601C58.5278 38.1601 59.1429 38.5151 60.3316 38.5151C61.5231 38.5151 63.1759 37.6128 63.1759 36.3167C63.1759 34.7575 60.8698 34.645 60.8698 33.9489Z" fill="white"/>
<path d="M52.6794 35.5534L52.1204 32.7714C52.1204 32.7714 51.8675 32.1685 51.2101 32.1685C50.5527 32.1685 48.6406 32.1685 48.6406 32.1685C48.6406 32.1685 51.9167 33.1481 52.6794 35.5534Z" fill="#FFC107"/>
</g>
<defs>
<linearGradient id="paint0_linear_1052_10497" x1="46" y1="14.4448" x2="73.8624" y2="14.4448" gradientUnits="userSpaceOnUse">
<stop stop-color="#646567"/>
<stop offset="0.3764" stop-color="white"/>
<stop offset="0.7528" stop-color="#646567"/>
<stop offset="1" stop-color="white"/>
</linearGradient>
<linearGradient id="paint1_linear_1052_10497" x1="59.9309" y1="4.86295" x2="59.9309" y2="22.3215" gradientUnits="userSpaceOnUse">
<stop stop-color="#929596"/>
<stop offset="0.3764" stop-color="white"/>
<stop offset="0.7528" stop-color="#BBBDBF"/>
<stop offset="1" stop-color="white"/>
</linearGradient>
<clipPath id="clip0_1052_10497">
<rect x="10" y="27" width="25" height="17" rx="8.5" fill="white"/>
</clipPath>
<clipPath id="clip1_1052_10497">
<rect width="25" height="18" fill="white" transform="translate(47 26)"/>
</clipPath>
</defs>
</svg>
