<svg width="14" height="14" viewBox="0 0 14 14" fill="none" xmlns="http://www.w3.org/2000/svg">
<path d="M0 10.5V9.58125C0 9.16319 0.213889 8.82292 0.641667 8.56042C1.06944 8.29792 1.63333 8.16667 2.33333 8.16667C2.45972 8.16667 2.58125 8.1691 2.69792 8.17396C2.81458 8.17882 2.92639 8.19097 3.03333 8.21042C2.89722 8.41458 2.79514 8.62847 2.72708 8.85208C2.65903 9.07569 2.625 9.30903 2.625 9.55208V10.5H0ZM3.5 10.5V9.55208C3.5 9.24097 3.58507 8.9566 3.75521 8.69896C3.92535 8.44132 4.16597 8.21528 4.47708 8.02083C4.78819 7.82639 5.16007 7.68056 5.59271 7.58333C6.02535 7.48611 6.49444 7.4375 7 7.4375C7.51528 7.4375 7.98924 7.48611 8.42188 7.58333C8.85451 7.68056 9.22639 7.82639 9.5375 8.02083C9.84861 8.21528 10.0868 8.44132 10.2521 8.69896C10.4174 8.9566 10.5 9.24097 10.5 9.55208V10.5H3.5ZM11.375 10.5V9.55208C11.375 9.29931 11.3434 9.06111 11.2802 8.8375C11.217 8.61389 11.1222 8.40486 10.9958 8.21042C11.1028 8.19097 11.2122 8.17882 11.324 8.17396C11.4358 8.1691 11.55 8.16667 11.6667 8.16667C12.3667 8.16667 12.9306 8.29549 13.3583 8.55312C13.7861 8.81076 14 9.15347 14 9.58125V10.5H11.375ZM4.73958 9.33333H9.275C9.17778 9.13889 8.90799 8.96875 8.46562 8.82292C8.02326 8.67708 7.53472 8.60417 7 8.60417C6.46528 8.60417 5.97674 8.67708 5.53438 8.82292C5.09201 8.96875 4.82708 9.13889 4.73958 9.33333ZM2.33333 7.58333C2.0125 7.58333 1.73785 7.4691 1.50937 7.24062C1.2809 7.01215 1.16667 6.7375 1.16667 6.41667C1.16667 6.08611 1.2809 5.80903 1.50937 5.58542C1.73785 5.36181 2.0125 5.25 2.33333 5.25C2.66389 5.25 2.94097 5.36181 3.16458 5.58542C3.38819 5.80903 3.5 6.08611 3.5 6.41667C3.5 6.7375 3.38819 7.01215 3.16458 7.24062C2.94097 7.4691 2.66389 7.58333 2.33333 7.58333ZM11.6667 7.58333C11.3458 7.58333 11.0712 7.4691 10.8427 7.24062C10.6142 7.01215 10.5 6.7375 10.5 6.41667C10.5 6.08611 10.6142 5.80903 10.8427 5.58542C11.0712 5.36181 11.3458 5.25 11.6667 5.25C11.9972 5.25 12.2743 5.36181 12.4979 5.58542C12.7215 5.80903 12.8333 6.08611 12.8333 6.41667C12.8333 6.7375 12.7215 7.01215 12.4979 7.24062C12.2743 7.4691 11.9972 7.58333 11.6667 7.58333ZM7 7C6.51389 7 6.10069 6.82986 5.76042 6.48958C5.42014 6.14931 5.25 5.73611 5.25 5.25C5.25 4.75417 5.42014 4.33854 5.76042 4.00313C6.10069 3.66771 6.51389 3.5 7 3.5C7.49583 3.5 7.91146 3.66771 8.24687 4.00313C8.58229 4.33854 8.75 4.75417 8.75 5.25C8.75 5.73611 8.58229 6.14931 8.24687 6.48958C7.91146 6.82986 7.49583 7 7 7ZM7 5.83333C7.16528 5.83333 7.30382 5.77743 7.41563 5.66563C7.52743 5.55382 7.58333 5.41528 7.58333 5.25C7.58333 5.08472 7.52743 4.94618 7.41563 4.83438C7.30382 4.72257 7.16528 4.66667 7 4.66667C6.83472 4.66667 6.69618 4.72257 6.58437 4.83438C6.47257 4.94618 6.41667 5.08472 6.41667 5.25C6.41667 5.41528 6.47257 5.55382 6.58437 5.66563C6.69618 5.77743 6.83472 5.83333 7 5.83333Z" fill="#667269"/>
</svg>
