<svg width="24" height="24" viewBox="0 0 24 24" fill="none" xmlns="http://www.w3.org/2000/svg">
<path d="M19.95 21C17.8667 21 15.8083 20.5458 13.775 19.6375C11.7417 18.7292 9.89167 17.4417 8.225 15.775C6.55833 14.1083 5.27083 12.2583 4.3625 10.225C3.45417 8.19167 3 6.13333 3 4.05C3 3.75 3.1 3.5 3.3 3.3C3.5 3.1 3.75 3 4.05 3H8.1C8.33333 3 8.54167 3.07917 8.725 3.2375C8.90833 3.39583 9.01667 3.58333 9.05 3.8L9.7 7.3C9.73333 7.56667 9.725 7.79167 9.675 7.975C9.625 8.15833 9.53333 8.31667 9.4 8.45L6.975 10.9C7.30833 11.5167 7.70417 12.1125 8.1625 12.6875C8.62083 13.2625 9.125 13.8167 9.675 14.35C10.1917 14.8667 10.7333 15.3458 11.3 15.7875C11.8667 16.2292 12.4667 16.6333 13.1 17L15.45 14.65C15.6 14.5 15.7958 14.3875 16.0375 14.3125C16.2792 14.2375 16.5167 14.2167 16.75 14.25L20.2 14.95C20.4333 15.0167 20.625 15.1375 20.775 15.3125C20.925 15.4875 21 15.6833 21 15.9V19.95C21 20.25 20.9 20.5 20.7 20.7C20.5 20.9 20.25 21 19.95 21ZM6.025 9L7.675 7.35L7.25 5H5.025C5.10833 5.68333 5.225 6.35833 5.375 7.025C5.525 7.69167 5.74167 8.35 6.025 9ZM14.975 17.95C15.625 18.2333 16.2875 18.4583 16.9625 18.625C17.6375 18.7917 18.3167 18.9 19 18.95V16.75L16.65 16.275L14.975 17.95Z" fill="#29AE48"/>
<path d="M14.1515 9.70955C13.9093 9.48627 13.7816 9.21394 13.7686 8.89254C13.7555 8.57114 13.8606 8.28934 14.0839 8.04714C14.3072 7.80494 14.5795 7.67731 14.9009 7.66424C15.2223 7.65118 15.5041 7.75628 15.7463 7.97956C15.9885 8.20283 16.1161 8.47517 16.1292 8.79657C16.1423 9.11796 16.0372 9.39976 15.8139 9.64196C15.5906 9.88416 15.3183 10.0118 14.9969 10.0249C14.6755 10.0379 14.3937 9.93282 14.1515 9.70955ZM13.9987 5.95251L13.9579 4.53879C14.6118 4.5122 15.2596 4.61075 15.9015 4.83443C16.5434 5.05811 17.1295 5.41448 17.6601 5.90356C18.1906 6.39264 18.5921 6.94941 18.8645 7.57387C19.1368 8.19833 19.2837 8.84038 19.3049 9.50003L17.9085 9.5568C17.8887 9.06916 17.778 8.59909 17.5764 8.1466C17.3749 7.6941 17.0838 7.29242 16.7032 6.94156C16.3226 6.5907 15.8986 6.33318 15.4312 6.16902C14.9639 6.00485 14.4864 5.93268 13.9987 5.95251ZM13.8838 3.12642L13.8271 1.72999C14.8573 1.67701 15.8679 1.82464 16.859 2.17288C17.85 2.52112 18.755 3.07269 19.5739 3.82757C20.3927 4.58245 21.0159 5.43964 21.4435 6.39915C21.871 7.35866 22.1002 8.35399 22.131 9.38513L20.7346 9.4419C20.6999 8.58853 20.5055 7.76663 20.1515 6.9762C19.7974 6.18578 19.2859 5.48223 18.617 4.86556C17.948 4.2489 17.2053 3.7962 16.3887 3.50747C15.5722 3.21874 14.7372 3.09172 13.8838 3.12642Z" fill="#29AE48"/>
</svg>
