<svg width="24" height="25" viewBox="0 0 24 25" fill="none" xmlns="http://www.w3.org/2000/svg">
<path d="M7 4.5V11.5L9.5 10L12 11.5V4.5H7ZM18 23.5C16.6167 23.5 15.4375 23.0125 14.4625 22.0375C13.4875 21.0625 13 19.8833 13 18.5C13 17.1167 13.4875 15.9375 14.4625 14.9625C15.4375 13.9875 16.6167 13.5 18 13.5C19.3833 13.5 20.5625 13.9875 21.5375 14.9625C22.5125 15.9375 23 17.1167 23 18.5C23 19.8833 22.5125 21.0625 21.5375 22.0375C20.5625 23.0125 19.3833 23.5 18 23.5ZM16.75 21L20.75 18.5L16.75 16V21ZM11 18.4932C11 19.2144 11.1125 19.9125 11.3375 20.5875C11.5625 21.2625 11.8667 21.9 12.25 22.5H5C4.45 22.5 3.97917 22.3042 3.5875 21.9125C3.19583 21.5208 3 21.05 3 20.5V4.5C3 3.95 3.19583 3.47917 3.5875 3.0875C3.97917 2.69583 4.45 2.5 5 2.5H17C17.55 2.5 18.0208 2.69583 18.4125 3.0875C18.8042 3.47917 19 3.95 19 4.5V11.55C18.8323 11.5333 18.6646 11.5208 18.4967 11.5125C18.3291 11.5042 18.1613 11.5 17.9935 11.5C16.0478 11.5 14.3958 12.1792 13.0375 13.5375C11.6792 14.896 11 16.5479 11 18.4932Z" fill="#29AE48"/>
</svg>
