<svg width="25" height="25" viewBox="0 0 25 25" fill="none" xmlns="http://www.w3.org/2000/svg">
<path d="M17.2145 22.2776C16.3706 22.2776 15.6534 21.9822 15.0627 21.3915C14.472 20.8008 14.1766 20.0836 14.1766 19.2397C14.1766 19.1385 14.2019 18.9022 14.2526 18.5309L7.13893 14.3792C6.8689 14.6323 6.55667 14.8306 6.20226 14.9741C5.84784 15.1175 5.46811 15.1892 5.06306 15.1892C4.21921 15.1892 3.50194 14.8939 2.91125 14.3032C2.32055 13.7125 2.02521 12.9952 2.02521 12.1514C2.02521 11.3075 2.32055 10.5903 2.91125 9.99958C3.50194 9.40888 4.21921 9.11354 5.06306 9.11354C5.46811 9.11354 5.84784 9.18526 6.20226 9.32872C6.55667 9.47217 6.8689 9.67048 7.13893 9.92363L14.2526 5.77189C14.2188 5.65376 14.1977 5.53984 14.1893 5.43014C14.1808 5.32044 14.1766 5.19808 14.1766 5.06306C14.1766 4.21921 14.472 3.50194 15.0627 2.91125C15.6534 2.32055 16.3706 2.02521 17.2145 2.02521C18.0583 2.02521 18.7756 2.32055 19.3663 2.91125C19.957 3.50194 20.2523 4.21921 20.2523 5.06306C20.2523 5.90691 19.957 6.62418 19.3663 7.21488C18.7756 7.80557 18.0583 8.10092 17.2145 8.10092C16.8094 8.10092 16.4297 8.02919 16.0753 7.88574C15.7209 7.74228 15.4086 7.54398 15.1386 7.29082L8.02497 11.4426C8.05872 11.5607 8.07982 11.6746 8.08826 11.7843C8.0967 11.894 8.10092 12.0164 8.10092 12.1514C8.10092 12.2864 8.0967 12.4088 8.08826 12.5185C8.07982 12.6282 8.05872 12.7421 8.02497 12.8602L15.1386 17.012C15.4086 16.7588 15.7209 16.5605 16.0753 16.417C16.4297 16.2736 16.8094 16.2019 17.2145 16.2019C18.0583 16.2019 18.7756 16.4972 19.3663 17.0879C19.957 17.6786 20.2523 18.3959 20.2523 19.2397C20.2523 20.0836 19.957 20.8008 19.3663 21.3915C18.7756 21.9822 18.0583 22.2776 17.2145 22.2776ZM17.2145 20.2523C17.5014 20.2523 17.7419 20.1553 17.936 19.9612C18.1301 19.7671 18.2271 19.5266 18.2271 19.2397C18.2271 18.9528 18.1301 18.7123 17.936 18.5182C17.7419 18.3241 17.5014 18.2271 17.2145 18.2271C16.9276 18.2271 16.6871 18.3241 16.493 18.5182C16.2989 18.7123 16.2019 18.9528 16.2019 19.2397C16.2019 19.5266 16.2989 19.7671 16.493 19.9612C16.6871 20.1553 16.9276 20.2523 17.2145 20.2523ZM5.06306 13.164C5.34997 13.164 5.59047 13.067 5.78455 12.8729C5.97864 12.6788 6.07568 12.4383 6.07568 12.1514C6.07568 11.8645 5.97864 11.624 5.78455 11.4299C5.59047 11.2358 5.34997 11.1388 5.06306 11.1388C4.77615 11.1388 4.53566 11.2358 4.34157 11.4299C4.14749 11.624 4.05044 11.8645 4.05044 12.1514C4.05044 12.4383 4.14749 12.6788 4.34157 12.8729C4.53566 13.067 4.77615 13.164 5.06306 13.164ZM17.2145 6.07568C17.5014 6.07568 17.7419 5.97864 17.936 5.78455C18.1301 5.59047 18.2271 5.34997 18.2271 5.06306C18.2271 4.77615 18.1301 4.53566 17.936 4.34157C17.7419 4.14749 17.5014 4.05044 17.2145 4.05044C16.9276 4.05044 16.6871 4.14749 16.493 4.34157C16.2989 4.53566 16.2019 4.77615 16.2019 5.06306C16.2019 5.34997 16.2989 5.59047 16.493 5.78455C16.6871 5.97864 16.9276 6.07568 17.2145 6.07568Z" fill="#707070"/>
</svg>
