<svg width="16" height="21" viewBox="0 0 16 21" fill="none" xmlns="http://www.w3.org/2000/svg">
<path d="M2 20.3029C1.45 20.3029 0.979167 20.107 0.5875 19.7154C0.195833 19.3237 0 18.8529 0 18.3029V6.30286C0 5.75286 0.195833 5.28202 0.5875 4.89036C0.979167 4.49869 1.45 4.30286 2 4.30286H4C4 3.20286 4.39167 2.26119 5.175 1.47786C5.95833 0.694523 6.9 0.302856 8 0.302856C9.1 0.302856 10.0417 0.694523 10.825 1.47786C11.6083 2.26119 12 3.20286 12 4.30286H14C14.55 4.30286 15.0208 4.49869 15.4125 4.89036C15.8042 5.28202 16 5.75286 16 6.30286V18.3029C16 18.8529 15.8042 19.3237 15.4125 19.7154C15.0208 20.107 14.55 20.3029 14 20.3029H2ZM2 18.3029H14V6.30286H12V8.30286C12 8.58619 11.9042 8.82369 11.7125 9.01536C11.5208 9.20702 11.2833 9.30286 11 9.30286C10.7167 9.30286 10.4792 9.20702 10.2875 9.01536C10.0958 8.82369 10 8.58619 10 8.30286V6.30286H6V8.30286C6 8.58619 5.90417 8.82369 5.7125 9.01536C5.52083 9.20702 5.28333 9.30286 5 9.30286C4.71667 9.30286 4.47917 9.20702 4.2875 9.01536C4.09583 8.82369 4 8.58619 4 8.30286V6.30286H2V18.3029ZM6 4.30286H10C10 3.75286 9.80417 3.28202 9.4125 2.89036C9.02083 2.49869 8.55 2.30286 8 2.30286C7.45 2.30286 6.97917 2.49869 6.5875 2.89036C6.19583 3.28202 6 3.75286 6 4.30286Z" fill="#707070"/>
</svg>
