<svg width="40" height="41" viewBox="0 0 40 41" fill="none" xmlns="http://www.w3.org/2000/svg"><g clip-path="url(#clip0_157_3334)"><path d="M14.6276 24.3196C17.5716 24.3196 19.9583 21.933 19.9583 18.9889C19.9583 16.0448 17.5716 13.6582 14.6276 13.6582C11.6835 13.6582 9.29688 16.0448 9.29688 18.9889C9.29688 21.933 11.6835 24.3196 14.6276 24.3196Z" fill="white"></path><path d="M24.5617 34.3096V39.78H4.69336V34.3096C4.69336 30.3121 7.93398 27.0715 11.9314 27.0715H17.3236C21.3212 27.0715 24.5617 30.3122 24.5617 34.3096Z" fill="#E9DECE"></path><path d="M24 6.54887C23.7507 6.25919 23.3445 6.26833 23.1016 6.52512L20.4562 9.17091C20.2177 9.40934 20.2177 9.79552 20.4562 10.034C20.6946 10.2724 21.0808 10.2724 21.3192 10.034L22.9326 8.42036V23.4452C22.9326 23.7825 23.2059 24.0555 23.5429 24.0555C23.8799 24.0555 24.1532 23.7825 24.1532 23.4452V8.42802L25.7662 10.0411C26.0046 10.2794 26.3909 10.2795 26.6293 10.0411C26.8677 9.80262 26.8677 9.41645 26.6293 9.17801L24 6.54887Z" fill="#585D69"></path><path d="M33.1088 11.5492C32.8591 11.2599 32.4528 11.27 32.2105 11.5272L29.5655 14.1722C29.3271 14.4106 29.3271 14.7968 29.5655 15.0352C29.804 15.2736 30.1902 15.2736 30.4286 15.0352L32.042 13.4218V28.4464C32.042 28.7838 32.3152 29.0568 32.6523 29.0568C32.9893 29.0568 33.2626 28.7838 33.2626 28.4464V13.4289L34.8756 15.0422C35.114 15.2806 35.5002 15.2807 35.7387 15.0422C35.9771 14.8038 35.9771 14.4176 35.7387 14.1792L33.1088 11.5492Z" fill="#585D69"></path><path d="M8.68652 18.9889C8.68652 22.2645 11.3515 24.9298 14.6275 24.9298C17.9034 24.9298 20.5684 22.2645 20.5684 18.9889C20.5684 15.8539 18.1255 13.2845 15.0441 13.0691V3.42672L16.6575 5.04008C16.8958 5.27844 17.2821 5.27852 17.5205 5.04008C17.7589 4.80165 17.7589 4.41547 17.5205 4.17704L14.8904 1.54696C14.6406 1.25774 14.2343 1.26782 13.992 1.525L11.3474 4.16993C11.1089 4.40836 11.1089 4.79454 11.3474 5.03297C11.5858 5.27141 11.972 5.27141 12.2104 5.03297L13.8235 3.41969V13.109C10.9275 13.5034 8.68652 15.9866 8.68652 18.9889ZM19.3478 18.9889C19.3478 21.5916 17.2302 23.7092 14.6275 23.7092C12.0247 23.7092 9.90715 21.5916 9.90715 18.9889C9.90715 16.3862 12.0247 14.2686 14.6275 14.2686C17.2302 14.2686 19.3478 16.3862 19.3478 18.9889Z" fill="#585D69"></path><path d="M17.3235 26.4617H11.9311C7.60355 26.4617 4.08301 29.9822 4.08301 34.3098V39.7805C4.08301 40.1178 4.35629 40.3908 4.69332 40.3908H24.5616C24.8986 40.3908 25.1719 40.1178 25.1719 39.7805V34.3098C25.1719 29.9822 21.6511 26.4617 17.3235 26.4617ZM23.9513 39.1702H21.8829V36.2677C21.8829 35.9303 21.6096 35.6574 21.2725 35.6574C20.9355 35.6574 20.6622 35.9303 20.6622 36.2677V39.1702H8.5927V36.2677C8.5927 35.9303 8.31941 35.6574 7.98238 35.6574C7.64535 35.6574 7.37207 35.9303 7.37207 36.2677V39.1702H5.30363V34.3098C5.30363 30.6551 8.27676 27.6823 11.9311 27.6823H17.3235C20.9782 27.6823 23.9513 30.6552 23.9513 34.3098V39.1702Z" fill="#585D69"></path></g><defs><clipPath id="clip0_157_3334"><rect width="40" height="40" fill="white" transform="translate(0 0.86084)"></rect></clipPath></defs></svg>