<svg width="14" height="14" viewBox="0 0 14 14" fill="none" xmlns="http://www.w3.org/2000/svg">
<path d="M4.79128 12.5346L3.73274 10.7518L1.72709 10.3061L1.92209 8.24473L0.557129 6.68478L1.92209 5.12483L1.72709 3.06346L3.73274 2.61776L4.79128 0.834961L6.68551 1.64279L8.57974 0.834961L9.63828 2.61776L11.6439 3.06346L11.4489 5.12483L12.8139 6.68478L11.4489 8.24473L11.6439 10.3061L9.63828 10.7518L8.57974 12.5346L6.68551 11.7268L4.79128 12.5346ZM5.26484 11.1139L6.68551 10.5011L8.13404 11.1139L8.91401 9.77683L10.4461 9.41469L10.3068 7.85474L11.3375 6.68478L10.3068 5.48696L10.4461 3.92701L8.91401 3.59273L8.10618 2.25563L6.68551 2.86847L5.23698 2.25563L4.45701 3.59273L2.92491 3.92701L3.06419 5.48696L2.03351 6.68478L3.06419 7.85474L2.92491 9.44255L4.45701 9.77683L5.26484 11.1139ZM6.10053 8.66257L9.24829 5.51482L8.46831 4.70698L6.10053 7.07477L4.90271 5.9048L4.12273 6.68478L6.10053 8.66257Z" fill="#29AE48"/>
</svg>
