<svg width="40" height="41" viewBox="0 0 40 41" fill="none" xmlns="http://www.w3.org/2000/svg"><g clip-path="url(#clip0_157_3323)"><path d="M32.8674 37.6175V39.41C32.8674 39.7017 32.6309 39.9381 32.3393 39.9381H7.66094C7.36922 39.9381 7.13281 39.7016 7.13281 39.41V37.6175C7.13281 37.3258 7.3693 37.0894 7.66094 37.0894H32.3393C32.6309 37.0894 32.8674 37.3258 32.8674 37.6175Z" fill="#E9DECE"></path><path d="M29.9223 30.5596V37.0893H10.0771V30.5596C10.0771 29.6404 10.8223 28.8951 11.7416 28.8951H28.2579C29.1771 28.8952 29.9223 29.6404 29.9223 30.5596Z" fill="white"></path><path d="M26.9135 32.9923C26.9135 33.7222 26.3218 34.314 25.5919 34.314H14.4076C13.6777 34.314 13.0859 33.7223 13.0859 32.9923C13.0859 32.2624 13.6777 31.6707 14.4076 31.6707H25.5918C26.3218 31.6707 26.9135 32.2624 26.9135 32.9923Z" fill="#E9DECE"></path><path d="M18.2471 2.79688V28.8952H23.6782L31.1828 7.70563C31.3621 7.19914 31.1143 6.64079 30.6183 6.43414L19.6477 1.86305C18.9814 1.5854 18.2471 2.075 18.2471 2.79688Z" fill="white"></path><path d="M14.9334 28.8952H19.599V7.75546C19.599 7.04171 18.9229 6.52155 18.233 6.70452L9.60388 8.99257C8.99935 9.15288 8.65435 9.78882 8.84966 10.383L14.9334 28.8952Z" fill="#E9DECE"></path><path d="M32.3391 36.6423H30.3695V30.5597C30.3695 29.3953 29.4223 28.4481 28.258 28.4481H24.3104L31.6055 7.85579C31.8637 7.12313 31.5048 6.31712 30.7892 6.02134L19.8195 1.44852C19.3686 1.26133 18.8563 1.3111 18.4497 1.58274C18.0427 1.85462 17.8 2.30876 17.8 2.79774V4.89298C17.8 5.13985 18.0002 5.34009 18.2471 5.34009C18.494 5.34009 18.6942 5.13985 18.6942 4.89298V2.79774C18.6942 2.60532 18.7862 2.4336 18.9463 2.32649C19.1059 2.22024 19.2983 2.20048 19.4761 2.27438L30.4464 6.84712C30.7235 6.9618 30.8623 7.27415 30.7623 7.55766L23.3622 28.4472C23.0231 28.4473 24.5905 28.4469 20.0461 28.4481V7.75563C20.0461 7.27563 19.8278 6.83227 19.4476 6.53946C19.0668 6.24688 18.5836 6.14938 18.1182 6.27227L9.48953 8.56055C9.08289 8.66829 8.73461 8.94219 8.53406 9.31188C8.33336 9.68157 8.29344 10.1229 8.42492 10.5228L14.3159 28.4482H11.7418C10.5776 28.4482 9.63039 29.3954 9.63039 30.5598V36.6424H7.66086C7.12305 36.6424 6.68555 37.0799 6.68555 37.6176V39.4101C6.68555 39.9477 7.12305 40.3852 7.66086 40.3852H32.3393C32.877 40.3852 33.3145 39.9477 33.3145 39.4101V37.6176C33.3142 37.0798 32.8767 36.6423 32.3391 36.6423ZM9.2743 10.2436C9.21867 10.0741 9.23484 9.89485 9.31969 9.73829C9.40469 9.58196 9.54617 9.47048 9.71836 9.42509L18.3472 7.1368C18.5408 7.08555 18.743 7.12571 18.902 7.24829C19.0607 7.37055 19.1518 7.5554 19.1518 7.75563V28.4481H15.257L9.2743 10.2436ZM10.5244 30.5597C10.5244 29.8884 11.0705 29.3424 11.7416 29.3424H28.2579C28.9291 29.3424 29.4752 29.8884 29.4752 30.5597V36.6423H10.5244V30.5597ZM32.42 39.41C32.42 39.4545 32.3836 39.4909 32.3391 39.4909H7.66062C7.61594 39.4909 7.57953 39.4545 7.57953 39.41V37.6175C7.57953 37.573 7.61594 37.5366 7.66062 37.5366H32.3391C32.3836 37.5366 32.42 37.573 32.42 37.6175V39.41Z" fill="#585D69"></path><path d="M25.5916 31.2234H14.4073C13.4322 31.2234 12.6387 32.0169 12.6387 32.9924C12.6387 33.9675 13.4322 34.761 14.4073 34.761H25.5916C26.5671 34.761 27.3606 33.9675 27.3606 32.9924C27.3605 32.0169 26.567 31.2234 25.5916 31.2234ZM25.5916 33.8668H14.4073C13.9253 33.8668 13.5329 33.4744 13.5329 32.9924C13.5329 32.51 13.9253 32.1176 14.4073 32.1176H25.5916C26.074 32.1176 26.4664 32.51 26.4664 32.9924C26.4663 33.4744 26.074 33.8668 25.5916 33.8668Z" fill="#585D69"></path></g><defs><clipPath id="clip0_157_3323"><rect width="40" height="40" fill="white" transform="translate(0 0.860962)"></rect></clipPath></defs></svg>