<svg width="24" height="20" viewBox="0 0 24 20" fill="none" xmlns="http://www.w3.org/2000/svg">
<g clip-path="url(#clip0_40001088_885)">
<path d="M24 2.43542C23.1169 2.83513 22.1679 3.10528 21.1719 3.22681C22.1887 2.6048 22.9693 1.61982 23.3369 0.446234C22.3704 1.03167 21.3129 1.44415 20.2103 1.66585C19.312 0.689105 18.0324 0.0786743 16.6162 0.0786743C13.8968 0.0786743 11.6921 2.32901 11.6921 5.10451C11.6921 5.49848 11.7357 5.88202 11.8196 6.24997C7.72744 6.0403 4.09931 4.03944 1.67072 0.998674C1.24697 1.74097 1.00416 2.60442 1.00416 3.52537C1.00416 5.2691 1.8735 6.80738 3.19462 7.70872C2.4127 7.68373 1.64798 7.46816 0.964313 7.08001C0.964031 7.10107 0.964031 7.12212 0.964031 7.14327C0.964031 9.57839 2.66128 11.6098 4.91372 12.0715C4.18864 12.2728 3.42809 12.3022 2.69016 12.1576C3.31669 14.1544 5.13516 15.6074 7.28972 15.6481C5.60456 16.996 3.48141 17.7995 1.17459 17.7995C0.777094 17.7995 0.385219 17.7757 0 17.7293C2.17903 19.1553 4.76719 19.9874 7.54781 19.9874C16.6047 19.9874 21.5573 12.3289 21.5573 5.68738C21.5573 5.46939 21.5526 5.25265 21.543 5.03714C22.507 4.32584 23.339 3.44481 24 2.43542Z" fill="#63A7FF"/>
</g>
<defs>
<clipPath id="clip0_40001088_885">
<rect width="24" height="20" fill="white"/>
</clipPath>
</defs>
</svg>
