<svg width="60" height="61" viewBox="0 0 60 61" fill="none" xmlns="http://www.w3.org/2000/svg"><g clip-path="url(#clip0_173_3051)"><path d="M57.7119 17.2605V47.8891C57.7119 49.9911 56.0079 51.695 53.906 51.695H6.0941C3.99211 51.695 2.2882 49.991 2.2882 47.8891V17.2605C2.2882 15.1585 3.99223 13.4546 6.0941 13.4546H53.906C56.0079 13.4545 57.7119 15.1585 57.7119 17.2605Z" fill="white"/><path d="M2.28809 43.3298V47.8891C2.28809 49.9911 3.99211 51.6951 6.09398 51.6951H53.9059C56.0079 51.6951 57.7119 49.9911 57.7119 47.8891V43.3298H2.28809Z" fill="#E9DECE"/><path d="M30 61.7917C34.5457 61.7917 38.2308 59.0424 38.2308 55.6509C38.2308 52.2594 34.5457 49.51 30 49.51C25.4543 49.51 21.7692 52.2594 21.7692 55.6509C21.7692 59.0424 25.4543 61.7917 30 61.7917Z" fill="white"/><path d="M41.3184 29.6965C47.5721 23.4427 47.5721 13.3034 41.3184 7.04964C35.0646 0.7959 24.9253 0.795899 18.6716 7.04964C12.4178 13.3034 12.4178 23.4427 18.6716 29.6965C24.9253 35.9502 35.0646 35.9502 41.3184 29.6965Z" fill="#E9DECE"/><path d="M30 34.3877C34.0313 34.3877 37.2993 27.2171 37.2993 18.3716C37.2993 9.52614 34.0313 2.35547 30 2.35547C25.9687 2.35547 22.7007 9.52614 22.7007 18.3716C22.7007 27.2171 25.9687 34.3877 30 34.3877Z" fill="white"/><path d="M23.6763 12.5425C24.9027 12.5425 25.8969 11.5483 25.8969 10.3219C25.8969 9.09551 24.9027 8.10132 23.6763 8.10132C22.4499 8.10132 21.4557 9.09551 21.4557 10.3219C21.4557 11.5483 22.4499 12.5425 23.6763 12.5425Z" fill="white"/><path d="M30.0007 25.6441C31.2271 25.6441 32.2213 24.6499 32.2213 23.4235C32.2213 22.1971 31.2271 21.2029 30.0007 21.2029C28.7743 21.2029 27.7801 22.1971 27.7801 23.4235C27.7801 24.6499 28.7743 25.6441 30.0007 25.6441Z" fill="#E9DECE"/><path d="M53.907 12.7817H48.043C47.6726 12.7817 47.3721 13.0822 47.3721 13.4526C47.3721 13.8231 47.6726 14.1235 48.043 14.1235H53.907C55.6358 14.1235 57.0422 15.53 57.0422 17.2588V42.6587H2.95781V17.2588C2.95781 15.5299 4.36453 14.1235 6.09328 14.1235H11.957C12.3277 14.1235 12.6279 13.8231 12.6279 13.4526C12.6279 13.0822 12.3275 12.7817 11.957 12.7817H6.09328C3.62449 12.7817 1.6159 14.7901 1.6159 17.2589V47.8881C1.6159 50.3647 3.63223 52.366 6.0941 52.366H23.307C24.3817 54.4241 24.3817 56.8779 23.307 58.9358H20.0415C19.6711 58.9358 19.3706 59.2363 19.3706 59.6067C19.3706 59.9771 19.6711 60.2776 20.0415 60.2776H39.9584C40.3288 60.2776 40.6293 59.9771 40.6293 59.6067C40.6293 59.2363 40.3288 58.9358 39.9584 58.9358H36.6929C35.6182 56.8778 35.6182 54.424 36.6929 52.366C54.562 52.244 54.1714 52.6391 55.6478 52.0132C57.2542 51.3324 58.384 49.7396 58.384 47.8881V17.2588C58.384 14.7901 56.3756 12.7817 53.907 12.7817ZM2.9591 44.0005H57.0409V47.8892C57.0409 49.1855 56.2499 50.3005 55.1254 50.7771C54.0209 51.2447 56.4033 50.9327 6.09328 51.0237C4.365 51.0237 2.9591 49.6172 2.9591 47.8892V44.0005ZM35.2075 58.9357H24.7927C25.6793 56.8369 25.6793 54.4646 24.7927 52.3659H35.2075C34.3207 54.4647 34.3207 56.837 35.2075 58.9357Z" fill="#585D69"/><path d="M27.7335 48.1833H32.2665C32.637 48.1833 32.9374 47.8829 32.9374 47.5125C32.9374 47.142 32.637 46.8416 32.2665 46.8416H27.7335C27.363 46.8416 27.0626 47.142 27.0626 47.5125C27.0626 47.8829 27.363 48.1833 27.7335 48.1833Z" fill="#585D69"/><path d="M15.917 27.3059C15.9393 27.3515 15.9667 27.3935 15.9983 27.4326C22.5956 37.5924 37.391 37.6044 43.9983 27.4384C44.0345 27.3946 44.0659 27.3472 44.0902 27.2951C47.5493 21.8524 47.5562 14.9165 44.1013 9.46548C44.0745 9.40337 44.0366 9.3477 43.9931 9.29696C37.3765 -0.870929 22.5735 -0.832023 15.9913 9.32181C15.9675 9.35239 15.9469 9.38509 15.9286 9.41954C12.4443 14.877 12.4384 21.842 15.917 27.3059ZM20.7891 10.402C20.82 11.5276 21.4963 12.4925 22.4614 12.942C22.2135 14.4681 22.0738 16.0624 22.0437 17.7008H14.6719C14.7872 15.0372 15.5825 12.5472 16.8914 10.402H20.7891ZM45.3284 17.7008H37.9597C37.912 15.1241 37.5933 12.6306 37.0228 10.402H43.1087C44.4177 12.5472 45.213 15.0372 45.3284 17.7008ZM43.1081 26.3424H37.0336C37.5862 24.1691 37.915 21.694 37.9628 19.0427H45.3284C45.213 21.7067 44.4175 24.1971 43.1081 26.3424ZM14.6719 19.0427H22.0372C22.085 21.6941 22.4136 24.1691 22.9664 26.3424H16.892C15.5828 24.1971 14.7872 21.7067 14.6719 19.0427ZM23.7775 13.2081C25.2981 13.1552 26.5218 11.9254 26.5636 10.402H29.329V17.7008H23.3854C23.4151 16.1531 23.5464 14.6482 23.7775 13.2081ZM23.3789 19.0427H29.3291V20.6142C28.0582 20.9183 27.1093 22.0611 27.1093 23.4238C27.1093 24.7865 28.0582 25.9293 29.3291 26.2334V26.3425H24.3697C23.7882 24.1841 23.4308 21.6881 23.3789 19.0427ZM30.0008 24.9735C29.1464 24.9735 28.4511 24.2781 28.4511 23.4238C28.4511 22.5703 29.1451 21.8758 29.9982 21.8743C29.9988 21.8743 29.9994 21.8745 30 21.8745C30.0009 21.8745 30.0016 21.8742 30.0026 21.8742C30.8562 21.8752 31.5506 22.5701 31.5506 23.4238C31.5506 24.2781 30.8552 24.9735 30.0008 24.9735ZM29.3291 27.6842V33.6362C27.5014 33.188 25.8681 30.9333 24.7755 27.6842H29.3291ZM30.6709 33.6362V27.6842H35.2245C34.1319 30.9333 32.4986 33.188 30.6709 33.6362ZM30.6709 26.3424V26.2337C31.9426 25.9302 32.8924 24.787 32.8924 23.4237C32.8924 22.0603 31.9426 20.9172 30.6709 20.6136V19.0426H36.6211C36.5691 21.688 36.2118 24.184 35.6303 26.3422L30.6709 26.3424ZM36.6179 17.7008H30.6709V10.402H35.6328C36.2309 12.6069 36.5681 15.1054 36.6179 17.7008ZM30.6709 9.06024V3.11825C32.4327 3.56462 34.1067 5.73575 35.23 9.06024H30.6709ZM29.3291 3.11368V9.06024H26.2739C26.0359 8.57239 25.6658 8.16177 25.2088 7.87442C26.3177 5.18661 27.7836 3.49899 29.3291 3.11368ZM25.2259 10.3221C25.2259 11.1765 24.531 11.8715 23.6766 11.8715C22.8221 11.8715 22.1269 11.1765 22.1269 10.3221C22.1269 9.4677 22.8223 8.77243 23.6766 8.77243C24.5309 8.77243 25.2259 9.46782 25.2259 10.3221ZM17.815 27.6842H23.3484C24.0994 30.0602 25.1359 31.9886 26.3631 33.278C22.9103 32.4354 19.9129 30.4228 17.815 27.6842ZM33.637 33.278C34.8642 31.9887 35.9006 30.0604 36.6517 27.6842H42.1853C40.0873 30.4228 37.0897 32.4354 33.637 33.278ZM42.1859 9.06024H36.6379C35.8724 6.63587 34.8332 4.72923 33.6248 3.46278C37.083 4.30372 40.0855 6.31794 42.1859 9.06024ZM26.3678 3.46442C25.444 4.4338 24.6178 5.77993 23.9379 7.44376C22.7026 7.33267 21.5916 8.00942 21.079 9.06024H17.8143C19.9131 6.31993 22.9127 4.30653 26.3678 3.46442Z" fill="#585D69"/></g><defs><clipPath id="clip0_173_3051"><rect width="60" height="60" fill="white" transform="translate(0 0.983154)"/></clipPath></defs></svg>