<svg width="60" height="61" viewBox="0 0 60 61" fill="none" xmlns="http://www.w3.org/2000/svg"><g clip-path="url(#clip0_173_3034)"><path d="M7.11139 41.6003V50.2C7.11139 51.1213 7.85905 51.8683 8.78119 51.8683H43.5251C44.4473 51.8683 45.1949 51.1213 45.1949 50.2V41.5267C45.1949 39.1096 43.8227 36.9016 41.6543 35.8297L31.8184 30.967H21.0665L10.7469 35.8572C8.52666 36.9094 7.11139 39.1451 7.11139 41.6003Z" fill="#E9DECE"/><path d="M31.432 25.377V30.4275C31.432 33.3402 29.0687 35.7013 26.1533 35.7013C23.2379 35.7013 20.8746 33.3401 20.8746 30.4275V25.377H31.432Z" fill="white"/><path d="M44.6292 59.5135C49.1917 59.5135 52.8903 55.8148 52.8903 51.2523C52.8903 46.6898 49.1917 42.9912 44.6292 42.9912C40.0667 42.9912 36.3681 46.6898 36.3681 51.2523C36.3681 55.8148 40.0667 59.5135 44.6292 59.5135Z" fill="white"/><path d="M37.4225 9.85198V17.5347C37.4225 19.0228 36.2243 20.2293 34.746 20.2296L17.5621 20.2343C16.0832 20.2347 14.884 19.028 14.884 17.5394V9.97069C14.884 8.38128 16.1454 7.09022 17.7123 7.05062C18.3384 4.41378 20.6979 2.45288 23.5111 2.45288H30.0721C34.1315 2.45288 37.4225 5.76554 37.4225 9.85198Z" fill="#E9DECE"/><path d="M35.3278 13.7009V20.5638C35.3278 25.6643 31.2203 29.7989 26.1533 29.7989C21.0864 29.7989 16.9788 25.6641 16.9788 20.5638V13.7009H17.7326C19.7232 13.7009 21.4022 12.1224 21.4428 10.1191C21.4432 10.1032 21.4434 10.0872 21.4437 10.0713C24.5346 12.1678 27.6707 14.0091 31.1795 13.7397C31.4408 13.7197 31.7021 13.7011 31.9642 13.7011L35.3278 13.7009Z" fill="white"/><path d="M8.77886 52.63H33.3517C33.7707 52.63 34.1105 52.2903 34.1105 51.8712C34.1105 51.4521 33.7707 51.1124 33.3517 51.1124H13.8841V46.5719C13.8841 46.1528 13.5444 45.8131 13.1253 45.8131C12.7063 45.8131 12.3666 46.1528 12.3666 46.5719V51.1124H8.77886C8.27672 51.1124 7.86832 50.704 7.86832 50.2019V41.6003C7.86832 39.4478 9.12504 37.4629 11.0706 36.5431L20.3681 32.1358C21.1043 34.6074 23.38 36.4586 26.152 36.4586C28.9679 36.4586 31.3433 34.5505 32.002 31.9035L41.3183 36.5069C42.7855 37.2351 43.8573 38.5621 44.2587 40.1473C44.3459 40.4911 44.6546 40.7202 44.9938 40.7202C45.0554 40.7202 45.1182 40.7125 45.1805 40.6968C45.5865 40.5939 45.8325 40.181 45.73 39.775C45.2196 37.7595 43.8573 36.0729 41.9918 35.147L32.1922 30.3048V28.5006C34.6001 26.6377 36.041 23.7639 36.085 20.7098C37.3298 20.1815 38.1837 18.9337 38.1837 17.5376V9.85257C38.1837 5.35409 34.5457 1.69409 30.0736 1.69409H23.5119C20.5692 1.69409 18.0149 3.58245 17.1227 6.34878C15.4036 6.66237 14.1273 8.15534 14.1273 9.96788V17.5376C14.1273 18.9587 14.9668 20.1918 16.2291 20.7192C16.2729 23.6595 17.5673 26.518 20.1187 28.4938C20.121 29.0943 20.1127 29.9762 20.1273 30.571L10.4215 35.1716C7.94836 36.3403 6.35074 38.8639 6.35074 41.6003V50.2019C6.35074 51.5407 7.43976 52.63 8.77886 52.63ZM26.1521 34.9411C23.8169 34.9411 21.9224 33.1714 21.667 30.9466C21.6183 30.5455 21.6427 30.302 21.6362 29.4655C23.027 30.1811 24.564 30.5583 26.1521 30.5583C27.7433 30.5583 29.2823 30.1813 30.6746 29.4653C30.6673 30.3399 30.6921 30.4667 30.6479 30.8894C30.4161 33.1991 28.483 34.9411 26.1521 34.9411ZM15.6448 9.96776C15.6448 8.78745 16.563 7.83811 17.7356 7.80636C18.0794 7.79722 18.3741 7.55769 18.4529 7.223C19.0131 4.86097 21.0939 3.21155 23.5119 3.21155H30.0736C33.7086 3.21155 36.6661 6.19069 36.6661 9.85245V17.5375C36.6661 18.0686 36.4467 18.5616 36.0893 18.9155V13.7009C36.0893 13.2818 35.7496 12.9421 35.3305 12.9421C30.8645 12.2828 29.8977 14.8851 21.8674 9.44276C21.6374 9.28655 21.3404 9.29311 21.0932 9.42108C20.8466 9.54858 20.6889 9.82538 20.6829 10.1031C20.6497 11.6687 19.326 12.9421 17.7325 12.9421H16.9802C16.5612 12.9421 16.2214 13.2818 16.2214 13.7009V18.9262C15.861 18.5732 15.6446 18.0796 15.6446 17.5375L15.6448 9.96776ZM17.739 20.5666C17.739 18.5255 17.739 16.4941 17.739 14.4598C19.7214 14.4569 21.4268 13.145 21.9977 11.3535C29.1605 16.031 31.113 14.0073 34.5716 14.4598V20.5666C34.5716 23.3178 33.2343 25.9118 30.9953 27.5048C29.5744 28.5095 27.8996 29.0407 26.152 29.0407C24.4086 29.0407 22.7362 28.5096 21.3202 27.508C18.9516 25.8058 17.739 23.225 17.739 20.5666Z" fill="#585D69"/><path d="M35.6091 51.2525C35.6091 56.226 39.6556 60.2723 44.6291 60.2723C49.6027 60.2723 53.6491 56.2261 53.6491 51.2525C53.6491 46.2788 49.6027 42.2324 44.6291 42.2324C39.6556 42.2324 35.6091 46.2789 35.6091 51.2525ZM52.1317 51.2525C52.1317 55.3893 48.7663 58.7547 44.6292 58.7547C40.4922 58.7547 37.1268 55.3893 37.1268 51.2525C37.1268 47.1156 40.4922 43.75 44.6292 43.75C48.7663 43.75 52.1317 47.1156 52.1317 51.2525Z" fill="#585D69"/><path d="M41.5815 50.9137C41.3261 50.5821 40.8489 50.521 40.5175 50.7761C40.1855 51.032 40.1238 51.5082 40.3793 51.8402L42.3657 54.4172C42.6398 54.7715 43.1557 54.8127 43.4825 54.5106L49.3181 49.1078C49.6252 48.8232 49.6441 48.343 49.359 48.0357C49.0745 47.7281 48.5948 47.7099 48.2866 47.9945L43.0606 52.8329L41.5815 50.9137Z" fill="#585D69"/></g><defs><clipPath id="clip0_173_3034"><rect width="60" height="60" fill="white" transform="translate(0 0.983154)"/></clipPath></defs></svg>