<svg width="60" height="61" viewBox="0 0 60 61" fill="none" xmlns="http://www.w3.org/2000/svg"><path d="M54.5955 20.0087V49.0671H5.13773V20.0087C5.13773 16.4151 8.05089 13.502 11.6444 13.502H48.0888C51.6824 13.502 54.5955 16.4151 54.5955 20.0087Z" fill="#FEFDFE"/><path d="M58.2472 49.6171V49.0674H1.48605V49.6171C1.48605 52.1978 3.57808 54.2898 6.15879 54.2898H53.5745C56.1552 54.2898 58.2472 52.1977 58.2472 49.6171Z" fill="#E9DECE"/><path d="M39.1638 17.522V29.5953L29.8666 34.5138L20.5695 29.5953V17.522H39.1638Z" fill="#E9DECE"/><path d="M46.7815 16.6221L29.8667 25.5679L12.9518 16.6135L29.8667 7.67627L46.7815 16.6221Z" fill="#E9DECE"/><path d="M58.3806 48.1518H55.6439V20.0135C55.6439 16.1951 52.7951 13.0248 49.0172 12.6386C48.508 12.5965 48.0646 12.9541 48.0136 13.4566C47.9622 13.96 48.3282 14.4088 48.8312 14.4607C51.6711 14.7504 53.8129 17.1383 53.8129 20.0136V48.1519H6.18844V20.0135C6.18844 17.1579 8.31762 14.77 11.141 14.4597C11.6435 14.4042 12.006 13.9519 11.951 13.4494C11.8956 12.9469 11.4414 12.584 10.9407 12.6394C7.18758 13.0525 4.35739 16.2218 4.35739 20.0135V48.1518H1.61942C1.11387 48.1518 0.703949 48.5612 0.703949 49.0672V49.6171C0.703949 52.6979 3.21082 55.2048 6.29215 55.2048H53.7079C56.7892 55.2048 59.2961 52.6979 59.2961 49.6171V49.0672C59.2961 48.5612 58.8861 48.1518 58.3806 48.1518ZM53.7079 53.3739H6.29215C4.34403 53.3739 2.73704 51.8835 2.55235 49.9827C66.4554 49.9845 51.8702 49.9832 57.4477 49.9827C57.2631 51.8835 55.656 53.3739 53.7079 53.3739Z" fill="#585D69"/><path d="M20.6993 23.8677C20.1938 23.8677 19.7838 24.2771 19.7838 24.7831V29.5985C19.7838 29.9382 19.9716 30.2494 20.2716 30.4076L29.5732 35.3239C29.7069 35.3946 29.854 35.4303 30.0011 35.4303C30.1481 35.4303 30.2952 35.3946 30.4293 35.3239L39.7215 30.4076C40.0211 30.2494 40.2088 29.9373 40.2088 29.5985V24.7922C40.2088 24.2862 39.7989 23.8767 39.2933 23.8767C38.7878 23.8767 38.3779 24.2862 38.3779 24.7922V29.0469L30.0011 33.4796L21.6149 29.0469V24.7831C21.6148 24.2771 21.2049 23.8677 20.6993 23.8677Z" fill="#585D69"/><path d="M16.7766 40.8806C16.7766 41.3866 17.1865 41.796 17.692 41.796H42.3082C42.8137 41.796 43.2237 41.3866 43.2237 40.8806C43.2237 40.3745 42.8137 39.9651 42.3082 39.9651H17.6921C17.1865 39.9651 16.7766 40.3745 16.7766 40.8806Z" fill="#585D69"/><path d="M46.9149 26.4836C47.4204 26.4836 47.8303 26.0742 47.8303 25.5682V16.6223C47.8303 16.318 47.6387 15.9693 47.3426 15.8132L30.4277 6.86738C30.1604 6.72617 29.8404 6.72617 29.5722 6.86738L12.6573 15.8042C12.3573 15.9624 12.1696 16.2736 12.1696 16.6133C12.1696 16.9521 12.3569 17.2632 12.6569 17.4223L29.5717 26.3771C29.7054 26.4478 29.8528 26.4835 29.9999 26.4835C30.147 26.4835 30.294 26.4478 30.4277 26.3771L45.9994 18.1418V25.568C45.9994 26.0742 46.4093 26.4836 46.9149 26.4836ZM30 24.532L15.0435 16.6143L30 8.7118L43.2256 15.7068H30C29.4945 15.7068 29.0845 16.1163 29.0845 16.6223C29.0845 17.1283 29.4945 17.5378 30 17.5378H43.2253L30 24.532Z" fill="#585D69"/></svg>